<svg width="279" height="48" viewBox="0 0 279 48" fill="none" xmlns="http://www.w3.org/2000/svg">
<path d="M47.7409 23.909V23.8163C47.6945 10.7023 37.1312 0 24.2027 0C11.2741 0 0.66449 10.7023 0.66449 23.909C0.66449 37.1172 11.2261 47.7981 24.2027 47.7981C30.1572 47.8021 35.884 45.5102 40.1917 41.3992C40.6159 41.0116 40.8688 40.4713 40.8948 39.8972C40.9207 39.3231 40.7175 38.7622 40.3299 38.3379C39.9422 37.9137 39.402 37.6607 38.8279 37.6348C38.2538 37.6089 37.6929 37.8121 37.2686 38.1997L37.2223 38.2461C35.3636 40.013 33.1671 41.3861 30.7646 42.283C28.3621 43.1799 25.8031 43.582 23.2413 43.4653C20.6795 43.3486 18.1676 42.7154 15.8566 41.6038C13.5456 40.4922 11.483 38.925 9.79276 36.9964L19.8479 20.8717V28.3332C19.8479 31.8985 21.2383 33.0588 22.4068 33.3832C23.5754 33.7076 25.3282 33.4725 27.2267 30.4618L32.7434 21.504C32.8907 21.2425 33.0612 20.9942 33.2499 20.7608V25.3043C33.2499 28.6394 34.5939 31.3274 36.9095 32.6234C37.9784 33.2055 39.185 33.4871 40.4011 33.4384C41.6172 33.3898 42.7975 33.0126 43.8165 32.347C46.4912 30.6108 47.9279 27.5702 47.7409 23.909ZM41.6234 28.6014C41.2519 28.8573 40.8188 29.0092 40.3689 29.0415C39.919 29.0738 39.4687 28.9853 39.0645 28.7851C38.1376 28.2306 37.5798 26.981 37.5798 25.2662V20.0143C37.5798 17.515 36.6066 15.7059 34.9398 15.2458C32.1111 14.3917 29.9826 17.8858 29.193 19.1834L24.2027 27.1978V17.3297C24.1563 15.0604 23.4132 13.7164 22.0228 13.2977C21.0959 13.0212 19.7056 13.1619 18.3632 15.2011L7.1958 33.0852C5.71016 30.2543 4.93159 27.106 4.92656 23.909C4.92656 13.1123 13.5897 4.35476 24.2027 4.35476C34.8157 4.35476 43.4788 13.1123 43.4788 23.909V24.0033C43.5897 26.0855 42.921 27.7572 41.625 28.5881L41.6234 28.6014ZM80.5481 15.7539C80.8551 15.9506 81.1116 16.2166 81.2971 16.5305C81.4825 16.8445 81.5916 17.1976 81.6156 17.5614C81.6124 18.0933 81.4029 18.6031 81.0311 18.9835C80.6594 19.3639 80.1545 19.5851 79.6228 19.6006C79.3706 19.5813 79.1214 19.5341 78.8796 19.4599C77.5816 18.4861 76.0068 17.9515 74.3842 17.9338C70.4465 17.9338 67.7602 21.1283 67.7602 25.1123C67.7602 29.0963 70.4945 32.2494 74.3842 32.2494C76.2539 32.2467 78.0489 31.5152 79.3878 30.2102C79.7288 29.9702 80.1326 29.8411 80.5481 29.8394C80.8806 29.8357 81.2082 29.9205 81.4972 30.0849C81.7862 30.2494 82.0264 30.4877 82.1931 30.7755C82.3598 31.0632 82.4471 31.3901 82.4459 31.7227C82.4448 32.0552 82.3553 32.3815 82.1867 32.6681C82.0261 32.9495 81.7977 33.1895 81.5213 33.3633C80.1647 34.4912 78.5568 35.2764 76.8331 35.6526C75.1094 36.0287 73.3205 35.9848 71.6174 35.5246C69.9142 35.0643 68.3467 34.2013 67.0471 33.0081C65.7474 31.815 64.7538 30.3268 64.15 28.6691C63.5461 27.0114 63.3498 25.2328 63.5775 23.4833C63.8053 21.7339 64.4504 20.0648 65.4585 18.6169C66.4667 17.1691 67.8082 15.9849 69.37 15.1643C70.9317 14.3436 72.668 13.9106 74.4322 13.9018C76.6137 13.8687 78.7522 14.5142 80.5481 15.7539ZM91.5748 20.3735C89.4961 20.3647 87.4987 21.1803 86.0204 22.6416C84.542 24.1029 83.7032 26.0907 83.6879 28.1694C83.7008 30.2596 84.5334 32.2612 86.0068 33.7438C87.4801 35.2265 89.4765 36.0717 91.5665 36.0977C95.6449 36.0977 99.1208 32.4364 99.1208 28.1694C99.1208 23.9057 95.6995 20.3735 91.5748 20.3735ZM91.5285 32.2361C89.5836 32.2361 87.9616 30.475 87.9616 28.2041C87.9616 25.8422 89.5836 24.4039 91.5285 24.4039C93.3376 24.4039 94.8636 25.8886 94.8636 28.2041C94.8636 30.5214 93.3376 32.2494 91.5285 32.2494V32.2361ZM101.723 33.6861V22.7487C101.717 22.4651 101.769 22.1833 101.874 21.9198C101.978 21.6562 102.135 21.4162 102.333 21.2137C102.532 21.0113 102.769 20.8504 103.03 20.7405C103.292 20.6306 103.573 20.574 103.856 20.5738C104.427 20.5812 104.972 20.814 105.371 21.2215C105.771 21.6289 105.993 22.1779 105.99 22.7487V33.6861C105.994 34.2571 105.772 34.8065 105.372 35.2143C104.972 35.6221 104.427 35.8552 103.856 35.8626C103.288 35.846 102.749 35.61 102.351 35.2042C101.953 34.7984 101.728 34.2543 101.723 33.6861ZM101.398 16.4491C101.389 16.1189 101.446 15.7902 101.564 15.4821C101.683 15.174 101.863 14.8926 102.091 14.6543C102.32 14.4161 102.594 14.2256 102.897 14.0942C103.2 13.9627 103.526 13.8928 103.856 13.8886C104.188 13.8924 104.517 13.9618 104.822 14.0926C105.128 14.2234 105.404 14.4131 105.636 14.6509C105.869 14.8887 106.052 15.1699 106.175 15.4785C106.298 15.787 106.36 16.1168 106.356 16.4491C106.356 17.1063 106.094 17.7365 105.63 18.2012C105.165 18.6658 104.535 18.9269 103.878 18.9269C103.221 18.9269 102.59 18.6658 102.126 18.2012C101.661 17.7365 101.398 17.1063 101.398 16.4491ZM114.141 27.7572V33.6861C114.141 34.2519 113.917 34.7946 113.517 35.1947C113.116 35.5948 112.574 35.8196 112.008 35.8196C111.442 35.8196 110.899 35.5948 110.499 35.1947C110.099 34.7946 109.874 34.2519 109.874 33.6861V22.2406C109.874 21.8042 110.048 21.3857 110.356 21.0772C110.665 20.7686 111.083 20.5953 111.52 20.5953C111.956 20.5953 112.374 20.7686 112.683 21.0772C112.992 21.3857 113.165 21.8042 113.165 22.2406C113.773 21.6192 114.505 21.133 115.314 20.8136C116.122 20.4942 116.989 20.3488 117.857 20.3868C122.123 20.3868 124.021 23.5846 124.021 27.2458V33.6861C124.021 34.2519 123.796 34.7946 123.396 35.1947C122.996 35.5948 122.453 35.8196 121.888 35.8196C121.322 35.8196 120.779 35.5948 120.379 35.1947C119.979 34.7946 119.754 34.2519 119.754 33.6861V27.7572C119.754 25.9018 119.524 24.3443 116.836 24.3443C114.939 24.3443 114.15 25.9183 114.15 27.7572H114.141ZM137.82 30.0265C137.604 30.027 137.39 29.9767 137.197 29.8795C137.003 29.7823 136.835 29.641 136.706 29.467L131.749 24.0927V33.6861C131.757 33.9711 131.708 34.2549 131.604 34.5206C131.501 34.7863 131.345 35.0285 131.146 35.233C130.947 35.4374 130.709 35.5999 130.447 35.7109C130.184 35.8218 129.902 35.879 129.616 35.879C129.331 35.879 129.049 35.8218 128.786 35.7109C128.524 35.5999 128.286 35.4374 128.087 35.233C127.888 35.0285 127.732 34.7863 127.629 34.5206C127.525 34.2549 127.476 33.9711 127.484 33.6861V14.6863C127.55 14.5288 127.659 14.3931 127.798 14.2949C127.938 14.1968 128.103 14.1403 128.273 14.1319C128.641 14.1942 128.971 14.3921 129.2 14.6863L137.125 23.5846C137.206 23.6992 137.309 23.7962 137.429 23.8696C137.548 23.943 137.682 23.9913 137.82 24.0116C138.096 23.9581 138.343 23.8064 138.516 23.5846L146.437 14.6863C146.547 14.5371 146.685 14.4113 146.844 14.3161C147.003 14.2209 147.179 14.1583 147.362 14.1319C147.536 14.1276 147.706 14.1791 147.849 14.2789C147.991 14.3788 148.097 14.5216 148.152 14.6863V33.6877C148.157 33.9713 148.106 34.2531 148.001 34.5166C147.896 34.7802 147.74 35.0202 147.541 35.2227C147.343 35.4251 147.106 35.586 146.844 35.6959C146.583 35.8058 146.302 35.8624 146.018 35.8626C145.448 35.8543 144.904 35.6209 144.504 35.2133C144.105 34.8056 143.883 34.2567 143.887 33.6861V24.0927L138.924 29.467C138.638 29.7862 138.242 29.9859 137.815 30.0265H137.82ZM177.9 24.3277H177.435C174.749 24.4634 174.241 25.9961 174.241 27.7407V33.6695C174.24 34.2352 174.015 34.7776 173.615 35.1777C173.215 35.5777 172.673 35.8026 172.107 35.803C171.542 35.8022 170.999 35.5768 170.6 35.1765C170.2 34.7762 169.975 34.2336 169.975 33.6679V22.2422C169.976 21.8057 170.15 21.3873 170.459 21.0786C170.767 20.77 171.186 20.5962 171.622 20.5953C172.059 20.5962 172.477 20.77 172.785 21.0787C173.094 21.3875 173.267 21.8058 173.267 22.2422C174.842 20.7575 176.139 20.4331 177.435 20.3851H177.862C178.382 20.3989 178.876 20.6148 179.239 20.9869C179.602 21.359 179.806 21.858 179.807 22.3779C179.806 22.886 179.608 23.3739 179.253 23.7379C178.899 24.1019 178.416 24.3135 177.909 24.3277H177.9ZM194.349 32.6665C194.545 32.9727 194.657 33.3236 194.674 33.6861C194.651 34.2445 194.418 34.7738 194.023 35.169C193.628 35.5642 193.099 35.7964 192.54 35.8196C191.802 35.8196 191.15 35.2601 190.642 34.6113L185.733 28.9043V33.6381C185.733 34.2037 185.508 34.7462 185.108 35.1461C184.708 35.5461 184.166 35.7708 183.6 35.7708C183.034 35.7708 182.492 35.5461 182.092 35.1461C181.692 34.7462 181.467 34.2037 181.467 33.6381V16.267C181.466 15.8449 181.591 15.432 181.825 15.0808C182.059 14.7295 182.392 14.4558 182.782 14.2942C183.172 14.1326 183.601 14.0906 184.015 14.1734C184.429 14.2562 184.809 14.46 185.107 14.7592C185.507 15.1581 185.733 15.7026 185.733 16.2654V27.1068L190.642 21.6877C191.15 21.1299 191.756 20.5291 192.494 20.5291C193.035 20.5529 193.547 20.7817 193.926 21.169C194.304 21.5563 194.521 22.0731 194.533 22.6146C194.535 22.9584 194.438 23.2954 194.255 23.5862L190.365 27.8516L194.349 32.6731V32.6665ZM220.114 36.0497H218.954C215.711 36.0497 213.809 34.6113 213.809 29.5614V24.3277H212.7C212.177 24.3277 211.676 24.12 211.306 23.7503C210.937 23.3806 210.729 22.8792 210.729 22.3564C210.729 21.8336 210.937 21.3322 211.306 20.9625C211.676 20.5928 212.177 20.3851 212.7 20.3851H213.793V16.3548C213.783 15.9272 213.902 15.5066 214.135 15.1481C214.368 14.7895 214.704 14.5097 215.099 14.3454C215.36 14.2361 215.642 14.1799 215.925 14.1799C216.495 14.1894 217.038 14.4229 217.437 14.8299C217.836 15.2369 218.059 15.7847 218.058 16.3548V20.3735H219.816C220.331 20.3891 220.819 20.6067 221.175 20.9793C221.531 21.3519 221.726 21.8495 221.718 22.3647C221.7 22.8682 221.496 23.3471 221.144 23.7077C220.792 24.0683 220.319 24.2847 219.816 24.3145H218.058V28.7172C218.058 31.6353 218.194 32.2361 219.491 32.2361H220.097C220.601 32.2383 221.083 32.4397 221.439 32.7964C221.795 33.153 221.995 33.6359 221.996 34.1396C221.984 34.6395 221.781 35.1158 221.427 35.4694C221.074 35.823 220.597 36.0267 220.097 36.0381L220.114 36.0497ZM240.731 15.7539C241.037 15.9511 241.293 16.2172 241.478 16.5311C241.663 16.845 241.772 17.1978 241.797 17.5614C241.794 18.0934 241.584 18.6035 241.213 18.984C240.841 19.3644 240.336 19.5855 239.804 19.6006C239.552 19.5803 239.304 19.5331 239.062 19.4599C237.766 18.4854 236.192 17.9507 234.57 17.9338C230.629 17.9338 227.941 21.1283 227.941 25.1123C227.941 29.0963 230.675 32.2494 234.57 32.2494C236.44 32.2467 238.235 31.5152 239.574 30.2102C239.913 29.9719 240.317 29.8428 240.731 29.8394C240.981 29.8371 241.229 29.8845 241.461 29.9789C241.693 30.0732 241.904 30.2126 242.081 30.389C242.376 30.683 242.564 31.0667 242.617 31.4795C242.67 31.8924 242.584 32.3111 242.373 32.6698C242.21 32.9526 241.98 33.1904 241.702 33.3617C240.346 34.4875 238.74 35.2706 237.018 35.6451C235.295 36.0196 233.509 35.9744 231.808 35.5134C229.24 34.8192 227.011 33.2176 225.534 31.0056C224.057 28.7936 223.432 26.1212 223.775 23.4836C224.117 20.8455 225.403 18.4208 227.396 16.6589C229.389 14.897 231.953 13.9174 234.613 13.9018C236.796 13.8602 238.937 14.5083 240.731 15.7539ZM164.51 20.5274C164.293 20.5274 164.078 20.5707 163.878 20.655C163.678 20.7393 163.497 20.8627 163.346 21.018C163.194 21.1734 163.075 21.3575 162.996 21.5595C162.917 21.7615 162.879 21.9773 162.885 22.1942L162.795 22.7073C162.184 21.9833 161.425 21.398 160.57 20.9904C159.715 20.5828 158.782 20.3624 157.835 20.3437C153.667 20.3437 150.656 23.8626 150.656 28.123C150.656 32.3851 153.619 36.0497 157.605 36.0497C159.273 36.0497 161.913 35.3065 162.749 33.6861L162.843 34.1942C162.839 34.4124 162.879 34.6291 162.962 34.831C163.045 35.0328 163.168 35.2156 163.325 35.3679C163.481 35.5203 163.667 35.639 163.87 35.7166C164.074 35.7943 164.292 35.8294 164.51 35.8196C164.729 35.82 164.946 35.7772 165.149 35.6935C165.352 35.6098 165.536 35.4869 165.691 35.3319C165.846 35.1769 165.969 34.9928 166.052 34.7902C166.136 34.5875 166.179 34.3704 166.178 34.1512V22.2074C166.172 21.7659 165.995 21.3439 165.683 21.0306C165.372 20.7172 164.952 20.5368 164.51 20.5274ZM158.3 32.2494C156.401 32.2494 154.917 30.4452 154.917 28.2174C154.917 25.9912 156.444 24.3774 158.3 24.3774C160.154 24.3774 161.824 25.9051 161.824 28.2174C161.824 30.5297 160.2 32.2494 158.3 32.2494ZM209.92 27.8466C209.825 23.0731 206.72 20.3851 202.599 20.3851C197.481 20.3851 195.321 24.0927 195.321 28.3581C195.321 33.7804 198.893 36.096 203.201 36.096C204.822 36.096 206.536 35.8626 207.832 34.8894C208.102 34.7317 208.327 34.5095 208.489 34.2428C208.651 33.9761 208.744 33.6732 208.759 33.3617C208.763 32.903 208.585 32.4615 208.266 32.1321C207.947 31.8027 207.511 31.6118 207.053 31.6005C206.661 31.6039 206.277 31.7164 205.944 31.925C205.065 32.3003 204.117 32.4891 203.162 32.4794C202.096 32.4794 199.639 32.0524 199.639 29.515H208.246C208.687 29.5066 209.107 29.3283 209.418 29.0173C209.73 28.7064 209.91 28.2869 209.92 27.8466ZM199.629 26.7708C199.629 24.9666 201.533 24.3658 202.688 24.3658C203.845 24.3658 205.747 24.9666 205.793 26.7708H199.629ZM257.729 20.5274C257.512 20.5276 257.298 20.5709 257.098 20.6551C256.898 20.7392 256.717 20.8624 256.566 21.0174C256.414 21.1727 256.295 21.3569 256.217 21.5591C256.138 21.7613 256.101 21.9773 256.107 22.1942L256.015 22.7073C255.404 21.9832 254.646 21.3978 253.791 20.9902C252.936 20.5826 252.004 20.3622 251.057 20.3437C246.886 20.3437 243.874 23.8626 243.874 28.123C243.874 32.3851 246.86 36.0497 250.822 36.0497C252.491 36.0497 255.136 35.3065 255.967 33.6861L256.061 34.1942C256.058 34.4121 256.099 34.6282 256.182 34.8296C256.266 35.031 256.389 35.2135 256.544 35.3661C256.7 35.5186 256.886 35.6376 257.09 35.7156C257.294 35.7936 257.511 35.829 257.729 35.8196C258.059 35.8194 258.382 35.7216 258.656 35.5384C258.931 35.3552 259.145 35.0948 259.272 34.7901C259.355 34.5881 259.398 34.3713 259.398 34.1512V22.2074C259.391 21.7661 259.213 21.3447 258.902 21.0315C258.591 20.7183 258.171 20.5377 257.729 20.5274ZM251.517 32.2494C249.667 32.2494 248.136 30.4452 248.136 28.2174C248.136 25.9912 249.621 24.3774 251.517 24.3774C253.416 24.3774 255.041 25.9051 255.041 28.2174C255.041 30.5297 253.429 32.2494 251.527 32.2494H251.517ZM271.545 20.3735C270.616 20.3566 269.694 20.5286 268.834 20.8791C267.974 21.2297 267.194 21.7514 266.541 22.4127C266.541 21.3501 265.846 20.5606 264.921 20.5606C264.702 20.5599 264.484 20.6026 264.281 20.6862C264.078 20.7697 263.894 20.8925 263.739 21.0476C263.583 21.2026 263.46 21.3867 263.376 21.5895C263.292 21.7922 263.249 22.0095 263.249 22.229V40.2091C263.251 40.7741 263.476 41.3156 263.875 41.7151C264.275 42.1146 264.816 42.3397 265.381 42.341C265.947 42.3405 266.489 42.1158 266.889 41.7162C267.289 41.3165 267.514 40.7745 267.515 40.2091V34.8C268.67 35.6772 270.525 36.0497 271.78 36.0794C275.812 36.0794 278.733 32.4199 278.733 28.1545C278.733 23.8874 275.671 20.3735 271.545 20.3735ZM271.034 32.2361C269.135 32.2361 267.515 30.5313 267.515 28.2058C267.515 25.8803 269.135 24.3658 271.034 24.3658C272.932 24.3658 274.417 25.8935 274.417 28.2058C274.417 30.4436 272.937 32.2494 271.034 32.2494V32.2361Z" fill="#181818" fill-opacity="0.8"/>
</svg>
