<svg width="173" height="48" viewBox="0 0 173 48" fill="none" xmlns="http://www.w3.org/2000/svg">
<ellipse cx="23.9902" cy="24.0001" rx="24" ry="24" fill="#FBE4EE"/>
<path d="M37.9521 14.5572C37.6843 15.4942 37.4166 16.2974 37.3436 16.3583C37.2584 16.4191 36.6378 16.6625 35.9563 16.8816C35.2626 17.1006 34.7515 17.3196 34.8002 17.3683C34.8489 17.4048 35.4087 17.6239 36.0415 17.8429C36.6743 18.062 37.2584 18.3054 37.3436 18.3784C37.4166 18.4514 37.6965 19.1937 37.9642 20.0334C38.232 20.8731 38.4875 21.4694 38.5119 21.372C38.5484 21.2747 38.7796 20.5445 39.0351 19.7657L39.4854 18.3419L40.6658 17.9159C41.3108 17.6726 41.9071 17.4778 41.9801 17.4778C42.406 17.4778 41.9801 17.2466 40.7997 16.8329L39.4732 16.3704L39.023 14.7641C38.7796 13.8757 38.5362 13.0969 38.4875 13.0117C38.451 12.9387 38.2076 13.6323 37.9521 14.5572Z" fill="#EF3581"/>
<path d="M13.5155 16.273C13.4182 16.4677 13.4182 16.6137 13.5155 16.8206L13.6494 17.1127H16.8134H19.9774L20.1113 16.8206C20.2087 16.6137 20.2087 16.4677 20.1113 16.273C19.9774 16.0174 19.9044 16.0174 16.8134 16.0174C13.7224 16.0174 13.6494 16.0174 13.5155 16.273Z" fill="#EF3581"/>
<path d="M26.1355 16.2852C25.9773 16.5164 25.9651 16.5894 26.1111 16.8085C26.2693 17.0397 26.4032 17.0518 29.3482 17.0884C32.5852 17.1127 32.7556 17.0884 32.7556 16.5772C32.7556 16.0418 32.6217 16.0175 29.3968 16.0175C26.3667 16.0175 26.318 16.0175 26.1355 16.2852Z" fill="#EF3581"/>
<path d="M15.8892 19.2302C15.1225 19.571 15.1104 19.644 15.1104 23.0879V26.2154L15.4268 26.5927C15.9987 27.2863 17.094 27.2012 17.5564 26.4345C17.7633 26.0937 17.7876 25.7773 17.7876 23.1001C17.7876 19.79 17.7389 19.5466 16.9966 19.2302C16.4855 19.0234 16.376 19.0234 15.8892 19.2302Z" fill="#EF3581"/>
<path d="M29.0197 19.6683C28.4112 20.0334 28.3504 20.4471 28.399 23.7085L28.4356 26.5926L28.7885 26.9577C28.971 27.1524 29.2631 27.3471 29.4334 27.3958C29.8594 27.4932 30.5165 27.2498 30.8086 26.8847C31.0398 26.5926 31.052 26.3979 31.052 23.4895C31.052 21.5302 31.0033 20.3011 30.9181 20.1185C30.626 19.4614 29.7012 19.2424 29.0197 19.6683Z" fill="#EF3581"/>
<path d="M8.843 22.8567C8.45358 22.9906 7.72342 23.4895 7.46786 23.8059C7.38268 23.9033 7.1758 24.2562 7.0176 24.5969C6.39696 25.8625 6.7377 27.4081 7.84511 28.3816C8.69696 29.1361 9.84088 29.3551 11.0213 29.0144C11.7515 28.7954 12.8224 27.6879 13.0292 26.9456C13.2361 26.2276 13.1509 25.108 12.871 24.5239C12.6033 23.952 11.9218 23.2705 11.3499 23.0028C10.8266 22.7472 9.37845 22.662 8.843 22.8567Z" fill="#EF3581"/>
<path d="M34.9455 22.954C34.264 23.2704 33.6677 23.8302 33.327 24.4751C32.9498 25.1688 32.9498 26.7021 33.327 27.4079C33.9598 28.5884 35.1402 29.2333 36.5032 29.136C37.4402 29.063 37.927 28.8561 38.5477 28.2233C39.1926 27.5783 39.4482 26.9455 39.4482 25.9355C39.4482 24.9254 39.1926 24.2926 38.5477 23.6476C37.8905 22.9905 37.4402 22.7958 36.4058 22.7471C35.6635 22.7106 35.3836 22.7471 34.9455 22.954Z" fill="#EF3581"/>
<path d="M16.4851 31.7403C16.12 31.9229 15.9253 32.4461 16.0713 32.8356C16.2174 33.2371 16.692 33.5657 17.9576 34.1498C19.5031 34.88 20.8296 35.1599 22.7158 35.1599C24.9915 35.1721 26.8656 34.7461 29.0074 33.7604C30.2121 33.2006 30.4798 32.8599 30.1756 32.2393C29.9201 31.7038 29.4698 31.6186 28.7031 31.9472C27.401 32.5313 25.746 33.0668 24.6751 33.2493C22.1438 33.6996 19.4057 33.1641 17.483 31.8498C17.0814 31.5699 16.8867 31.5456 16.4851 31.7403Z" fill="#EF3581"/>
<path d="M82.4273 13.2475C80.7966 13.637 80.2611 15.4745 81.4537 16.5333C82.4638 17.4216 84.0215 17.2269 84.6786 16.1438C85.0194 15.5841 85.0072 14.6349 84.6421 14.1116C84.1797 13.4179 83.2548 13.0528 82.4273 13.2475Z" fill="#181818" fill-opacity="0.8"/>
<path d="M125.508 13.9411C122.161 14.4157 119.898 16.1924 119.35 18.748C119.119 19.8067 119.277 21.1818 119.715 22.0824C120.555 23.7982 122.1 24.6988 125.8 25.6723C127.102 26.0131 128.502 26.4512 128.903 26.6337C130.802 27.5099 131.203 29.1771 129.828 30.5522C129 31.3797 127.978 31.684 126.25 31.6109C125.094 31.5744 124.912 31.5379 124.157 31.1485C123.208 30.6617 122.709 30.0533 122.466 29.1162L122.32 28.5321L120.531 28.4956L118.754 28.4591V28.9945C118.754 30.248 119.545 31.9395 120.567 32.8766C121.407 33.6432 122.879 34.3612 124.133 34.6168C125.362 34.8602 127.844 34.8602 129.074 34.6168C132.298 33.9596 134.331 31.7326 134.331 28.8363C134.331 26.7067 133.26 25.0517 131.191 23.9929C130.12 23.4453 129.268 23.1533 127.175 22.63C124.632 21.9972 123.829 21.5956 123.293 20.7072C122.721 19.7824 123.062 18.4559 124.048 17.7501C125.07 17.0199 127.09 16.8374 128.538 17.3485C129.353 17.6284 130.132 18.4194 130.351 19.1861L130.522 19.7702L132.323 19.8067L134.112 19.8432L134.026 19.1982C133.686 16.74 131.885 14.8659 129.159 14.1723C128.429 13.9776 126.189 13.8437 125.508 13.9411Z" fill="#181818" fill-opacity="0.8"/>
<path d="M63.9902 24.3946V34.556H65.8156H67.641V31.0878V27.6195H70.2331C73.2024 27.6195 74.0543 27.4856 75.3807 26.8285C76.5368 26.2565 77.4982 25.2952 78.0337 24.1634C78.5569 23.0682 78.7151 22.3015 78.7151 20.8899C78.703 18.1639 77.6077 16.1803 75.4781 15.0607C74.0056 14.2819 73.6162 14.2332 68.5294 14.2332H63.9902V24.3946ZM72.5088 17.4703C73.458 17.7502 74.103 18.2369 74.5167 19.0036C74.8575 19.5999 74.8818 19.7338 74.8818 20.9264C74.8818 22.119 74.8575 22.2528 74.5167 22.8613C73.75 24.2608 72.8739 24.5772 69.8072 24.5772H67.641V20.9264V17.2756H69.7463C71.3283 17.2756 72.022 17.3242 72.5088 17.4703Z" fill="#181818" fill-opacity="0.8"/>
<path d="M104.029 24.3946V34.556H105.855H107.68V31.964V29.3719L108.337 28.7269L108.994 28.0698L109.554 28.8486C109.858 29.2745 110.893 30.7227 111.854 32.0613L113.594 34.4952L115.748 34.5317C116.929 34.5439 117.902 34.5317 117.902 34.4952C117.902 34.4708 116.527 32.5481 114.86 30.2237C113.181 27.9116 111.793 25.9645 111.781 25.9158C111.769 25.8671 113.047 24.3825 114.617 22.6301C116.186 20.8777 117.501 19.393 117.513 19.3322C117.537 19.2713 116.625 19.2227 115.481 19.2227H113.412L110.662 22.2893C109.14 23.9809 107.85 25.3803 107.79 25.4047C107.729 25.429 107.68 23.2507 107.68 19.8433V14.2332H105.855H104.029V24.3946Z" fill="#181818" fill-opacity="0.8"/>
<path d="M152.097 24.3946V34.556H153.922H155.747V24.3946V14.2332H153.922H152.097V24.3946Z" fill="#181818" fill-opacity="0.8"/>
<path d="M94.2323 19.2592C93.0275 19.6608 92.1878 20.2814 91.6767 21.1576C91.482 21.4983 91.2751 21.7782 91.2264 21.7782C91.1656 21.7782 91.1291 21.2063 91.1291 20.5004V19.2227H89.4254H87.7217V26.8893V34.556H89.4741H91.2386L91.2751 29.5909C91.3116 24.6624 91.3116 24.638 91.6037 23.993C92.1391 22.8126 93.1857 22.1433 94.4878 22.1433C95.7291 22.1433 96.5931 22.6423 97.1286 23.6523C97.3963 24.1391 97.3963 24.2729 97.4328 29.3476L97.4693 34.556H99.2826H101.108V29.2867C101.108 23.6036 101.047 22.9465 100.439 21.7174C99.9519 20.7195 99.3677 20.1232 98.3577 19.6243C97.4815 19.1983 97.372 19.174 96.082 19.1375C95.1815 19.1131 94.5487 19.1618 94.2323 19.2592Z" fill="#181818" fill-opacity="0.8"/>
<path d="M140.938 19.2834C139.234 19.6607 137.652 20.8046 136.983 22.1554C136.411 23.3115 136.35 23.2628 138.224 23.5183C139.806 23.7496 139.867 23.7496 139.988 23.5305C140.049 23.4088 140.317 23.0802 140.573 22.8003C141.668 21.5712 144.223 21.5226 145.136 22.6908C145.282 22.8734 145.452 23.2993 145.538 23.6644C145.659 24.2363 145.659 24.358 145.477 24.6379C145.16 25.1247 144.686 25.2585 142.422 25.5384C140.11 25.8183 139.185 26.0374 138.309 26.4755C136.91 27.1935 136.167 28.3131 136.058 29.8707C135.912 32.2194 137.019 33.8744 139.234 34.5803C140.366 34.9453 142.507 34.848 143.481 34.4099C144.211 34.0692 145.343 33.1078 145.465 32.7184C145.635 32.1951 145.769 32.548 145.769 33.5215V34.5559H147.473H149.188L149.152 28.6781L149.115 22.8125L148.726 21.9972C148.081 20.622 146.986 19.7945 145.209 19.3443C144.089 19.0522 142.106 19.0278 140.938 19.2834ZM145.647 28.3252C145.647 29.7125 145.379 30.4792 144.674 31.1607C143.992 31.83 143.116 32.1707 142.057 32.1707C141.096 32.1586 140.548 31.9639 140.049 31.4527C139.696 31.0877 139.635 30.9295 139.587 30.3332C139.55 29.749 139.587 29.5543 139.83 29.2136C140.232 28.6051 141.059 28.2279 142.447 28.021C143.104 27.9236 144.029 27.7411 144.491 27.6194C144.966 27.5099 145.416 27.4004 145.501 27.3882C145.611 27.376 145.647 27.6437 145.647 28.3252Z" fill="#181818" fill-opacity="0.8"/>
<path d="M163.367 19.2956C160.702 19.9406 158.754 22.1432 158.243 25.1125C157.708 28.2279 158.438 31.0755 160.215 32.8401C161.614 34.2152 163.172 34.7993 165.496 34.7993C168.721 34.7993 171.021 33.4607 171.934 31.0512C172.104 30.5887 172.129 30.4184 172.019 30.4184C171.946 30.4184 171.191 30.3332 170.352 30.2358C168.94 30.0654 168.818 30.0654 168.709 30.2602C168.648 30.3697 168.38 30.6982 168.125 30.9781C167.443 31.7326 166.579 32.0369 165.302 31.976C163.294 31.8665 162.052 30.7226 161.736 28.6781C161.675 28.3009 161.651 27.9601 161.687 27.9236C161.724 27.8871 164.133 27.8628 167.042 27.8628H172.335L172.262 26.4268C172.189 24.9422 171.885 23.4818 171.471 22.6665C170.814 21.3887 169.585 20.1961 168.405 19.685C167.054 19.1009 164.863 18.9305 163.367 19.2956ZM166.36 22.0215C167.565 22.3623 168.575 23.5427 168.733 24.8083L168.806 25.4289H165.253H161.712V25.149C161.712 24.0903 162.916 22.4961 164.024 22.1067C164.657 21.8876 165.715 21.8511 166.36 22.0215Z" fill="#181818" fill-opacity="0.8"/>
<path d="M81.1504 26.8893V34.556H82.9149H84.6795V26.8893V19.2227H82.9149H81.1504V26.8893Z" fill="#181818" fill-opacity="0.8"/>
</svg>
