<svg width="165" height="48" viewBox="0 0 165 48" fill="none" xmlns="http://www.w3.org/2000/svg">
<path fill-rule="evenodd" clip-rule="evenodd" d="M16.2663 2.70491C13.4097 4.19571 11.0619 5.4544 11.0708 5.50797C11.0708 5.64187 17.9356 9.11444 18.1766 9.10551C18.2838 9.10551 19.0872 8.73058 19.962 8.28423L21.551 7.47189L23.2828 8.36458L25.0146 9.25727L27.8534 7.98072C32.1205 6.06143 32.5668 5.84719 32.4954 5.7847C32.4061 5.6865 30.8707 4.86523 26.7108 2.67813C24.7022 1.62476 22.7561 0.580309 22.3812 0.37499C22.0063 0.160744 21.6492 6.10352e-05 21.5867 6.10352e-05C21.5242 6.10352e-05 19.1229 1.21412 16.2663 2.70491ZM3.72397 9.2037L0.742387 10.7391V17.4879C0.742387 21.2015 0.778095 24.2366 0.831656 24.2366C0.876291 24.2366 2.3403 23.6028 4.08998 22.8262L7.25903 21.4157V14.301L8.80338 15.1401C9.99959 15.7918 11.1869 16.4345 12.3831 17.0862L14.4184 18.1842L15.32 17.7735C15.8913 17.5147 16.4537 17.2558 17.0161 16.9969C17.4536 16.7916 18.5248 16.3095 19.3996 15.9257C20.2745 15.5418 21.0779 15.149 21.1939 15.0598C21.3457 14.9437 19.4889 13.9171 14.3291 11.2658C10.437 9.2662 7.12512 7.6415 6.97337 7.65042C6.82161 7.65935 5.3576 8.35565 3.72397 9.2037ZM33.0221 9.63219C30.9957 10.5517 29.3353 11.3372 29.3353 11.3819C29.3353 11.4265 30.4422 12.0871 31.7902 12.8459C33.1471 13.6047 34.2451 14.2653 34.2451 14.3188C34.2451 14.3724 33.0489 14.9526 31.5848 15.6043C30.1208 16.2649 26.4251 17.9342 23.3632 19.3179L13.124 23.951C10.5441 25.1115 8.22313 26.1648 7.96425 26.2809C2.70631 28.6644 1.25122 29.325 1.05483 29.441C0.858437 29.5571 0.813802 30.2177 0.778094 33.5474L0.733459 37.5199L3.39368 38.8768L6.0539 40.2337L9.74964 38.5643C11.776 37.6448 13.4454 36.8503 13.4454 36.7879C13.4454 36.7254 13.0704 36.4843 12.6152 36.2433C12.1599 36.0023 11.2136 35.4667 10.5084 35.056C9.81212 34.6454 9.11583 34.2705 8.96407 34.2169C8.81231 34.1633 8.68733 34.083 8.68733 34.0205C8.68733 33.967 10.312 33.1903 12.3027 32.3065C16.1592 30.5837 19.105 29.2535 25.4342 26.388C28.264 25.1115 31.0939 23.826 33.9326 22.5494C36.4232 21.4246 39.3156 20.1124 40.36 19.6303L42.2614 18.7555L42.3061 14.7384L42.3507 10.7213L39.6548 9.34654C38.1729 8.58775 36.8964 7.96287 36.8339 7.96287C36.7625 7.96287 35.0485 8.72165 33.0221 9.63219ZM41.5473 24.1295C41.1456 24.3259 40.36 24.6919 39.7976 24.9418C39.2352 25.1918 38.164 25.6739 37.423 26.0131L36.0751 26.629L36.0483 30.1552C36.0304 32.0923 35.959 33.6724 35.8876 33.6634C35.7269 33.6367 33.2006 32.3423 30.6565 30.9764C28.8175 29.9945 28.7015 29.9498 28.273 30.1641C28.023 30.2891 26.5322 30.9586 24.9611 31.646C23.3899 32.3423 22.0509 32.9493 21.9884 33.0118C21.9259 33.0653 25.0861 34.7793 29.0228 36.8236L36.1644 40.5372L39.2174 38.9571C40.8956 38.0912 42.3239 37.2967 42.3864 37.1985C42.5382 36.9753 42.5203 23.7456 42.3775 23.7635C42.315 23.7724 41.9401 23.9331 41.5473 24.1295ZM24.6397 39.6534C24.113 39.8766 23.5774 40.1087 23.0507 40.3408C21.4528 41.0281 21.7653 41.0549 19.8638 40.1087C18.5962 39.4749 18.0517 39.2874 17.8106 39.3767C17.6321 39.4481 16.1056 40.1355 14.4095 40.9032C12.7223 41.6709 11.2761 42.3047 11.2047 42.3047C10.4906 42.3047 11.6778 43.0099 16.2306 45.3041L21.5689 48.0001L23.8184 46.8931C25.0504 46.2861 27.5499 45.0631 29.3531 44.1793C31.1653 43.2956 32.6204 42.5546 32.5936 42.5189C32.5668 42.4922 31.0492 41.7155 29.2192 40.7871L25.8984 39.1089L24.6397 39.6534Z" fill="#05A3C9"/>
<path d="M122.053 18.7234C118.893 19.1162 116.563 20.9105 115.706 23.5886C115.117 25.4096 115.189 27.1415 115.929 28.9001C116.804 30.98 118.688 32.4619 121.187 33.0243C121.91 33.1939 123.776 33.2028 124.526 33.06C127.427 32.4887 129.454 30.6855 130.293 27.9538C130.489 27.3022 130.516 27.1058 130.516 25.9453C130.516 24.7848 130.489 24.5884 130.293 23.9367C129.463 21.2408 127.508 19.4643 124.714 18.8751C124.133 18.7591 122.544 18.6698 122.053 18.7234ZM123.821 22.2674C124.865 22.5441 125.856 23.2226 126.311 24.0171C127.017 25.2133 126.99 26.7933 126.258 27.936C124.946 29.9981 121.946 30.3373 120.143 28.6233C118.643 27.195 118.59 24.9276 120.018 23.3832C120.973 22.3656 122.491 21.9282 123.821 22.2674Z" fill="#181818" fill-opacity="0.8"/>
<path d="M137.496 18.7234C134.336 19.1162 132.006 20.9105 131.149 23.5886C130.559 25.4096 130.631 27.1415 131.372 28.9001C132.247 30.98 134.13 32.4619 136.63 33.0243C137.353 33.1939 139.219 33.2028 139.968 33.06C142.87 32.4887 144.896 30.6855 145.735 27.9538C145.932 27.3022 145.958 27.1058 145.958 25.9453C145.958 24.7848 145.932 24.5884 145.735 23.9367C144.905 21.2408 142.95 19.4643 140.156 18.8751C139.576 18.7591 137.987 18.6698 137.496 18.7234ZM139.272 22.2674C140.326 22.5441 141.307 23.2226 141.763 24.0171C142.468 25.2133 142.441 26.7933 141.709 27.936C140.397 29.9981 137.397 30.3373 135.594 28.6233C134.095 27.195 134.041 24.9276 135.469 23.3832C136.416 22.3656 137.933 21.9282 139.272 22.2674Z" fill="#181818" fill-opacity="0.8"/>
<path d="M158.296 18.768C156.457 19.0358 155.074 20.2141 154.627 21.9102C154.199 23.5082 154.502 25.1418 155.359 25.9363C155.868 26.4094 156.475 26.6861 158.144 27.2218C159.76 27.7395 160.126 27.9627 160.296 28.5072C160.483 29.1321 160.019 29.882 159.314 30.0784C158.93 30.1855 158.207 30.1855 157.725 30.0694C157.198 29.9445 156.252 29.4803 155.85 29.1321C155.672 28.9625 155.466 28.8375 155.431 28.8375C155.395 28.8375 155.19 29.141 154.993 29.516C154.716 30.0427 154.627 30.1587 154.609 30.0159L154.583 29.8373H152.431H150.289V24.4276V19.0179H148.512H146.736V25.9541V32.8903H150.655H154.574V32.5065C154.574 32.3012 154.591 32.1316 154.609 32.1316C154.627 32.1316 154.949 32.2833 155.323 32.4529C156.484 32.9975 157.225 33.1582 158.662 33.1582C160.064 33.1582 160.724 33.0332 161.59 32.6136C162.278 32.2833 163.206 31.3638 163.518 30.7211C164.134 29.4356 164.224 27.7038 163.706 26.6058C163.617 26.4005 163.313 25.9988 163.027 25.722C162.42 25.115 161.769 24.7847 160.099 24.2491C159.439 24.0438 158.778 23.7938 158.626 23.7046C158.091 23.3743 157.984 22.6512 158.403 22.1959C159.135 21.4103 160.439 21.4818 161.795 22.3834L162.063 22.553L162.786 21.1693C163.17 20.4195 163.492 19.7856 163.474 19.7767C163.393 19.6964 162.385 19.2947 161.813 19.1161C160.608 18.7412 159.341 18.6073 158.296 18.768Z" fill="#181818" fill-opacity="0.8"/>
<path d="M58.4926 23.9813V33.1225H61.7242C63.5006 33.1225 65.3574 33.0689 65.8395 33.0153C69.8298 32.5244 72.7757 30.1052 73.7219 26.5523C74.0344 25.3739 74.1058 23.3029 73.8826 22.0709C73.4274 19.6785 72.1865 17.7503 70.2762 16.447C69.4192 15.8578 68.6515 15.5364 67.4196 15.1972C66.4554 14.9383 66.3037 14.9383 62.4651 14.8848L58.5016 14.8401V23.9813H58.4926ZM65.5449 18.5716C68.0534 19.1072 69.7227 21.205 69.7227 23.8295C69.7138 25.5703 69.1782 27.07 68.1783 28.0609C67.1875 29.0607 65.7145 29.5428 63.6613 29.5517H62.6883V23.9902V18.4288H63.7684C64.3576 18.4288 65.1521 18.5002 65.5449 18.5716Z" fill="#181818" fill-opacity="0.8"/>
<path d="M75.3921 23.9902V33.1224L83.0871 33.1135H90.7731L92.7549 30.3283C93.8529 28.8107 94.7724 27.5609 94.7992 27.5609C94.8438 27.5609 95.7633 28.8107 96.8523 30.3461L98.843 33.1313H101.343C102.708 33.1313 103.833 33.0956 103.833 33.0688C103.833 33.0331 102.36 30.9799 100.584 28.5072L97.3344 24.008L100.441 19.6695C102.155 17.295 103.646 15.2507 103.744 15.1347C103.94 14.9383 103.94 14.9651 103.94 16.7951V18.6519H105.833H107.725V25.8916V33.1313H109.984H112.242V25.8916V18.6519L114.447 18.634L116.643 18.5983L115.465 16.7415L114.287 14.8847L106.574 14.8758H98.852L96.8702 17.661C95.7722 19.1786 94.8527 20.4283 94.8259 20.4462C94.7902 20.4462 93.8708 19.1964 92.7817 17.661L90.791 14.8758H83.1049H75.4099V23.9902H75.3921ZM88.9699 19.4196C90.7374 21.8656 92.1836 23.9188 92.1836 23.9812C92.1836 24.0437 90.7374 26.1148 88.961 28.5786L85.7294 33.0599L85.6937 31.3102L85.6759 29.5606H82.6318H79.5877V27.5074V25.4631H82.0515H84.5154V23.7313V21.9995H82.0515H79.5877V20.2141V18.4287H82.6318H85.6759V16.6969C85.6759 15.7417 85.6937 14.9651 85.7205 14.9651C85.7473 14.9651 87.2024 16.9736 88.9699 19.4196Z" fill="#181818" fill-opacity="0.8"/>
</svg>
