<svg width="183" height="28" viewBox="0 0 183 28" fill="none" xmlns="http://www.w3.org/2000/svg">
<path fill-rule="evenodd" clip-rule="evenodd" d="M85.4656 1.14919C81.2075 2.18145 79.272 5.53629 80.4333 9.53629C80.9494 11.2137 82.4978 13.0202 84.8204 14.3105C88.8204 16.6331 90.1107 17.5363 90.7559 18.9557C91.272 20.1169 91.401 20.504 91.143 21.6653C90.4978 24.246 88.6914 25.5363 86.1107 25.5363C83.5301 25.5363 81.7236 24.1169 81.2075 21.6653C81.0785 20.6331 80.8204 20.375 80.4333 20.375C79.9172 20.375 79.7881 20.6331 79.7881 23.0847V25.7944L81.4656 26.3105C84.1752 27.2137 87.9172 27.0847 90.1107 26.0524C94.4978 23.9879 96.1753 19.9879 94.2398 16.246C93.4656 14.8266 91.6591 13.2782 88.5623 11.3427C85.2075 9.27823 83.7881 7.85887 83.5301 6.43952C83.143 4.11694 85.2075 2.31049 88.0462 2.31049C90.2398 2.31049 91.143 2.82661 91.9172 4.50403C92.4333 5.53629 92.6914 5.92339 93.3366 5.92339C93.9817 5.92339 94.1107 5.79436 93.8527 5.14919C93.7236 4.7621 93.5946 3.72984 93.5946 2.95565C93.5946 1.92339 93.4656 1.40726 93.0785 1.27823C92.1752 0.891128 86.6269 0.762098 85.4656 1.14919ZM0.304169 2.05242C0.304169 2.56855 0.562236 2.69758 1.07837 2.69758C2.62676 2.69758 2.75578 3.08468 2.88482 12.504C3.01385 20.6331 3.14288 21.2782 3.78805 22.5686C4.69127 24.246 5.9816 25.4073 7.91708 26.3105C9.20741 26.9557 10.1106 27.0847 12.8203 27.0847C15.659 27.0847 16.3042 26.9557 17.8526 26.1815C18.8848 25.6653 20.1752 24.7621 20.6913 24.1169C22.4977 21.9234 22.7558 20.7621 22.8848 11.7298C23.1429 2.95565 23.1429 2.82661 24.5623 2.82661C24.9494 2.82661 25.0784 2.56855 25.0784 2.18145C25.0784 1.53629 24.8203 1.53629 21.2074 1.53629C17.5945 1.53629 17.3364 1.53629 17.3364 2.18145C17.3364 2.69758 17.5945 2.82662 18.3687 2.95565C20.0461 3.08468 20.1752 3.72984 20.1752 11.7298C20.1752 19.8589 19.9171 21.4073 18.1106 23.0847C16.5623 24.6331 15.2719 25.1492 13.0784 25.1492C9.9816 25.1492 7.65902 23.7298 7.01386 21.1492C6.75579 20.246 6.62676 17.1492 6.75579 11.6008L6.88483 3.34275L8.04611 2.95565C8.69128 2.69758 9.20741 2.31049 9.33644 2.05242C9.46547 1.53629 8.94934 1.53629 4.94934 1.53629C0.562236 1.40726 0.304169 1.40726 0.304169 2.05242ZM30.3687 2.05242C30.3687 2.56855 30.6268 2.69758 31.272 2.69758C32.9494 2.69758 33.8526 3.34274 34.2397 4.7621C34.4978 5.53629 34.4978 9.27823 34.4978 14.5686C34.3687 24.1169 34.2397 24.7621 32.3042 25.1492C31.659 25.2782 31.401 25.5363 31.401 25.9234C31.401 26.4395 31.659 26.5686 35.9171 26.5686C40.0462 26.5686 40.4333 26.5686 40.4333 26.0524C40.4333 25.6653 40.0462 25.4073 39.0139 25.1492C37.7236 24.7621 37.5945 24.6331 37.2074 23.6008C36.6913 22.0524 36.6913 7.47178 37.0784 7.60081C37.2074 7.60081 38.4978 8.89113 39.9171 10.5686C41.3365 12.246 45.0784 16.504 48.4333 19.9879C53.5946 25.5363 54.4978 26.5686 55.272 26.5686H56.1752L56.3042 15.2137C56.4333 7.08468 56.5623 3.72984 56.8204 3.47178C57.0784 3.21371 57.7236 2.95565 58.2397 2.82661C58.8849 2.69758 59.272 2.43952 59.272 2.18145C59.272 1.79436 58.4978 1.66533 54.8849 1.66533C50.6268 1.53629 50.4978 1.53629 50.4978 2.18145C50.4978 2.69758 50.7559 2.82661 51.272 2.82661C51.6591 2.82661 52.4333 3.21371 52.9494 3.60081L53.8526 4.375L53.9817 12.1169C53.9817 16.504 53.9817 19.8589 53.8526 19.8589C53.7236 19.8589 52.6913 18.8266 51.6591 17.6653C50.6268 16.504 47.6591 13.1492 45.0784 10.3105C42.4978 7.47178 39.6591 4.375 38.7558 3.34275L37.2074 1.53629H33.8526C30.4978 1.40726 30.3687 1.40726 30.3687 2.05242ZM64.1752 2.05242C64.1752 2.56855 64.4333 2.69758 65.0784 2.69758C65.5946 2.69758 66.2397 2.95565 66.6268 3.21371C67.272 3.60081 67.272 4.24597 67.401 13.1492C67.5301 24.246 67.401 24.8911 65.4655 25.1492C64.5623 25.2782 64.1752 25.5363 64.1752 25.9234C64.1752 26.4395 64.5623 26.5686 69.0784 26.5686C73.7236 26.5686 73.9817 26.5686 73.9817 25.9234C73.9817 25.4073 73.7236 25.2782 73.2075 25.2782C72.8204 25.2782 72.1752 25.0202 71.7881 24.7621C71.143 24.375 71.143 23.7298 71.0139 14.1815C70.8849 4.375 70.8849 3.98791 71.5301 3.34275C71.9172 2.95565 72.5623 2.69758 72.9494 2.69758C73.5946 2.69758 73.7236 2.56855 73.7236 2.05242C73.7236 1.40726 73.4656 1.40726 68.8204 1.40726C64.4333 1.40726 64.1752 1.40726 64.1752 2.05242ZM98.1107 2.05242C98.2398 2.43952 98.4978 2.69758 99.014 2.69758C99.4011 2.69758 100.046 3.08468 100.433 3.47178C100.82 3.85887 103.014 9.1492 105.466 15.4718L109.724 26.6976L110.885 26.8266L112.046 26.9557L115.014 18.9557C116.691 14.5686 118.24 10.5686 118.369 10.1815C118.756 9.40726 118.756 9.53629 119.788 12.1169C120.304 13.6653 121.853 17.5363 123.143 20.8911L125.466 26.9557H126.498C127.014 26.9557 127.53 26.8266 127.659 26.5686C127.788 26.3105 129.208 22.5686 131.014 18.1815C132.691 13.7944 134.627 8.89113 135.272 7.34274C136.691 3.72984 136.949 3.34275 137.982 2.95565C138.498 2.82662 138.885 2.43952 138.885 2.18145C138.885 1.79436 138.24 1.66533 135.014 1.66533C131.401 1.66533 131.143 1.66533 131.143 2.31049C131.143 2.82662 131.401 2.95565 131.917 2.95565C133.208 2.95565 133.724 3.34274 133.724 4.11694C133.724 4.7621 127.53 21.4073 127.143 21.7944C126.885 22.0524 121.337 6.56855 121.208 5.02016C120.949 3.60081 121.595 2.95565 123.014 2.95565C123.53 2.95565 123.788 2.82662 123.788 2.31049C123.788 1.66533 123.53 1.66533 118.756 1.66533C113.982 1.66533 113.724 1.66533 113.724 2.31049C113.724 2.69758 113.982 2.95565 114.24 2.95565C115.272 2.95565 116.562 3.98791 116.949 4.89113C117.466 6.31049 117.079 7.72984 114.111 15.4718L111.659 22.0524L111.143 20.7621C110.885 20.1169 109.337 15.9879 107.788 11.7298C104.691 3.34274 104.691 2.95565 106.756 2.95565C107.53 2.95565 107.659 2.82662 107.659 2.31049C107.659 1.66533 107.401 1.66533 102.885 1.66533C97.9817 1.40726 97.8527 1.40726 98.1107 2.05242ZM163.401 2.31049C163.401 2.31049 163.401 2.69758 163.401 2.82661C163.401 2.95565 163.788 2.95565 163.788 2.95565C164.046 2.95565 164.175 3.08468 164.433 3.08468C165.466 3.34274 166.111 3.47178 166.369 4.11694C166.498 4.50403 166.627 6.05242 166.627 14.1815C166.627 22.6976 166.627 23.7299 166.369 24.246C166.111 24.8911 165.595 25.2782 164.304 25.6653C164.304 25.6653 163.788 25.7944 163.659 25.9234C163.53 26.0524 163.53 26.3105 163.53 26.3105C163.53 26.3105 163.53 26.5686 163.659 26.6976C163.788 26.8266 164.175 26.8266 164.175 26.8266H167.401H172.821C172.821 26.8266 173.079 26.8266 173.208 26.6976C173.337 26.5686 173.337 26.3105 173.337 26.3105C173.337 26.3105 173.337 26.0524 173.208 25.9234C173.079 25.7944 172.562 25.6653 172.562 25.6653C171.401 25.4073 170.756 25.0202 170.498 24.375C170.24 23.8589 170.24 22.6976 170.24 19.9879V16.1169C170.369 16.246 170.498 16.246 170.627 16.375C171.272 16.7621 172.046 17.4073 174.885 17.4073C178.369 17.5363 180.433 15.9879 181.724 14.1815C183.014 12.375 183.401 9.53629 182.498 6.43952C181.595 3.47177 178.885 1.53629 175.143 1.40726C173.208 1.27823 170.24 1.40726 168.691 1.53629H168.304C166.885 1.53629 165.079 1.79436 164.175 1.79436C163.917 1.79436 163.917 1.79435 163.788 1.92339C163.401 2.18145 163.401 2.31049 163.401 2.31049ZM177.724 14.1815C179.143 12.8911 179.143 10.8266 179.143 9.40726C179.014 7.34275 178.111 3.34275 173.466 3.34275C172.304 3.34275 170.111 3.47178 169.982 5.02016C169.853 5.27823 169.853 7.21372 169.853 10.0524V14.6976L170.369 14.9557C170.627 15.0847 171.014 15.2137 171.53 15.3427C173.466 15.8589 176.304 15.4718 177.724 14.1815ZM148.046 1.79436C148.433 1.66532 148.691 1.53629 148.691 1.53629C148.691 1.53629 149.208 1.27823 149.337 1.53629C149.337 1.66532 149.595 2.05242 150.111 3.34275C150.24 3.60081 150.369 3.85887 150.369 4.11694C151.014 5.92339 152.046 8.50404 152.562 9.92339C153.079 11.3427 154.111 13.9234 154.885 15.9879C155.659 17.9234 156.562 20.375 157.079 21.5363C157.466 22.6976 158.111 23.7298 158.24 23.9879C158.369 24.1169 158.369 24.246 158.498 24.375C158.885 24.8911 159.272 25.6653 160.175 25.7944C160.175 25.7944 160.82 25.9234 160.95 26.0524C161.079 26.1815 161.079 26.3105 161.079 26.3105V26.6976C161.079 26.6976 161.079 26.8266 160.95 26.8266C160.95 26.9557 160.691 26.8266 160.691 26.8266H155.272H151.401C151.401 26.8266 151.272 26.8266 151.143 26.8266C151.014 26.8266 151.014 26.5686 151.014 26.5686V26.3105C151.014 26.3105 151.014 26.0524 151.143 25.9234C151.272 25.7944 151.917 25.6653 151.917 25.6653C153.079 25.5363 153.595 24.6331 153.724 24.1169V23.9879C153.982 23.4718 153.853 23.0847 152.691 20.375C151.917 18.5686 151.659 18.0524 151.53 17.9234C151.401 17.9234 149.337 17.9234 147.143 17.9234H142.885L142.627 18.5686C141.853 20.6331 141.208 22.5686 141.208 23.0847C140.95 24.1169 141.337 25.4073 142.885 25.6653C142.885 25.6653 143.53 25.7944 143.659 25.9234C143.788 26.0524 143.917 26.3105 143.917 26.3105V26.5686C143.917 26.5686 143.917 26.6976 143.788 26.8266C143.659 26.9557 143.401 26.8266 143.401 26.8266H139.401H135.53C135.53 26.8266 135.401 26.8266 135.272 26.6976C135.143 26.5686 135.143 26.4395 135.143 26.4395V26.1815C135.143 26.1815 135.143 26.0524 135.401 25.7944C135.659 25.5363 136.175 25.5363 136.175 25.5363C137.208 25.4073 137.853 24.246 138.24 23.6008C138.24 23.6008 138.24 23.4718 138.369 23.4718C138.498 23.2137 139.143 21.7944 139.788 20.246C140.433 18.6976 141.079 16.8911 141.337 16.375C142.111 14.4395 142.885 12.6331 144.046 9.79436C144.691 8.24597 145.595 5.92339 146.111 4.63307L147.014 2.31049L148.046 1.79436ZM147.788 7.34274C148.046 7.85887 148.304 8.63307 148.433 9.02016C148.562 9.40726 149.079 10.5686 149.466 11.6008C149.853 12.6331 150.369 13.7944 150.627 14.3105C150.885 14.8266 151.014 15.2137 151.014 15.2137C151.014 15.2137 149.466 15.2137 147.53 15.2137C145.337 15.2137 144.046 15.2137 144.046 15.0847C144.046 15.0847 144.175 14.8266 144.175 14.5686C144.304 14.1815 145.079 12.1169 146.627 7.72984C146.885 7.08468 147.143 6.43952 147.143 6.31049C147.272 6.31049 147.401 6.43952 147.788 7.34274Z" fill="#181818" fill-opacity="0.8"/>
</svg>
