<svg width="208" height="48" viewBox="0 0 208 48" fill="none" xmlns="http://www.w3.org/2000/svg">
<g clip-path="url(#clip0_52_95)">
<path d="M15.1909 22.2415C13.9685 22.2415 12.9774 23.2324 12.9774 24.4547C12.9774 25.6769 13.9685 26.668 15.1909 26.668C16.4132 26.668 17.4041 25.6767 17.4041 24.4547C17.4041 23.2324 16.413 22.2415 15.1909 22.2415Z" fill="#181818" fill-opacity="0.8"/>
<path d="M31.9966 26.6683C33.219 26.6683 34.2099 25.677 34.2099 24.455C34.2099 23.2325 33.2188 22.2418 31.9966 22.2418C30.7741 22.2418 29.7832 23.2327 29.7832 24.455C29.7832 25.677 30.7743 26.6683 31.9966 26.6683Z" fill="#181818" fill-opacity="0.8"/>
<path d="M48.0434 24.4446C48.0434 10.944 37.2983 6.10352e-05 24.0433 6.10352e-05C10.7887 6.10352e-05 0.0435791 10.944 0.0435791 24.4446C0.0435791 35.6758 7.48122 45.137 17.6131 48.0001C19.5951 43.1079 20.9678 37.0385 21.552 31.0415C11.9269 30.6259 4.48701 27.8347 4.48701 24.455C4.48701 22.1026 8.09053 20.0359 13.5239 18.8566L16.4383 8.96263L19.1086 18.0295C19.9041 17.9579 20.7203 17.9049 21.552 17.8681C22.368 17.8339 23.1997 17.8155 24.0433 17.8155C24.8873 17.8155 25.7188 17.8339 26.535 17.8681C27.3665 17.9049 28.1827 17.9579 28.9782 18.0295L31.6483 8.96263L34.5625 18.8566C39.996 20.0361 43.5995 22.1026 43.5995 24.455C43.5995 27.8349 36.1596 30.6259 26.5348 31.0415C27.1187 37.0385 28.4912 43.1079 30.4734 48.0001C40.6055 45.137 48.0434 35.6756 48.0434 24.4446Z" fill="#181818" fill-opacity="0.8"/>
<path d="M64.0432 36.0834V13.0948H72.5293C79.5448 13.0948 83.8888 17.4051 83.8888 24.5778C83.8888 31.7617 79.5448 36.0832 72.5405 36.0832H64.0432V36.0834ZM72.3271 31.3465C76.1997 31.3465 78.3211 29.5505 78.3211 24.5778C78.3211 19.6277 76.1997 17.8317 72.2486 17.8317H69.5995V31.3465H72.3271Z" fill="#181818" fill-opacity="0.8"/>
<path d="M87.1218 13.0948H103.151V17.6072H92.6779V22.3218H102.331V26.8452H92.6779V31.571H103.151V36.0834H87.1218V13.0948Z" fill="#181818" fill-opacity="0.8"/>
<path d="M116.453 20.3573H116.633L120.875 13.0948H127.094L120.157 24.5892L127.319 36.0834H120.943L116.633 28.7423H116.453L112.143 36.0834H105.812L112.94 24.5892L105.992 13.0948H112.255L116.453 20.3573Z" fill="#181818" fill-opacity="0.8"/>
<path d="M140.34 29.9321H140.531L145.671 13.0948H151.89L144.134 36.0832H136.737L128.98 13.0948H135.199L140.34 29.9321Z" fill="#181818" fill-opacity="0.8"/>
<path d="M154.303 14.206C154.303 12.7578 155.572 11.5909 157.121 11.5909C158.681 11.5909 159.938 12.7578 159.938 14.206C159.938 15.654 158.681 16.8327 157.121 16.8327C155.572 16.8327 154.303 15.654 154.303 14.206ZM154.371 18.8419H159.859V36.0833H154.371V18.8419Z" fill="#181818" fill-opacity="0.8"/>
<path d="M162.678 27.53C162.678 22.1869 166.023 18.6176 171.231 18.6176C176.125 18.6176 179.582 21.7378 179.582 27.4177V28.7871H168.088V28.9328C168.088 31.0431 169.39 32.4465 171.501 32.4465C172.937 32.4465 174.06 31.829 174.486 30.6842L179.526 30.8303C178.898 34.2202 175.923 36.4091 171.399 36.4091C165.978 36.4091 162.678 33.0527 162.678 27.53ZM174.475 25.5995C174.453 23.8373 173.151 22.5798 171.343 22.5798C169.525 22.5798 168.167 23.8821 168.088 25.5995H174.475Z" fill="#181818" fill-opacity="0.8"/>
<path d="M180.952 18.8419H186.464L188.788 29.8869H188.933L191.426 18.8419H196.802L199.361 29.8085H199.507L201.763 18.8419H207.275L202.773 36.0832H196.903L194.209 26.037H194.018L191.324 36.0832H185.443L180.952 18.8419Z" fill="#181818" fill-opacity="0.8"/>
</g>
<defs>
<clipPath id="clip0_52_95">
<rect width="207.232" height="48" fill="white" transform="translate(0.0435791 6.10352e-05)"/>
</clipPath>
</defs>
</svg>
