<svg width="24" height="25" viewBox="0 0 24 25" fill="none" xmlns="http://www.w3.org/2000/svg">
<path d="M0.923501 12.5905C0.711482 6.51904 5.46147 1.4253 11.5329 1.21328C17.6043 1.00126 22.6981 5.75125 22.9101 11.8227C23.1221 17.8941 18.3721 22.9879 12.3007 23.1999C6.22926 23.4119 1.13552 18.6619 0.923501 12.5905Z" stroke="black"/>
<path fill-rule="evenodd" clip-rule="evenodd" d="M10.2607 7.60923L12.0988 7.48038L16.6732 11.8788L12.6492 16.529L10.7339 16.5312L12.7225 14.2312C13.1618 13.7223 13.6076 13.2191 14.0599 12.7217L7.17304 12.9218L7.15262 11.4112L14.0394 11.2111C13.5433 10.7549 13.053 10.2925 12.5686 9.82388L10.2607 7.60923Z" fill="black"/>
</svg>
