<svg width="22" height="17" viewBox="0 0 22 17" fill="none" xmlns="http://www.w3.org/2000/svg">
<path d="M9.48024 9.16976C9.48024 10.2698 8.68022 11.1698 7.68022 11.1698C6.68022 11.1698 5.88023 10.2698 5.88023 9.16976C5.88023 8.06976 6.67022 7.16976 7.68022 7.16976C8.69022 7.16976 9.50024 8.06976 9.48024 9.16976ZM14.3202 7.16976C13.3102 7.16976 12.5202 8.06976 12.5202 9.16976C12.5202 10.2698 13.3302 11.1698 14.3202 11.1698C15.3102 11.1698 16.1202 10.2698 16.1202 9.16976C16.1402 8.06976 15.3202 7.16976 14.3202 7.16976ZM21.6502 13.5698C21.6302 13.7798 21.5202 13.9798 21.3402 14.0998C19.7102 15.2798 17.9802 16.1298 16.0502 16.7198C15.9802 16.7398 15.9002 16.7498 15.8302 16.7498C15.6002 16.7498 15.3702 16.6398 15.2302 16.4498C14.7902 15.8498 14.4002 15.2397 14.0902 14.6197C12.0502 15.1297 9.94024 15.1297 7.89024 14.6197C7.56024 15.2797 7.17021 15.8997 6.74021 16.4597C6.55021 16.7097 6.23024 16.8198 5.92024 16.7198C4.02024 16.1398 2.29023 15.2898 0.630229 14.0998C0.450229 13.9698 0.340232 13.7797 0.320232 13.5597C-0.0797682 9.30975 0.930217 5.46974 3.43022 1.82974C3.51022 1.71974 3.61021 1.62976 3.74021 1.56976C5.11021 0.939758 6.56022 0.499751 8.06022 0.249751C8.38022 0.199751 8.69022 0.349755 8.84022 0.629755C8.96022 0.849755 9.07023 1.04974 9.16023 1.23974C10.3802 1.10974 11.6102 1.10974 12.8402 1.23974C12.9402 1.02974 13.0602 0.809746 13.1702 0.619746C13.3302 0.349746 13.6302 0.20976 13.9402 0.25976C15.4202 0.50976 16.8702 0.949737 18.2602 1.57974C18.3802 1.63974 18.4902 1.71975 18.5702 1.83975C21.0502 5.40975 22.0902 9.35976 21.6602 13.5698H21.6502ZM17.4402 2.85974C16.4002 2.39974 15.3102 2.05975 14.2102 1.83975C14.1202 2.01975 14.0402 2.18975 13.9902 2.33975C13.8602 2.65975 13.5302 2.85975 13.1902 2.80975C11.7302 2.59975 10.2502 2.59975 8.81022 2.80975C8.46022 2.85975 8.13022 2.66975 8.00022 2.33975C7.95022 2.20975 7.87021 2.03975 7.77021 1.83975C6.66021 2.05975 5.58021 2.40974 4.55021 2.85974C2.41021 6.04974 1.51023 9.38974 1.79023 13.0797C3.08023 13.9597 4.41023 14.6397 5.85023 15.1197C5.96023 14.9597 6.06023 14.8098 6.16023 14.6398C5.82023 14.4798 5.48024 14.2998 5.14024 14.0998C4.93024 13.9698 4.79021 13.7498 4.77021 13.4998C4.76021 13.2498 4.86022 13.0097 5.06022 12.8597L5.17024 12.7797C5.26024 12.7097 5.36023 12.6398 5.44023 12.5698C5.66023 12.3798 5.97021 12.3397 6.24021 12.4597C9.32022 13.8497 12.6902 13.8497 15.7402 12.4597C16.0002 12.3397 16.3202 12.3798 16.5402 12.5698C16.6502 12.6698 16.7802 12.7598 16.9002 12.8498C17.1102 12.9998 17.2202 13.2397 17.2102 13.4897C17.2002 13.7397 17.0602 13.9698 16.8402 14.0998C16.5102 14.2998 16.1702 14.4798 15.8102 14.6398C15.9102 14.7998 16.0102 14.9597 16.1202 15.1197C17.5802 14.6297 18.9102 13.9597 20.1802 13.0797C20.4802 9.37974 19.5802 6.02974 17.4402 2.85974Z" fill="#181818"/>
</svg>
