<svg width="14" height="14" viewBox="0 0 14 14" fill="none" xmlns="http://www.w3.org/2000/svg">
<path fill-rule="evenodd" clip-rule="evenodd" d="M7 0.4375C7.14918 0.4375 7.29226 0.496763 7.39775 0.602252C7.50324 0.707742 7.5625 0.850816 7.5625 1V13C7.5625 13.1492 7.50324 13.2923 7.39775 13.3977C7.29226 13.5032 7.14918 13.5625 7 13.5625C6.85082 13.5625 6.70774 13.5032 6.60225 13.3977C6.49676 13.2923 6.4375 13.1492 6.4375 13V1C6.4375 0.850816 6.49676 0.707742 6.60225 0.602252C6.70774 0.496763 6.85082 0.4375 7 0.4375ZM1 5.6875C1.14918 5.6875 1.29226 5.74676 1.39775 5.85225C1.50324 5.95774 1.5625 6.10082 1.5625 6.25V7.75C1.5625 7.89918 1.50324 8.04226 1.39775 8.14775C1.29226 8.25324 1.14918 8.3125 1 8.3125C0.850816 8.3125 0.707742 8.25324 0.602252 8.14775C0.496763 8.04226 0.4375 7.89918 0.4375 7.75V6.25C0.4375 6.10082 0.496763 5.95774 0.602252 5.85225C0.707742 5.74676 0.850816 5.6875 1 5.6875ZM13 5.6875C13.1492 5.6875 13.2923 5.74676 13.3977 5.85225C13.5032 5.95774 13.5625 6.10082 13.5625 6.25V7.75C13.5625 7.89918 13.5032 8.04226 13.3977 8.14775C13.2923 8.25324 13.1492 8.3125 13 8.3125C12.8508 8.3125 12.7077 8.25324 12.6023 8.14775C12.4968 8.04226 12.4375 7.89918 12.4375 7.75V6.25C12.4375 6.10082 12.4968 5.95774 12.6023 5.85225C12.7077 5.74676 12.8508 5.6875 13 5.6875Z" fill="white"/>
<path opacity="0.5" d="M10.5625 3.25C10.5625 3.10082 10.5032 2.95774 10.3977 2.85225C10.2923 2.74676 10.1492 2.6875 10 2.6875C9.85082 2.6875 9.70774 2.74676 9.60225 2.85225C9.49676 2.95774 9.4375 3.10082 9.4375 3.25V10.75C9.4375 10.8992 9.49676 11.0423 9.60225 11.1477C9.70774 11.2532 9.85082 11.3125 10 11.3125C10.1492 11.3125 10.2923 11.2532 10.3977 11.1477C10.5032 11.0423 10.5625 10.8992 10.5625 10.75V3.25ZM4.5625 3.25C4.5625 3.10082 4.50324 2.95774 4.39775 2.85225C4.29226 2.74676 4.14918 2.6875 4 2.6875C3.85082 2.6875 3.70774 2.74676 3.60225 2.85225C3.49676 2.95774 3.4375 3.10082 3.4375 3.25V10.75C3.4375 10.8992 3.49676 11.0423 3.60225 11.1477C3.70774 11.2532 3.85082 11.3125 4 11.3125C4.14918 11.3125 4.29226 11.2532 4.39775 11.1477C4.50324 11.0423 4.5625 10.8992 4.5625 10.75V3.25Z" fill="white"/>
</svg>
