<svg width="1440" height="1200" viewBox="0 0 1440 1200" fill="none" xmlns="http://www.w3.org/2000/svg">
<mask id="mask0_52_676" style="mask-type:luminance" maskUnits="userSpaceOnUse" x="-240" y="0" width="1920" height="1200">
<path d="M1680 0H-240V1200H1680V0Z" fill="white"/>
</mask>
<g mask="url(#mask0_52_676)">
<path d="M1564.83 72.0255V1127.98H-124.83V72.0255H1564.83Z" stroke="#636363" stroke-width="0.666667"/>
<path d="M1472.7 129.642V1070.36H-32.707V129.642H1472.7Z" stroke="#636363" stroke-width="0.666667"/>
<path d="M1399 175.733V1024.27H40.998V175.733H1399Z" stroke="#636363" stroke-width="0.666667"/>
<path d="M1340.03 212.608V987.391H99.9609V212.608H1340.03Z" stroke="#636363" stroke-width="0.666667"/>
<path d="M1292.86 242.113V957.888H147.143V242.113H1292.86Z" stroke="#636363" stroke-width="0.666667"/>
<path d="M1255.08 265.74V934.261H184.924V265.74H1255.08Z" stroke="#636363" stroke-width="0.666667"/>
<path d="M1224.85 284.642V915.358H215.145V284.642H1224.85Z" stroke="#636363" stroke-width="0.666667"/>
<path d="M1200.66 299.769V900.232H239.328V299.769H1200.66Z" stroke="#636363" stroke-width="0.666667"/>
<path d="M1181.32 311.869V888.131H258.695V311.869H1181.32Z" stroke="#636363" stroke-width="0.666667"/>
<path d="M1165.88 321.526V878.474H274.131V321.526H1165.88Z" stroke="#636363" stroke-width="0.666667"/>
<path d="M1153.55 329.231V870.769H286.451V329.231H1153.55Z" stroke="#636363" stroke-width="0.666667"/>
<path d="M1153.56 329.229V870.772H286.451V329.229H1153.56Z" stroke="#636363" stroke-width="0.666667"/>
<path d="M340.646 329.231C340.646 329.231 340.646 464.616 340.646 600C340.646 735.385 340.646 870.77 340.646 870.77" stroke="#636363" stroke-width="0.666667"/>
<path d="M394.842 329.231C394.842 329.231 394.842 464.615 394.842 600C394.842 735.384 394.842 870.769 394.842 870.769" stroke="#636363" stroke-width="0.666667"/>
<path d="M449.031 329.231C449.031 329.231 449.031 464.615 449.031 600C449.031 735.384 449.031 870.769 449.031 870.769" stroke="#636363" stroke-width="0.666667"/>
<path d="M503.221 329.231C503.221 329.231 503.221 464.616 503.221 600C503.221 735.385 503.221 870.77 503.221 870.77" stroke="#636363" stroke-width="0.666667"/>
<path d="M557.42 329.231C557.42 329.231 557.42 464.615 557.42 600C557.42 735.385 557.42 870.769 557.42 870.769" stroke="#636363" stroke-width="0.666667"/>
<path d="M611.613 329.231C611.613 329.231 611.613 464.615 611.613 600C611.613 735.384 611.613 870.769 611.613 870.769" stroke="#636363" stroke-width="0.666667"/>
<path d="M665.807 329.231C665.807 329.231 665.807 464.615 665.807 600C665.807 735.385 665.807 870.769 665.807 870.769" stroke="#636363" stroke-width="0.666667"/>
<path d="M719.996 329.231C719.996 329.231 719.996 464.615 719.996 600C719.996 735.385 719.996 870.769 719.996 870.769" stroke="#636363" stroke-width="0.666667"/>
<path d="M774.201 329.231C774.201 329.231 774.201 464.615 774.201 600C774.201 735.384 774.201 870.769 774.201 870.769" stroke="#636363" stroke-width="0.666667"/>
<path d="M828.385 329.231C828.385 329.231 828.385 464.615 828.385 600C828.385 735.385 828.385 870.769 828.385 870.769" stroke="#636363" stroke-width="0.666667"/>
<path d="M882.584 329.231C882.584 329.231 882.584 464.615 882.584 600C882.584 735.384 882.584 870.769 882.584 870.769" stroke="#636363" stroke-width="0.666667"/>
<path d="M936.777 329.231C936.777 329.231 936.777 464.616 936.777 600C936.777 735.385 936.777 870.77 936.777 870.77" stroke="#636363" stroke-width="0.666667"/>
<path d="M990.967 329.231C990.967 329.231 990.967 464.616 990.967 600C990.967 735.385 990.967 870.77 990.967 870.77" stroke="#636363" stroke-width="0.666667"/>
<path d="M1045.16 329.231C1045.16 329.231 1045.16 464.615 1045.16 600C1045.16 735.385 1045.16 870.769 1045.16 870.769" stroke="#636363" stroke-width="0.666667"/>
<path d="M1099.35 329.231C1099.35 329.231 1099.35 464.615 1099.35 600C1099.35 735.385 1099.35 870.769 1099.35 870.769" stroke="#636363" stroke-width="0.666667"/>
<path d="M286.451 369.231C286.451 369.231 503.225 369.231 720 369.231C936.774 369.231 1153.55 369.231 1153.55 369.231" stroke="#636363" stroke-width="0.666667"/>
<path d="M286.451 415.385C286.451 415.385 503.225 415.385 720 415.385C936.774 415.385 1153.55 415.385 1153.55 415.385" stroke="#636363" stroke-width="0.666667"/>
<path d="M286.451 461.538C286.451 461.538 503.225 461.538 720 461.538C936.774 461.538 1153.55 461.538 1153.55 461.538" stroke="#636363" stroke-width="0.666667"/>
<path d="M286.451 507.692C286.451 507.692 503.225 507.692 720 507.692C936.774 507.692 1153.55 507.692 1153.55 507.692" stroke="#636363" stroke-width="0.666667"/>
<path d="M286.451 553.847C286.451 553.847 503.225 553.847 720 553.847C936.774 553.847 1153.55 553.847 1153.55 553.847" stroke="#636363" stroke-width="0.666667"/>
<path d="M286.451 600C286.451 600 503.225 600 720 600C936.774 600 1153.55 600 1153.55 600" stroke="#636363" stroke-width="0.666667"/>
<path d="M286.451 646.154C286.451 646.154 503.225 646.154 720 646.154C936.774 646.154 1153.55 646.154 1153.55 646.154" stroke="#636363" stroke-width="0.666667"/>
<path d="M286.451 692.308C286.451 692.308 503.225 692.308 720 692.308C936.774 692.308 1153.55 692.308 1153.55 692.308" stroke="#636363" stroke-width="0.666667"/>
<path d="M286.451 738.461C286.451 738.461 503.225 738.461 720 738.461C936.774 738.461 1153.55 738.461 1153.55 738.461" stroke="#636363" stroke-width="0.666667"/>
<path d="M286.451 784.615C286.451 784.615 503.225 784.615 720 784.615C936.774 784.615 1153.55 784.615 1153.55 784.615" stroke="#636363" stroke-width="0.666667"/>
<path d="M286.451 830.77C286.451 830.77 503.225 830.77 720 830.77C936.774 830.77 1153.55 830.77 1153.55 830.77" stroke="#636363" stroke-width="0.666667"/>
<path d="M-119.999 0L340.646 329.231" stroke="#636363" stroke-width="0.666667"/>
<path d="M1099.35 329.231L1560 3.43323e-05" stroke="#636363" stroke-width="0.666667"/>
<path d="M0.00322104 0L394.842 329.231" stroke="#636363" stroke-width="0.666667"/>
<path d="M1045.16 329.231L1440 3.43323e-05" stroke="#636363" stroke-width="0.666667"/>
<path d="M119.999 0L449.031 329.231" stroke="#636363" stroke-width="0.666667"/>
<path d="M990.97 329.231L1320 3.43323e-05" stroke="#636363" stroke-width="0.666667"/>
<path d="M239.995 0L503.221 329.231" stroke="#636363" stroke-width="0.666667"/>
<path d="M936.772 329.231L1200 3.43323e-05" stroke="#636363" stroke-width="0.666667"/>
<path d="M360.001 0L557.42 329.231" stroke="#636363" stroke-width="0.666667"/>
<path d="M882.583 329.231L1080 -0.000209808" stroke="#636363" stroke-width="0.666667"/>
<path d="M480 0L611.613 329.231" stroke="#636363" stroke-width="0.666667"/>
<path d="M828.387 329.231L960 -0.000209808" stroke="#636363" stroke-width="0.666667"/>
<path d="M600 -0.00012207L665.807 329.231" stroke="#636363" stroke-width="0.666667"/>
<path d="M774.197 329.231L840.004 3.43323e-05" stroke="#636363" stroke-width="0.666667"/>
<path d="M719.996 0V329.231" stroke="#636363" stroke-width="0.666667"/>
<path d="M340.641 870.77L-120.004 1200" stroke="#636363" stroke-width="0.666667"/>
<path d="M1099.35 870.77L1560 1200" stroke="#636363" stroke-width="0.666667"/>
<path d="M394.841 870.77L0.00195312 1200" stroke="#636363" stroke-width="0.666667"/>
<path d="M1045.16 870.769L1440 1200" stroke="#636363" stroke-width="0.666667"/>
<path d="M449.034 870.77L120.002 1200" stroke="#636363" stroke-width="0.666667"/>
<path d="M990.97 870.77L1320 1200" stroke="#636363" stroke-width="0.666667"/>
<path d="M503.224 870.769L239.998 1200" stroke="#636363" stroke-width="0.666667"/>
<path d="M936.772 870.769L1200 1200" stroke="#636363" stroke-width="0.666667"/>
<path d="M557.417 870.77L359.998 1200" stroke="#636363" stroke-width="0.666667"/>
<path d="M882.583 870.769L1080 1200" stroke="#636363" stroke-width="0.666667"/>
<path d="M611.611 870.77L479.998 1200" stroke="#636363" stroke-width="0.666667"/>
<path d="M828.387 870.769L960 1200" stroke="#636363" stroke-width="0.666667"/>
<path d="M665.808 870.769L600.002 1200" stroke="#636363" stroke-width="0.666667"/>
<path d="M774.197 870.77L840.004 1200" stroke="#636363" stroke-width="0.666667"/>
<path d="M719.996 870.769V1200" stroke="#636363" stroke-width="0.666667"/>
<path d="M1153.55 369.231L1680 100" stroke="#636363" stroke-width="0.666667"/>
<path d="M1153.55 830.769L1680 1100" stroke="#636363" stroke-width="0.666667"/>
<path d="M1153.55 415.385L1680 200" stroke="#636363" stroke-width="0.666667"/>
<path d="M1153.55 784.616L1680 1000" stroke="#636363" stroke-width="0.666667"/>
<path d="M1153.55 461.538L1680 300" stroke="#636363" stroke-width="0.666667"/>
<path d="M1153.55 738.461L1680 900" stroke="#636363" stroke-width="0.666667"/>
<path d="M1153.55 507.692L1680 400" stroke="#636363" stroke-width="0.666667"/>
<path d="M1153.55 692.308L1680 800" stroke="#636363" stroke-width="0.666667"/>
<path d="M1153.55 553.846L1680 500" stroke="#636363" stroke-width="0.666667"/>
<path d="M1153.55 646.154L1680 700" stroke="#636363" stroke-width="0.666667"/>
<path d="M1153.55 600H1680" stroke="#636363" stroke-width="0.666667"/>
<path d="M-240 100L286.451 369.231" stroke="#636363" stroke-width="0.666667"/>
<path d="M286.45 830.769L-240.002 1100" stroke="#636363" stroke-width="0.666667"/>
<path d="M-240 200L286.451 415.385" stroke="#636363" stroke-width="0.666667"/>
<path d="M286.45 784.616L-240.002 1000" stroke="#636363" stroke-width="0.666667"/>
<path d="M-240 300L286.451 461.538" stroke="#636363" stroke-width="0.666667"/>
<path d="M286.45 738.462L-240.002 900" stroke="#636363" stroke-width="0.666667"/>
<path d="M-240 400L286.451 507.692" stroke="#636363" stroke-width="0.666667"/>
<path d="M286.45 692.308L-240.002 800" stroke="#636363" stroke-width="0.666667"/>
<path d="M-240 500L286.451 553.846" stroke="#636363" stroke-width="0.666667"/>
<path d="M286.45 646.154L-240.002 700" stroke="#636363" stroke-width="0.666667"/>
<path d="M286.45 600H-240.002" stroke="#636363" stroke-width="0.666667"/>
<path d="M-240 0L286.451 329.231" stroke="#636363" stroke-width="0.666667"/>
<path d="M1153.55 329.231L1680 -0.000209808" stroke="#636363" stroke-width="0.666667"/>
<path d="M1153.55 870.769L1680 1200" stroke="#636363" stroke-width="0.666667"/>
<path d="M286.45 870.769L-240.002 1200" stroke="#636363" stroke-width="0.666667"/>
</g>
</svg>
