<svg width="50" height="50" viewBox="0 0 50 50" fill="none" xmlns="http://www.w3.org/2000/svg">
<g filter="url(#filter0_d_52_551)">
<path fill-rule="evenodd" clip-rule="evenodd" d="M45.6587 18.3466L44.4829 17.1706C43.7336 16.4213 43.312 15.4026 43.312 14.3413V12.6853C43.312 8.26926 39.7336 4.69063 35.3176 4.69063H33.6617C32.6003 4.69063 31.5842 4.26931 30.8322 3.51998L29.6561 2.34395C26.5335 -0.778714 21.4722 -0.778714 18.3495 2.34395L17.1734 3.51998C16.424 4.26931 15.4056 4.69063 14.3443 4.69063H12.6884C8.27235 4.69063 4.69356 8.26926 4.69356 12.6853V14.3413C4.69356 15.4026 4.27232 16.4186 3.52299 17.1706L2.34688 18.3466C-0.775784 21.4693 -0.775784 26.5306 2.34688 29.6533L3.52299 30.8293C4.27232 31.5786 4.69356 32.5973 4.69356 33.6586V35.3147C4.69356 39.7307 8.27235 43.3093 12.6884 43.3093H14.3443C15.4056 43.3093 16.4214 43.7306 17.1734 44.4799L18.3495 45.656C21.4722 48.7786 26.5335 48.7786 29.6561 45.656L30.8322 44.4799C31.5816 43.7306 32.6003 43.3093 33.6617 43.3093H35.3176C39.7336 43.3093 43.312 39.7307 43.312 35.3147V33.6586C43.312 32.5973 43.7336 31.5813 44.4829 30.8293L45.6587 29.6533C48.7814 26.5306 48.7814 21.4693 45.6587 18.3466ZM33.4136 20.08L22.7469 30.7466C22.3576 31.136 21.8455 31.3333 21.3335 31.3333C20.8215 31.3333 20.3095 31.1386 19.9201 30.7466L14.5868 25.4133C13.8055 24.632 13.8055 23.3653 14.5868 22.5839C15.3681 21.8026 16.6349 21.8026 17.4162 22.5839L21.3361 26.5039L30.5894 17.2506C31.3707 16.4693 32.6375 16.4693 33.4188 17.2506C34.1948 18.0319 34.1949 19.3013 33.4136 20.08Z" fill="#FF8BCB"/>
<path d="M33.4136 20.08L22.7469 30.7466C22.3576 31.136 21.8455 31.3333 21.3335 31.3333C20.8215 31.3333 20.3095 31.1386 19.9201 30.7466L14.5868 25.4133C13.8055 24.632 13.8055 23.3653 14.5868 22.5839C15.3681 21.8026 16.6349 21.8026 17.4162 22.5839L21.3361 26.5039L30.5894 17.2506C31.3707 16.4693 32.6375 16.4693 33.4188 17.2506C34.1948 18.0319 34.1949 19.3013 33.4136 20.08Z" fill="white"/>
<path d="M33.7724 16.8971L33.7736 16.8983C34.7429 17.8742 34.7441 19.4592 33.7672 20.4335L33.7724 16.8971ZM33.7724 16.8971C32.7958 15.9205 31.2124 15.9205 30.2358 16.8971L21.3361 25.7968L17.7698 22.2304L17.4162 22.5839L17.7698 22.2304C16.7932 21.2538 15.2098 21.2538 14.2332 22.2304C13.2566 23.207 13.2566 24.7902 14.2332 25.7668L19.5654 31.099C19.5657 31.0993 19.566 31.0996 19.5663 31.0999C20.0538 31.5903 20.6952 31.8333 21.3335 31.8333C21.9738 31.8333 22.6143 31.5863 23.1005 31.1002L33.7666 20.4341L33.7724 16.8971ZM45.3051 18.7002L45.3052 18.7002C48.2326 21.6276 48.2326 26.3723 45.3052 29.2997L45.3051 29.2998L44.1294 30.4758L44.1288 30.4764C43.2865 31.3217 42.812 32.4644 42.812 33.6586V35.3147C42.812 39.4545 39.4574 42.8093 35.3176 42.8093H33.6617C32.468 42.8093 31.322 43.2831 30.4787 44.1264L29.3026 45.3024L29.6561 45.656L29.3026 45.3024C26.3752 48.2298 21.6304 48.2298 18.703 45.3024L18.3495 45.656L18.703 45.3024L17.5269 44.1264L17.5263 44.1258C16.681 43.2834 15.5385 42.8093 14.3443 42.8093H12.6884C8.54848 42.8093 5.19356 39.4545 5.19356 35.3147V33.6586C5.19356 32.465 4.71988 31.3191 3.87654 30.4757L3.87653 30.4757L2.70044 29.2997C-0.226968 26.3723 -0.226968 21.6276 2.70044 18.7002L3.87653 17.5242L3.87717 17.5235C4.71955 16.6782 5.19356 15.5354 5.19356 14.3413V12.6853C5.19356 8.54542 8.54848 5.19063 12.6884 5.19063H14.3443C15.5379 5.19063 16.6836 4.71683 17.5269 3.87353L18.703 2.69752L18.703 2.69751C21.6304 -0.229898 26.3752 -0.229898 29.3026 2.69751L29.3026 2.69752L30.4787 3.87354L30.4793 3.87416C31.3247 4.71653 32.4675 5.19063 33.6617 5.19063H35.3176C39.4574 5.19063 42.812 8.54539 42.812 12.6853V14.3413C42.812 15.535 43.2861 16.6809 44.1294 17.5241C44.1294 17.5241 44.1294 17.5242 44.1294 17.5242L45.3051 18.7002ZM33.0607 19.7258L33.0601 19.7264L22.3934 30.3931C22.1009 30.6856 21.7173 30.8333 21.3335 30.8333C20.9482 30.8333 20.5659 30.6872 20.2749 30.3943L20.2737 30.3931L14.9403 25.0597C14.3543 24.4737 14.3543 23.5236 14.9403 22.9375C15.5264 22.3514 16.4766 22.3514 17.0627 22.9375L20.9826 26.8575L21.3361 27.2111L21.6897 26.8575L30.9429 17.6042C31.5288 17.0183 32.4785 17.0181 33.0646 17.6035C33.6466 18.1901 33.6456 19.1429 33.0607 19.7258Z" stroke="black"/>
</g>
<defs>
<filter id="filter0_d_52_551" x="0.00488281" y="0.00195312" width="49.9958" height="49.996" filterUnits="userSpaceOnUse" color-interpolation-filters="sRGB">
<feFlood flood-opacity="0" result="BackgroundImageFix"/>
<feColorMatrix in="SourceAlpha" type="matrix" values="0 0 0 0 0 0 0 0 0 0 0 0 0 0 0 0 0 0 127 0" result="hardAlpha"/>
<feOffset dx="2" dy="2"/>
<feComposite in2="hardAlpha" operator="out"/>
<feColorMatrix type="matrix" values="0 0 0 0 0 0 0 0 0 0 0 0 0 0 0 0 0 0 1 0"/>
<feBlend mode="normal" in2="BackgroundImageFix" result="effect1_dropShadow_52_551"/>
<feBlend mode="normal" in="SourceGraphic" in2="effect1_dropShadow_52_551" result="shape"/>
</filter>
</defs>
</svg>
