<svg width="285" height="260" viewBox="0 0 285 260" fill="none" xmlns="http://www.w3.org/2000/svg">
<rect x="75" width="210" height="260" rx="11.04" fill="#050038" fill-opacity="0.06"/>
<g clip-path="url(#clip0_52_976)">
<path d="M79.2188 138.556C78.0975 138.556 77.1875 137.646 77.1875 136.524V34.5312C77.1875 27.8119 82.6556 22.3438 89.375 22.3438H105.625C106.165 22.3438 106.681 22.5591 107.063 22.9369L116.622 32.5H143.378L152.941 22.9369C153.319 22.5591 153.835 22.3438 154.375 22.3438H170.625C177.344 22.3438 182.812 27.8119 182.812 34.5312V136.52C182.812 137.642 181.902 138.552 180.781 138.552C179.66 138.552 178.75 137.642 178.75 136.52V34.5312C178.75 30.0503 175.106 26.4062 170.625 26.4062H155.216L145.653 35.9694C145.275 36.3472 144.759 36.5625 144.219 36.5625H115.781C115.241 36.5625 114.725 36.3472 114.343 35.9694L104.784 26.4062H89.375C84.8941 26.4062 81.25 30.0503 81.25 34.5312V136.524C81.25 137.646 80.34 138.556 79.2188 138.556Z" fill="#181818"/>
<path d="M192.969 144.592C191.848 144.592 190.938 143.682 190.938 142.561V32.5C190.938 22.4209 182.735 14.2188 172.656 14.2188H87.3438C77.2647 14.2188 69.0625 22.4209 69.0625 32.5V142.561C69.0625 143.682 68.1525 144.592 67.0312 144.592C65.91 144.592 65 143.682 65 142.561V32.5C65 20.1784 75.0262 10.1562 87.3438 10.1562H172.656C184.974 10.1562 195 20.1784 195 32.5V142.561C195 143.682 194.09 144.592 192.969 144.592Z" fill="#181818"/>
<path d="M113.748 99.5297V115.78H129.998V99.5297H113.748Z" fill="#ABEC8D"/>
<path d="M130 117.812H113.75C112.629 117.812 111.719 116.903 111.719 115.781V99.5312C111.719 98.41 112.629 97.5 113.75 97.5H130C131.121 97.5 132.031 98.41 132.031 99.5312V115.781C132.031 116.903 131.121 117.812 130 117.812ZM115.781 113.75H127.969V101.562H115.781V113.75Z" fill="#181818"/>
<path d="M129.998 99.5297V115.78H146.248V99.5297H129.998Z" fill="#ABEC8D"/>
<path d="M146.25 117.812H130C128.879 117.812 127.969 116.903 127.969 115.781V99.5312C127.969 98.41 128.879 97.5 130 97.5H146.25C147.371 97.5 148.281 98.41 148.281 99.5312V115.781C148.281 116.903 147.371 117.812 146.25 117.812ZM132.031 113.75H144.219V101.562H132.031V113.75Z" fill="#181818"/>
<path d="M113.748 83.2797V99.5297H129.998V83.2797H113.748Z" fill="#ABEC8D"/>
<path d="M130 101.562H113.75C112.629 101.562 111.719 100.653 111.719 99.5312V83.2812C111.719 82.16 112.629 81.25 113.75 81.25H130C131.121 81.25 132.031 82.16 132.031 83.2812V99.5312C132.031 100.653 131.121 101.562 130 101.562ZM115.781 97.5H127.969V85.3125H115.781V97.5Z" fill="#181818"/>
<path d="M113.748 67.0297V83.2797H129.998V67.0297H113.748Z" fill="#ABEC8D"/>
<path d="M130 85.3125H113.75C112.629 85.3125 111.719 84.4025 111.719 83.2812V67.0312C111.719 65.91 112.629 65 113.75 65H130C131.121 65 132.031 65.91 132.031 67.0312V83.2812C132.031 84.4025 131.121 85.3125 130 85.3125ZM115.781 81.25H127.969V69.0625H115.781V81.25Z" fill="#181818"/>
<path d="M245.781 22.3438H229.531C228.41 22.3438 227.5 21.4337 227.5 20.3125C227.5 19.1913 228.41 18.2812 229.531 18.2812H245.781C246.903 18.2812 247.812 19.1913 247.812 20.3125C247.812 21.4337 246.903 22.3438 245.781 22.3438Z" fill="#181818"/>
<path d="M237.656 30.4688C236.535 30.4688 235.625 29.5588 235.625 28.4375V12.1875C235.625 11.0663 236.535 10.1562 237.656 10.1562C238.777 10.1562 239.688 11.0663 239.688 12.1875V28.4375C239.688 29.5588 238.777 30.4688 237.656 30.4688Z" fill="#181818"/>
<path d="M223.438 42.6562H207.188C206.066 42.6562 205.156 41.7462 205.156 40.625C205.156 39.5038 206.066 38.5938 207.188 38.5938H223.438C224.559 38.5938 225.469 39.5038 225.469 40.625C225.469 41.7462 224.559 42.6562 223.438 42.6562Z" fill="#181818"/>
<path d="M215.312 50.7812C214.191 50.7812 213.281 49.8713 213.281 48.75V32.5C213.281 31.3788 214.191 30.4688 215.312 30.4688C216.434 30.4688 217.344 31.3788 217.344 32.5V48.75C217.344 49.8713 216.434 50.7812 215.312 50.7812Z" fill="#181818"/>
<path d="M10.1562 125.938H2.03125C0.91 125.938 0 125.027 0 123.906C0 122.785 0.91 121.875 2.03125 121.875H10.1562C11.2775 121.875 12.1875 122.785 12.1875 123.906C12.1875 125.027 11.2775 125.938 10.1562 125.938Z" fill="#181818"/>
<path d="M52.8125 125.938H18.2812C17.16 125.938 16.25 125.027 16.25 123.906C16.25 122.785 17.16 121.875 18.2812 121.875H52.8125C53.9338 121.875 54.8438 122.785 54.8438 123.906C54.8438 125.027 53.9338 125.938 52.8125 125.938Z" fill="#181818"/>
<path d="M257.969 125.938H249.844C248.723 125.938 247.812 125.027 247.812 123.906C247.812 122.785 248.723 121.875 249.844 121.875H257.969C259.09 121.875 260 122.785 260 123.906C260 125.027 259.09 125.938 257.969 125.938Z" fill="#181818"/>
<path d="M241.719 125.938H207.188C206.066 125.938 205.156 125.027 205.156 123.906C205.156 122.785 206.066 121.875 207.188 121.875H241.719C242.84 121.875 243.75 122.785 243.75 123.906C243.75 125.027 242.84 125.938 241.719 125.938Z" fill="#181818"/>
<g filter="url(#filter0_d_52_976)">
<path d="M194.781 249.844H191.303C182.784 249.844 175.13 245.111 171.316 237.49L161.245 217.344H98.7553L88.6843 237.49C84.8737 245.107 77.2159 249.844 68.6968 249.844H65.2193C58.5325 249.844 52.2559 246.886 47.9943 241.727C43.7328 236.572 42.0143 229.848 43.2778 223.279L52.6093 174.757C56.4647 154.708 74.0837 140.156 94.5018 140.156H165.51C185.924 140.156 203.543 154.708 207.403 174.757L216.734 223.279C217.998 229.848 216.279 236.572 212.018 241.731C207.748 246.886 201.472 249.844 194.781 249.844ZM97.5 213.281H162.5C163.268 213.281 163.971 213.716 164.316 214.403L174.947 235.674C178.067 241.91 184.336 245.781 191.299 245.781H194.777C200.249 245.781 205.384 243.36 208.873 239.143C212.355 234.922 213.765 229.422 212.729 224.047L203.397 175.524C199.912 157.385 183.97 144.219 165.498 144.219H94.4937C76.0215 144.219 60.0803 157.385 56.5947 175.524L47.2631 224.047C46.2272 229.422 47.6368 234.922 51.1225 239.143C54.604 243.364 59.7431 245.781 65.2153 245.781H68.6928C75.66 245.781 81.9284 241.91 85.0443 235.674L95.68 214.403C96.0293 213.716 96.7322 213.281 97.5 213.281Z" fill="#181818"/>
</g>
<path d="M170.625 197.031C180.721 197.031 188.906 188.846 188.906 178.75C188.906 168.654 180.721 160.469 170.625 160.469C160.529 160.469 152.344 168.654 152.344 178.75C152.344 188.846 160.529 197.031 170.625 197.031Z" fill="#FF8BCB"/>
<path d="M170.625 199.062C159.425 199.062 150.312 189.95 150.312 178.75C150.312 167.55 159.425 158.438 170.625 158.438C181.825 158.438 190.938 167.55 190.938 178.75C190.938 189.95 181.825 199.062 170.625 199.062ZM170.625 162.5C161.663 162.5 154.375 169.788 154.375 178.75C154.375 187.712 161.663 195 170.625 195C179.587 195 186.875 187.712 186.875 178.75C186.875 169.788 179.587 162.5 170.625 162.5Z" fill="#181818"/>
<path d="M103.594 172.486H95.4688V164.361C95.4688 162.118 93.6488 160.298 91.4062 160.298H87.3438C85.1012 160.298 83.2812 162.118 83.2812 164.361V172.486H75.1562C72.9138 172.486 71.0938 174.306 71.0938 176.548V180.611C71.0938 182.853 72.9138 184.673 75.1562 184.673H83.2812V192.798C83.2812 195.041 85.1012 196.861 87.3438 196.861H91.4062C93.6488 196.861 95.4688 195.041 95.4688 192.798V184.673H103.594C105.836 184.673 107.656 182.853 107.656 180.611V176.548C107.656 174.306 105.836 172.486 103.594 172.486Z" fill="#FF8BCB"/>
<path d="M91.4062 198.892H87.3438C83.9841 198.892 81.25 196.158 81.25 192.798V186.704H75.1562C71.7966 186.704 69.0625 183.97 69.0625 180.611V176.548C69.0625 173.188 71.7966 170.454 75.1562 170.454H81.25V164.361C81.25 161.001 83.9841 158.267 87.3438 158.267H91.4062C94.7659 158.267 97.5 161.001 97.5 164.361V170.454H103.594C106.953 170.454 109.688 173.188 109.688 176.548V180.611C109.688 183.97 106.953 186.704 103.594 186.704H97.5V192.798C97.5 196.158 94.7659 198.892 91.4062 198.892ZM75.1562 174.517C74.0391 174.517 73.125 175.427 73.125 176.548V180.611C73.125 181.732 74.0391 182.642 75.1562 182.642H85.3125V192.798C85.3125 193.919 86.2266 194.829 87.3438 194.829H91.4062C92.5234 194.829 93.4375 193.919 93.4375 192.798V182.642H103.594C104.711 182.642 105.625 181.732 105.625 180.611V176.548C105.625 175.427 104.711 174.517 103.594 174.517H93.4375V164.361C93.4375 163.239 92.5234 162.329 91.4062 162.329H87.3438C86.2266 162.329 85.3125 163.239 85.3125 164.361V174.517H75.1562Z" fill="#181818"/>
<path d="M170.625 172.656C169.504 172.656 168.594 171.746 168.594 170.625V160.469C168.594 159.348 169.504 158.438 170.625 158.438C171.746 158.438 172.656 159.348 172.656 160.469V170.625C172.656 171.746 171.746 172.656 170.625 172.656Z" fill="#181818"/>
<path d="M170.625 199.062C169.504 199.062 168.594 198.153 168.594 197.031V186.875C168.594 185.754 169.504 184.844 170.625 184.844C171.746 184.844 172.656 185.754 172.656 186.875V197.031C172.656 198.153 171.746 199.062 170.625 199.062Z" fill="#181818"/>
<path d="M188.906 180.781H178.75C177.629 180.781 176.719 179.871 176.719 178.75C176.719 177.629 177.629 176.719 178.75 176.719H188.906C190.028 176.719 190.938 177.629 190.938 178.75C190.938 179.871 190.028 180.781 188.906 180.781Z" fill="#181818"/>
<path d="M162.5 180.781H152.344C151.223 180.781 150.312 179.871 150.312 178.75C150.312 177.629 151.223 176.719 152.344 176.719H162.5C163.621 176.719 164.531 177.629 164.531 178.75C164.531 179.871 163.621 180.781 162.5 180.781Z" fill="#181818"/>
<path d="M136.094 205.156H123.906C120.547 205.156 117.812 202.422 117.812 199.062V195C117.812 191.64 120.547 188.906 123.906 188.906H136.094C139.453 188.906 142.188 191.64 142.188 195V199.062C142.188 202.422 139.453 205.156 136.094 205.156ZM123.906 192.969C122.789 192.969 121.875 193.879 121.875 195V199.062C121.875 200.184 122.789 201.094 123.906 201.094H136.094C137.211 201.094 138.125 200.184 138.125 199.062V195C138.125 193.879 137.211 192.969 136.094 192.969H123.906Z" fill="#181818"/>
</g>
<defs>
<filter id="filter0_d_52_976" x="38.872" y="140.156" width="182.268" height="117.688" filterUnits="userSpaceOnUse" color-interpolation-filters="sRGB">
<feFlood flood-opacity="0" result="BackgroundImageFix"/>
<feColorMatrix in="SourceAlpha" type="matrix" values="0 0 0 0 0 0 0 0 0 0 0 0 0 0 0 0 0 0 127 0" result="hardAlpha"/>
<feOffset dy="4"/>
<feGaussianBlur stdDeviation="2"/>
<feComposite in2="hardAlpha" operator="out"/>
<feColorMatrix type="matrix" values="0 0 0 0 0 0 0 0 0 0 0 0 0 0 0 0 0 0 0.25 0"/>
<feBlend mode="normal" in2="BackgroundImageFix" result="effect1_dropShadow_52_976"/>
<feBlend mode="normal" in="SourceGraphic" in2="effect1_dropShadow_52_976" result="shape"/>
</filter>
<clipPath id="clip0_52_976">
<rect width="260" height="260" fill="white"/>
</clipPath>
</defs>
</svg>
