<svg width="330" height="260" viewBox="0 0 330 260" fill="none" xmlns="http://www.w3.org/2000/svg">
<rect x="120" width="210" height="260" rx="11.04" fill="#050038" fill-opacity="0.06"/>
<path d="M48.75 233.594H40.625C39.5038 233.594 38.5938 232.684 38.5938 231.562C38.5938 230.441 39.5038 229.531 40.625 229.531H48.75C49.8713 229.531 50.7812 230.441 50.7812 231.562C50.7812 232.684 49.8713 233.594 48.75 233.594Z" fill="#181818"/>
<path d="M117.812 233.594H56.875C55.7538 233.594 54.8438 232.684 54.8438 231.562C54.8438 230.441 55.7538 229.531 56.875 229.531H117.812C118.934 229.531 119.844 230.441 119.844 231.562C119.844 232.684 118.934 233.594 117.812 233.594Z" fill="#181818"/>
<path d="M219.375 38.5938H211.25C210.129 38.5938 209.219 37.6837 209.219 36.5625C209.219 35.4413 210.129 34.5312 211.25 34.5312H219.375C220.496 34.5312 221.406 35.4413 221.406 36.5625C221.406 37.6837 220.496 38.5938 219.375 38.5938Z" fill="#181818"/>
<path d="M203.125 38.5938H142.188C141.066 38.5938 140.156 37.6837 140.156 36.5625C140.156 35.4413 141.066 34.5312 142.188 34.5312H203.125C204.246 34.5312 205.156 35.4413 205.156 36.5625C205.156 37.6837 204.246 38.5938 203.125 38.5938Z" fill="#181818"/>
<path d="M97.5 52.8125L87.3925 49.4447C82.2453 47.7303 78.2072 43.6922 76.4928 38.545L73.125 28.4375L69.7572 38.545C68.0428 43.6922 64.0047 47.7303 58.8575 49.4447L48.75 52.8125L58.8575 56.1803C64.0047 57.8947 68.0428 61.9328 69.7572 67.08L73.125 77.1875L76.4928 67.08C78.2072 61.9328 82.2453 57.8947 87.3925 56.1803L97.5 52.8125Z" fill="#ABEC8D"/>
<path d="M73.125 79.2187C72.2516 79.2187 71.4756 78.6581 71.1994 77.8294L67.8316 67.7259C66.3244 63.2125 62.7291 59.6172 58.2116 58.11L48.1081 54.7422C47.2794 54.4619 46.7188 53.6859 46.7188 52.8125C46.7188 51.9391 47.2794 51.1631 48.1081 50.8828L58.2116 47.515C62.7291 46.0119 66.3244 42.4166 67.8316 37.8991L71.1994 27.7956C71.7519 26.1381 74.4981 26.1381 75.0506 27.7956L78.4184 37.8991C79.9256 42.4166 83.5209 46.0119 88.0344 47.515L98.1419 50.8828C98.9706 51.1631 99.5312 51.9391 99.5312 52.8125C99.5312 53.6859 98.9706 54.4619 98.1419 54.7422L88.0384 58.11C83.5209 59.6172 79.9256 63.2125 78.4184 67.7259L75.0506 77.8294C74.7744 78.6581 73.9984 79.2187 73.125 79.2187ZM55.1728 52.8125L59.4953 54.2506C65.2194 56.1641 69.7734 60.7181 71.6828 66.4381L73.125 70.7647L74.5672 66.4422C76.4725 60.7222 81.0306 56.1681 86.7547 54.2547L91.0772 52.8125L86.7547 51.3744C81.0306 49.465 76.4766 44.9109 74.5672 39.1869L73.125 34.8603L71.6828 39.1828C69.7775 44.9069 65.2194 49.4609 59.4953 51.3703L55.1728 52.8125Z" fill="#181818"/>
<path d="M229.531 217.344H30.4688C23.7494 217.344 18.2812 211.876 18.2812 205.156V62.9688C18.2812 56.2494 23.7494 50.7812 30.4688 50.7812H40.625C41.7463 50.7812 42.6562 51.6913 42.6562 52.8125C42.6562 53.9337 41.7463 54.8438 40.625 54.8438H30.4688C25.9878 54.8438 22.3438 58.4878 22.3438 62.9688V205.156C22.3438 209.637 25.9878 213.281 30.4688 213.281H229.531C234.012 213.281 237.656 209.637 237.656 205.156V62.9688C237.656 58.4878 234.012 54.8438 229.531 54.8438H105.625C104.504 54.8438 103.594 53.9337 103.594 52.8125C103.594 51.6913 104.504 50.7812 105.625 50.7812H229.531C236.251 50.7812 241.719 56.2494 241.719 62.9688V205.156C241.719 211.876 236.251 217.344 229.531 217.344Z" fill="#181818"/>
<path d="M130 192.969C101.022 192.969 75.0506 177.267 58.3619 164.097C40.365 149.89 29.3312 135.907 28.8681 135.318C28.2912 134.578 28.2912 133.547 28.8681 132.811C29.3272 132.222 40.365 118.239 58.3619 104.032C75.0506 90.8578 101.022 75.1562 130 75.1562C158.978 75.1562 184.949 90.8578 201.638 104.028C219.635 118.235 230.669 132.218 231.132 132.807C231.709 133.547 231.709 134.578 231.132 135.314C230.673 135.903 219.635 149.886 201.638 164.092C184.949 177.267 158.978 192.969 130 192.969ZM33.0931 134.062C40.0319 142.358 81.1809 188.906 130 188.906C178.852 188.906 219.968 142.362 226.907 134.062C219.968 125.767 178.819 79.2188 130 79.2188C81.1484 79.2188 40.0319 125.763 33.0931 134.062Z" fill="#181818"/>
<path d="M130 192.969C97.5203 192.969 71.0938 166.542 71.0938 134.062C71.0938 101.583 97.5203 75.1562 130 75.1562C162.48 75.1562 188.906 101.583 188.906 134.062C188.906 166.542 162.48 192.969 130 192.969ZM130 79.2188C99.7588 79.2188 75.1562 103.821 75.1562 134.062C75.1562 164.304 99.7588 188.906 130 188.906C160.241 188.906 184.844 164.304 184.844 134.062C184.844 103.821 160.241 79.2188 130 79.2188Z" fill="#181818"/>
<path d="M130.154 101.562C148.103 101.562 162.654 116.114 162.654 134.062H130.154V101.562Z" fill="#2E3B9F"/>
<path d="M162.658 136.094H130.158C129.037 136.094 128.127 135.184 128.127 134.062V101.562C128.127 100.441 129.037 99.5312 130.158 99.5312C149.199 99.5312 164.69 115.022 164.69 134.062C164.69 135.184 163.78 136.094 162.658 136.094ZM132.19 132.031H160.558C159.555 116.85 147.371 104.666 132.19 103.663V132.031Z" fill="#181818"/>
<path d="M130 166.721C112.052 166.721 97.5 152.169 97.5 134.221H130V166.721Z" fill="#FF8BCB"/>
<path d="M130 168.752C110.959 168.752 95.4688 153.262 95.4688 134.221C95.4688 133.1 96.3788 132.19 97.5 132.19H130C131.121 132.19 132.031 133.1 132.031 134.221V166.721C132.031 167.842 131.121 168.752 130 168.752ZM99.6003 136.252C100.604 151.434 112.787 163.617 127.969 164.621V136.252H99.6003Z" fill="#181818"/>
<path d="M227.5 87.3438C226.379 87.3438 225.469 86.4338 225.469 85.3125V67.0312H207.188C206.066 67.0312 205.156 66.1212 205.156 65C205.156 63.8788 206.066 62.9688 207.188 62.9688H227.5C228.621 62.9688 229.531 63.8788 229.531 65V85.3125C229.531 86.4338 228.621 87.3438 227.5 87.3438Z" fill="#181818"/>
</svg>
