<svg width="334" height="260" viewBox="0 0 334 260" fill="none" xmlns="http://www.w3.org/2000/svg">
<rect x="124" width="210" height="260" rx="11.04" fill="#050038" fill-opacity="0.06"/>
<g clip-path="url(#clip0_52_1036)">
<path d="M93.9737 227.212C93.4537 227.212 92.9337 227.013 92.5356 226.618C91.7434 225.826 91.7434 224.538 92.5356 223.746L105.605 210.673C107.599 208.678 109.919 207.102 112.499 205.981L137.991 194.903C144.601 192.03 150.26 187.379 154.355 181.452L191.295 128.022C191.933 127.091 193.2 126.864 194.118 127.506C195.045 128.143 195.272 129.407 194.634 130.329L157.694 183.759C153.168 190.312 146.912 195.451 139.608 198.624L114.116 209.702C112.003 210.62 110.106 211.912 108.473 213.541L95.4037 226.614C95.0137 227.013 94.4937 227.212 93.9737 227.212Z" fill="#263238"/>
<path d="M127.867 166.981C125.039 166.981 122.232 166.445 119.575 165.38L112.681 162.622C107.14 160.404 102.793 156.163 100.441 150.678L91.5683 129.976C91.1255 128.948 91.6049 127.753 92.6367 127.311C93.6564 126.86 94.8589 127.343 95.3018 128.379L104.174 149.082C106.1 153.567 109.655 157.04 114.188 158.852L121.082 161.61C124.385 162.935 127.968 163.264 131.458 162.565L138.681 161.123C142.837 160.29 146.603 158.019 149.28 154.724L171.076 127.9C171.782 127.03 173.058 126.9 173.931 127.603C174.801 128.31 174.935 129.59 174.224 130.463L152.429 157.288C149.158 161.314 144.556 164.092 139.473 165.108L132.254 166.55C130.8 166.835 129.329 166.981 127.867 166.981Z" fill="#263238"/>
<path d="M60.9375 194.175C60.4175 194.175 59.8975 193.976 59.4994 193.582C58.7072 192.79 58.7072 191.502 59.4994 190.71L69.6638 180.546C75.6803 174.529 78.6703 166.217 77.8659 157.743L75.1644 129.374C75.0588 128.257 75.8753 127.266 76.9925 127.16C78.1138 127.01 79.1009 127.871 79.2066 128.989L81.9081 157.357C82.8303 167.042 79.4138 176.544 72.5359 183.418L62.3716 193.582C61.9775 193.976 61.4575 194.175 60.9375 194.175Z" fill="#263238"/>
<path d="M29.3397 215.126L70.9925 256.778C72.5809 258.367 75.1525 258.367 76.7369 256.778L92.5359 240.979C94.1244 239.391 94.1244 236.819 92.5359 235.235L50.8831 193.578C49.2947 191.99 46.7231 191.99 45.1387 193.578L29.3397 209.377C27.7512 210.966 27.7512 213.537 29.3397 215.126Z" fill="#181818"/>
<path d="M73.8644 260C72.2353 260 70.7037 259.366 69.5541 258.217L27.9012 216.56C25.5328 214.183 25.5328 210.32 27.9012 207.943L43.7044 192.144C46.0078 189.841 50.0256 189.845 52.325 192.144L93.9737 233.797C96.3462 236.173 96.3462 240.041 93.9737 242.413L78.1747 258.213C77.0209 259.362 75.4934 260 73.8644 260ZM30.7734 213.688L72.4262 255.34C73.194 256.108 74.5306 256.108 75.2984 255.34L91.0975 239.541C91.8897 238.749 91.8897 237.461 91.0975 236.669L49.4447 195.016C48.6809 194.248 47.3444 194.253 46.5725 195.016L30.7734 210.815C29.9853 211.608 29.9853 212.895 30.7734 213.688Z" fill="#263238"/>
<path d="M229.531 123.082H30.4688C27.1091 123.082 24.375 120.347 24.375 116.988V108.863C24.375 105.503 27.1091 102.769 30.4688 102.769H229.531C232.891 102.769 235.625 105.503 235.625 108.863V116.988C235.625 120.347 232.891 123.082 229.531 123.082ZM30.4688 106.832C29.3475 106.832 28.4375 107.742 28.4375 108.863V116.988C28.4375 118.109 29.3475 119.019 30.4688 119.019H229.531C230.648 119.019 231.562 118.109 231.562 116.988V108.863C231.562 107.742 230.648 106.832 229.531 106.832H30.4688Z" fill="#263238"/>
<path d="M130.548 158.031C130.097 158.031 129.647 157.881 129.269 157.576C128.399 156.869 128.265 155.59 128.972 154.716L150.767 127.892C151.474 127.022 152.754 126.892 153.623 127.595C154.493 128.302 154.627 129.582 153.916 130.455L132.125 157.28C131.722 157.775 131.137 158.031 130.548 158.031Z" fill="#263238"/>
<path d="M213.281 215.312H209.219C208.098 215.312 207.188 214.402 207.188 213.281C207.188 212.16 208.098 211.25 209.219 211.25H213.281C214.403 211.25 215.312 212.16 215.312 213.281C215.312 214.402 214.403 215.312 213.281 215.312Z" fill="#263238"/>
<path d="M201.094 215.312H156.406C155.285 215.312 154.375 214.402 154.375 213.281C154.375 212.16 155.285 211.25 156.406 211.25H201.094C202.215 211.25 203.125 212.16 203.125 213.281C203.125 214.402 202.215 215.312 201.094 215.312Z" fill="#263238"/>
<path d="M192.969 227.5H140.156C139.035 227.5 138.125 226.59 138.125 225.469C138.125 224.348 139.035 223.438 140.156 223.438H192.969C194.09 223.438 195 224.348 195 225.469C195 226.59 194.09 227.5 192.969 227.5Z" fill="#263238"/>
<path d="M204.141 36.5625C203.267 36.5625 202.491 36.0019 202.211 35.1731L199.968 28.4375C199.034 25.6263 196.8 23.3919 193.984 22.4575L187.249 20.2069C186.42 19.9307 185.859 19.1547 185.859 18.2813C185.859 17.4078 186.42 16.6319 187.249 16.3556L193.984 14.1091C196.796 13.1747 199.03 10.9363 199.968 8.12502L202.215 1.38534C202.772 -0.272163 205.514 -0.272163 206.07 1.38534L208.313 8.12502C209.247 10.9363 211.482 13.1706 214.297 14.105L221.033 16.3516C221.861 16.6278 222.422 17.4038 222.422 18.2813C222.422 19.1588 221.861 19.9307 221.033 20.2069L214.297 22.4535C211.486 23.3878 209.251 25.6263 208.313 28.4335L206.066 35.1731C205.79 36.0019 205.014 36.5625 204.141 36.5625ZM194.309 18.2813L195.268 18.6022C199.286 19.9388 202.483 23.136 203.82 27.1538L204.137 28.1085L204.453 27.1538C205.79 23.14 208.987 19.9428 213.005 18.6022L213.972 18.2813L213.013 17.9603C208.999 16.6238 205.802 13.4266 204.462 9.41284L204.141 8.45409L203.824 9.40877C202.483 13.4266 199.286 16.6197 195.272 17.9603L194.309 18.2813Z" fill="#263238"/>
<path d="M178.75 35.7378C178.75 33.4953 176.93 31.6753 174.688 31.6753H52.8125C50.57 31.6753 48.75 33.4953 48.75 35.7378V100.738C48.75 102.98 50.57 104.8 52.8125 104.8H174.688C176.93 104.8 178.75 102.98 178.75 100.738V35.7378Z" fill="#ABEC8D"/>
<path d="M174.688 106.832H52.8125C49.4528 106.832 46.7188 104.097 46.7188 100.738V35.7378C46.7188 32.3781 49.4528 29.644 52.8125 29.644H174.688C178.047 29.644 180.781 32.3781 180.781 35.7378V100.738C180.781 104.097 178.047 106.832 174.688 106.832ZM52.8125 33.7065C51.6912 33.7065 50.7812 34.6165 50.7812 35.7378V100.738C50.7812 101.859 51.6912 102.769 52.8125 102.769H174.688C175.805 102.769 176.719 101.859 176.719 100.738V35.7378C176.719 34.6165 175.805 33.7065 174.688 33.7065H52.8125Z" fill="#263238"/>
<path d="M186.875 104.8H207.188C209.43 104.8 211.25 102.98 211.25 100.738V92.6128C211.25 90.3703 209.43 88.5503 207.188 88.5503H186.875" fill="#FF8BCB"/>
<path d="M207.188 106.832H186.875C185.754 106.832 184.844 105.922 184.844 104.8C184.844 103.679 185.754 102.769 186.875 102.769H207.188C208.305 102.769 209.219 101.859 209.219 100.738V92.6128C209.219 91.4915 208.305 90.5815 207.188 90.5815H186.875C185.754 90.5815 184.844 89.6715 184.844 88.5503C184.844 87.429 185.754 86.519 186.875 86.519H207.188C210.547 86.519 213.281 89.2531 213.281 92.6128V100.738C213.281 104.097 210.547 106.832 207.188 106.832Z" fill="#263238"/>
<path d="M186.875 88.5503H207.188C209.43 88.5503 211.25 86.7303 211.25 84.4878V76.3628C211.25 74.1203 209.43 72.3003 207.188 72.3003H186.875" fill="#FF8BCB"/>
<path d="M207.188 90.5815H186.875C185.754 90.5815 184.844 89.6715 184.844 88.5503C184.844 87.429 185.754 86.519 186.875 86.519H207.188C208.305 86.519 209.219 85.609 209.219 84.4878V76.3628C209.219 75.2415 208.305 74.3315 207.188 74.3315H186.875C185.754 74.3315 184.844 73.4215 184.844 72.3003C184.844 71.179 185.754 70.269 186.875 70.269H207.188C210.547 70.269 213.281 73.0031 213.281 76.3628V84.4878C213.281 87.8475 210.547 90.5815 207.188 90.5815Z" fill="#263238"/>
<path d="M186.875 72.3003H207.188C209.43 72.3003 211.25 70.4803 211.25 68.2378V60.1128C211.25 57.8703 209.43 56.0503 207.188 56.0503H186.875" fill="#FF8BCB"/>
<path d="M207.188 74.3315H186.875C185.754 74.3315 184.844 73.4215 184.844 72.3003C184.844 71.179 185.754 70.269 186.875 70.269H207.188C208.305 70.269 209.219 69.359 209.219 68.2378V60.1128C209.219 58.9915 208.305 58.0815 207.188 58.0815H186.875C185.754 58.0815 184.844 57.1715 184.844 56.0503C184.844 54.929 185.754 54.019 186.875 54.019H207.188C210.547 54.019 213.281 56.7531 213.281 60.1128V68.2378C213.281 71.5975 210.547 74.3315 207.188 74.3315Z" fill="#263238"/>
<path d="M113.75 92.6128C127.212 92.6128 138.125 81.6997 138.125 68.2378C138.125 54.7759 127.212 43.8628 113.75 43.8628C100.288 43.8628 89.375 54.7759 89.375 68.2378C89.375 81.6997 100.288 92.6128 113.75 92.6128Z" fill="white"/>
<path d="M113.75 94.644C99.19 94.644 87.3438 82.7978 87.3438 68.2378C87.3438 53.6778 99.19 41.8315 113.75 41.8315C128.31 41.8315 140.156 53.6778 140.156 68.2378C140.156 82.7978 128.31 94.644 113.75 94.644ZM113.75 45.894C101.428 45.894 91.4062 55.9162 91.4062 68.2378C91.4062 80.5594 101.428 90.5815 113.75 90.5815C126.072 90.5815 136.094 80.5594 136.094 68.2378C136.094 55.9162 126.072 45.894 113.75 45.894Z" fill="#263238"/>
<path d="M116.797 80.4253H105.625C104.504 80.4253 103.594 79.5153 103.594 78.394C103.594 77.2728 104.504 76.3628 105.625 76.3628H116.797C118.479 76.3628 119.844 74.9978 119.844 73.3159C119.844 71.634 118.479 70.269 116.797 70.269H110.703C106.783 70.269 103.594 67.08 103.594 63.1597C103.594 59.2394 106.783 56.0503 110.703 56.0503H119.844C120.965 56.0503 121.875 56.9603 121.875 58.0815C121.875 59.2028 120.965 60.1128 119.844 60.1128H110.703C109.021 60.1128 107.656 61.4778 107.656 63.1597C107.656 64.8415 109.021 66.2065 110.703 66.2065H116.797C120.717 66.2065 123.906 69.3956 123.906 73.3159C123.906 77.2362 120.717 80.4253 116.797 80.4253Z" fill="#263238"/>
<path d="M113.75 60.1128C112.629 60.1128 111.719 59.2028 111.719 58.0815V51.9878C111.719 50.8665 112.629 49.9565 113.75 49.9565C114.871 49.9565 115.781 50.8665 115.781 51.9878V58.0815C115.781 59.2069 114.871 60.1128 113.75 60.1128Z" fill="#263238"/>
<path d="M113.75 86.519C112.629 86.519 111.719 85.609 111.719 84.4878V78.394C111.719 77.2728 112.629 76.3628 113.75 76.3628C114.871 76.3628 115.781 77.2728 115.781 78.394V84.4878C115.781 85.6131 114.871 86.519 113.75 86.519Z" fill="#263238"/>
<path d="M153.099 94.6441H74.4006C73.6166 94.6441 72.9056 94.1931 72.5684 93.4863C69.6313 87.3356 64.5206 82.6028 58.1791 80.1694C57.3909 79.8688 56.875 79.1131 56.875 78.2722V58.2035C56.875 57.3625 57.3909 56.6069 58.1791 56.3063C64.5247 53.8688 69.6353 49.136 72.5725 42.9853C72.9097 42.2785 73.6206 41.8275 74.4047 41.8275H153.099C153.879 41.8275 154.594 42.2785 154.932 42.9853C157.869 49.14 162.975 53.8688 169.325 56.3063C170.105 56.6069 170.625 57.3625 170.625 58.2035V78.2722C170.625 79.1131 170.105 79.8688 169.325 80.1694C162.979 82.6069 157.869 87.3397 154.932 93.4863C154.594 94.1931 153.879 94.6441 153.099 94.6441ZM75.6559 90.5816H151.844C155.082 84.4675 160.237 79.6778 166.562 76.9113V59.5644C160.237 56.7978 155.082 52.0081 151.844 45.8941H75.6559C72.4181 52.0081 67.2628 56.8019 60.9375 59.5644V76.9113C67.2587 79.6778 72.4181 84.4675 75.6559 90.5816Z" fill="#263238"/>
</g>
<defs>
<clipPath id="clip0_52_1036">
<rect width="260" height="260" fill="white"/>
</clipPath>
</defs>
</svg>
