<svg width="300" height="260" viewBox="0 0 300 260" fill="none" xmlns="http://www.w3.org/2000/svg">
<rect x="90" width="210" height="260" rx="11.04" fill="#050038" fill-opacity="0.06"/>
<path d="M67.8125 67.0312C66.6913 67.0312 65.7812 66.1213 65.7812 65V48.75C65.7812 47.6288 66.6913 46.7188 67.8125 46.7188C68.9337 46.7188 69.8438 47.6288 69.8438 48.75V65C69.8438 66.1213 68.9337 67.0312 67.8125 67.0312Z" fill="#181818"/>
<path d="M75.9375 58.9062H59.6875C58.5663 58.9062 57.6562 57.9962 57.6562 56.875C57.6562 55.7538 58.5663 54.8438 59.6875 54.8438H75.9375C77.0588 54.8438 77.9688 55.7538 77.9688 56.875C77.9688 57.9962 77.0588 58.9062 75.9375 58.9062Z" fill="#181818"/>
<path d="M39.375 38.5938C38.2538 38.5938 37.3438 37.6838 37.3438 36.5625V20.3125C37.3438 19.1913 38.2538 18.2812 39.375 18.2812C40.4962 18.2812 41.4062 19.1913 41.4062 20.3125V36.5625C41.4062 37.6838 40.4962 38.5938 39.375 38.5938Z" fill="#181818"/>
<path d="M47.5 30.4688H31.25C30.1288 30.4688 29.2188 29.5587 29.2188 28.4375C29.2188 27.3163 30.1288 26.4062 31.25 26.4062H47.5C48.6213 26.4062 49.5312 27.3163 49.5312 28.4375C49.5312 29.5587 48.6213 30.4688 47.5 30.4688Z" fill="#181818"/>
<path d="M193.08 91.4063L201.209 83.2772C202.992 81.4938 203.155 78.7597 201.566 77.1713L149.859 25.4678C148.27 23.8794 145.54 24.0419 143.753 25.8253L78.1759 91.4063" fill="#ABEC8D"/>
<path d="M193.08 93.4375C192.56 93.4375 192.04 93.2384 191.642 92.8444C190.849 92.0522 190.849 90.7644 191.642 89.9722L199.767 81.8431C200.278 81.3313 200.579 80.6894 200.62 80.0353C200.636 79.7103 200.599 79.0928 200.124 78.6134L148.425 26.9019C147.628 26.1138 146.178 26.2763 145.191 27.2634L79.61 92.8444C78.8178 93.6366 77.53 93.6366 76.7378 92.8444C75.9456 92.0522 75.9456 90.7644 76.7378 89.9722L142.319 24.3913C143.533 23.1766 145.114 22.4494 146.763 22.3559C148.522 22.2666 150.119 22.8475 151.297 24.0297L203.004 75.7413C205.377 78.1178 205.218 82.1397 202.647 84.7153L194.522 92.8444C194.12 93.2384 193.6 93.4375 193.08 93.4375Z" fill="#181818"/>
<path d="M71.875 225.469H61.7188C60.5975 225.469 59.6875 224.559 59.6875 223.438C59.6875 222.316 60.5975 221.406 61.7188 221.406H71.875C72.9963 221.406 73.9062 222.316 73.9062 223.438C73.9062 224.559 72.9963 225.469 71.875 225.469Z" fill="#181818"/>
<path d="M92.1875 225.469H82.0312C80.91 225.469 80 224.559 80 223.438C80 222.316 80.91 221.406 82.0312 221.406H92.1875C93.3088 221.406 94.2188 222.316 94.2188 223.438C94.2188 224.559 93.3088 225.469 92.1875 225.469Z" fill="#181818"/>
<path d="M112.5 225.469H102.344C101.223 225.469 100.312 224.559 100.312 223.438C100.312 222.316 101.223 221.406 102.344 221.406H112.5C113.621 221.406 114.531 222.316 114.531 223.438C114.531 224.559 113.621 225.469 112.5 225.469Z" fill="#181818"/>
<path d="M132.812 225.469H122.656C121.535 225.469 120.625 224.559 120.625 223.438C120.625 222.316 121.535 221.406 122.656 221.406H132.812C133.934 221.406 134.844 222.316 134.844 223.438C134.844 224.559 133.934 225.469 132.812 225.469Z" fill="#181818"/>
<path d="M153.125 225.469H142.969C141.848 225.469 140.938 224.559 140.938 223.438C140.938 222.316 141.848 221.406 142.969 221.406H153.125C154.246 221.406 155.156 222.316 155.156 223.438C155.156 224.559 154.246 225.469 153.125 225.469Z" fill="#181818"/>
<path d="M173.438 225.469H163.281C162.16 225.469 161.25 224.559 161.25 223.438C161.25 222.316 162.16 221.406 163.281 221.406H173.438C174.559 221.406 175.469 222.316 175.469 223.438C175.469 224.559 174.559 225.469 173.438 225.469Z" fill="#181818"/>
<path d="M193.75 225.469H183.594C182.473 225.469 181.562 224.559 181.562 223.438C181.562 222.316 182.473 221.406 183.594 221.406H193.75C194.871 221.406 195.781 222.316 195.781 223.438C195.781 224.559 194.871 225.469 193.75 225.469Z" fill="#181818"/>
<path d="M214.062 225.469H203.906C202.785 225.469 201.875 224.559 201.875 223.438C201.875 222.316 202.785 221.406 203.906 221.406H214.062C215.184 221.406 216.094 222.316 216.094 223.438C216.094 224.559 215.184 225.469 214.062 225.469Z" fill="#181818"/>
<path d="M216.094 241.719H59.6875C52.9681 241.719 47.5 236.251 47.5 229.531V109.688C47.5 102.968 52.9681 97.5 59.6875 97.5H216.094C222.813 97.5 228.281 102.968 228.281 109.688V142.188C228.281 143.309 227.371 144.219 226.25 144.219C225.129 144.219 224.219 143.309 224.219 142.188V109.688C224.219 105.207 220.575 101.562 216.094 101.562H59.6875C55.2066 101.562 51.5625 105.207 51.5625 109.688V229.531C51.5625 234.012 55.2066 237.656 59.6875 237.656H216.094C220.575 237.656 224.219 234.012 224.219 229.531V199.062C224.219 197.941 225.129 197.031 226.25 197.031C227.371 197.031 228.281 197.941 228.281 199.062V229.531C228.281 236.251 222.813 241.719 216.094 241.719Z" fill="#181818"/>
<path d="M232.344 186.875H179.531C177.289 186.875 175.469 185.055 175.469 182.812V158.438C175.469 156.195 177.289 154.375 179.531 154.375H232.344C234.586 154.375 236.406 156.195 236.406 158.438V182.812C236.406 185.055 234.586 186.875 232.344 186.875Z" fill="#FF8BCB"/>
<path d="M232.344 188.906H179.531C176.172 188.906 173.438 186.172 173.438 182.812V158.438C173.438 155.078 176.172 152.344 179.531 152.344H232.344C235.703 152.344 238.438 155.078 238.438 158.438V182.812C238.438 186.172 235.703 188.906 232.344 188.906ZM179.531 156.406C178.41 156.406 177.5 157.32 177.5 158.438V182.812C177.5 183.93 178.41 184.844 179.531 184.844H232.344C233.465 184.844 234.375 183.93 234.375 182.812V158.438C234.375 157.32 233.465 156.406 232.344 156.406H179.531Z" fill="#181818"/>
<path d="M191.719 178.75C196.206 178.75 199.844 175.112 199.844 170.625C199.844 166.138 196.206 162.5 191.719 162.5C187.231 162.5 183.594 166.138 183.594 170.625C183.594 175.112 187.231 178.75 191.719 178.75Z" fill="white"/>
<path d="M191.719 180.781C186.121 180.781 181.562 176.227 181.562 170.625C181.562 165.023 186.121 160.469 191.719 160.469C197.317 160.469 201.875 165.023 201.875 170.625C201.875 176.227 197.317 180.781 191.719 180.781ZM191.719 164.531C188.359 164.531 185.625 167.265 185.625 170.625C185.625 173.985 188.359 176.719 191.719 176.719C195.078 176.719 197.812 173.985 197.812 170.625C197.812 167.265 195.078 164.531 191.719 164.531Z" fill="#181818"/>
<path d="M214.062 134.062C212.941 134.062 212.031 133.153 212.031 132.031V115.781C212.031 114.664 211.121 113.75 210 113.75H193.75C192.629 113.75 191.719 112.84 191.719 111.719C191.719 110.598 192.629 109.688 193.75 109.688H210C213.36 109.688 216.094 112.422 216.094 115.781V132.031C216.094 133.153 215.184 134.062 214.062 134.062Z" fill="#181818"/>
<path d="M149.936 91.4063C148.559 88.331 146.641 85.4426 144.118 82.9198C133.011 71.8129 115.006 71.8129 103.9 82.9198C101.377 85.4426 99.4552 88.331 98.082 91.4063" fill="white"/>
<path d="M149.935 93.4375C149.16 93.4375 148.416 92.9907 148.079 92.235C146.746 89.2613 144.93 86.6085 142.676 84.3578C132.381 74.0675 115.628 74.0675 105.333 84.3578C103.083 86.6125 101.263 89.2613 99.9301 92.235C99.4711 93.2547 98.2686 93.73 97.2448 93.2588C96.2211 92.8038 95.762 91.6013 96.2211 90.5775C97.7567 87.1447 99.857 84.0857 102.461 81.4857C114.34 69.611 133.669 69.6069 145.548 81.4857C148.152 84.0897 150.248 87.1488 151.788 90.5775C152.247 91.6013 151.788 92.8038 150.764 93.2588C150.496 93.3807 150.212 93.4375 149.935 93.4375Z" fill="#181818"/>
<path d="M174.497 93.4375C173.632 93.4375 172.828 92.8809 172.556 92.0075C170.48 85.345 170.723 78.2275 173.23 71.8169L155.217 53.8038C148.794 56.3225 141.758 56.5866 135.144 54.5431L105.337 84.3538C104.545 85.1459 103.257 85.1459 102.465 84.3538C101.673 83.5616 101.673 82.2737 102.465 81.4816L133.157 50.7853C133.71 50.2247 134.531 50.0541 135.274 50.3059C141.697 52.585 148.656 52.3169 154.871 49.5463C155.635 49.205 156.537 49.3716 157.134 49.9688L177.069 69.9034C177.662 70.4966 177.833 71.3984 177.491 72.1663C174.891 78.0081 174.522 84.6219 176.443 90.8009C176.776 91.8734 176.179 93.0109 175.107 93.3441C174.9 93.4091 174.696 93.4375 174.497 93.4375Z" fill="#181818"/>
<path d="M258.75 24.375H254.688C253.566 24.375 252.656 23.465 252.656 22.3438C252.656 21.2225 253.566 20.3125 254.688 20.3125H258.75C259.871 20.3125 260.781 21.2225 260.781 22.3438C260.781 23.465 259.871 24.375 258.75 24.375Z" fill="#181818"/>
<path d="M246.562 24.375H201.875C200.754 24.375 199.844 23.465 199.844 22.3438C199.844 21.2225 200.754 20.3125 201.875 20.3125H246.562C247.684 20.3125 248.594 21.2225 248.594 22.3438C248.594 23.465 247.684 24.375 246.562 24.375Z" fill="#181818"/>
<path d="M238.438 36.5625H185.625C184.504 36.5625 183.594 35.6525 183.594 34.5312C183.594 33.41 184.504 32.5 185.625 32.5H238.438C239.559 32.5 240.469 33.41 240.469 34.5312C240.469 35.6525 239.559 36.5625 238.438 36.5625Z" fill="#181818"/>
</svg>
