<svg width="324" height="104" viewBox="0 0 324 104" fill="none" xmlns="http://www.w3.org/2000/svg">
<g clip-path="url(#clip0_230_323)">
<path d="M300.51 10.1122V22.526C300.51 27.0966 303.081 30.8019 306.252 30.8019H317.258C320.429 30.8019 323 34.5071 323 39.0777V67.6984V93.5605C323 98.1311 320.429 101.836 317.258 101.836H184.708H5.74222C2.57062 101.836 0 98.1311 0 93.5605V72.8708C0 68.3002 2.57062 64.595 5.74222 64.595H23.9259C27.0975 64.595 29.6682 60.8897 29.6682 56.3191V48.7329C29.6682 44.1623 27.0975 40.4571 23.9259 40.4571H12.4415C9.26987 40.4571 6.69925 36.7518 6.69925 32.1812V10.1122C6.69925 5.54159 9.26987 1.83636 12.4415 1.83636H294.767C297.939 1.83636 300.51 5.54159 300.51 10.1122Z" fill="#F8F8F8" stroke="black"/>
<path d="M312.928 1.7934H322.089C322.617 1.7934 323.045 2.22186 323.045 2.75039V11.9239C323.045 12.7765 322.015 13.2035 321.413 12.6006L312.252 3.42708C311.65 2.82421 312.076 1.7934 312.928 1.7934Z" fill="black"/>
</g>
<path d="M80.9455 31.4478V19.8115H85.2218C86.5018 19.8115 87.4473 20.0345 88.0582 20.4805C88.6691 20.9266 88.9745 21.6151 88.9745 22.546V23.0842C88.9745 23.6757 88.8339 24.1315 88.5527 24.4515C88.2812 24.7715 87.8594 24.9799 87.2873 25.0769V25.4987C87.937 25.5666 88.4412 25.7993 88.8 26.1969C89.1588 26.5848 89.3382 27.0793 89.3382 27.6805V28.4078C89.3382 29.4454 89.0036 30.2115 88.3345 30.706C87.6655 31.2005 86.6279 31.4478 85.2218 31.4478H80.9455ZM83.4182 24.5533H85.0618C85.5855 24.5533 85.9588 24.466 86.1818 24.2915C86.4145 24.1072 86.5309 23.8066 86.5309 23.3896V22.7787C86.5309 22.3618 86.4145 22.066 86.1818 21.8915C85.9588 21.7169 85.5855 21.6296 85.0618 21.6296H83.4182V24.5533ZM83.4182 29.6296H85.1055C85.7455 29.6296 86.1964 29.5278 86.4582 29.3242C86.7297 29.1108 86.8655 28.7569 86.8655 28.2624V27.5933C86.8655 27.1084 86.7297 26.7642 86.4582 26.5605C86.1964 26.3472 85.7455 26.2405 85.1055 26.2405H83.4182V29.6296ZM95.2784 31.5933C93.8627 31.5933 92.8154 31.2539 92.1366 30.5751C91.4675 29.8866 91.133 28.8345 91.133 27.4187V19.8115H93.6057V27.3169C93.6057 28.1702 93.7317 28.7618 93.9839 29.0915C94.2457 29.4115 94.6772 29.5715 95.2784 29.5715C95.8796 29.5715 96.3063 29.4115 96.5584 29.0915C96.8202 28.7618 96.9511 28.1702 96.9511 27.3169V19.8115H99.4239V27.4187C99.4239 28.8345 99.0845 29.8866 98.4057 30.5751C97.7366 31.2539 96.6942 31.5933 95.2784 31.5933ZM103.793 25.3387H105.684C106.305 25.3387 106.736 25.2369 106.979 25.0333C107.231 24.8199 107.357 24.4515 107.357 23.9278V23.0987C107.357 22.6042 107.231 22.2551 106.979 22.0515C106.736 21.8381 106.305 21.7315 105.684 21.7315H103.793V25.3387ZM103.793 31.4478H101.32V19.8115H106.004C107.274 19.8115 108.21 20.083 108.811 20.626C109.422 21.1593 109.728 21.9448 109.728 22.9824V23.986C109.728 24.8296 109.539 25.5084 109.16 26.0224C108.792 26.5266 108.23 26.8708 107.473 27.0551L110.062 31.4478H107.444L104.971 27.2442H103.793V31.4478ZM116.803 31.4478L113.632 23.1569V31.4478H111.508V19.8115H114.315L117.675 28.5969V19.8115H119.799V31.4478H116.803Z" fill="#181818"/>
<path d="M64 15.4478H52V17.4478H50V19.4478H48V21.4478H46V33.4478H48V35.4478H50V37.4478H52V39.4478H64V37.4478H66V35.4478H68V33.4478H70V21.4478H68V19.4478H66V17.4478H64V15.4478Z" fill="#FDA21A"/>
<path opacity="0.6" d="M49.7091 63.5569C48.5891 63.5569 47.8291 63.3496 47.4291 62.9351C47.0364 62.5205 46.8145 61.9024 46.7636 61.0805L47.8545 60.9715C47.9273 61.626 48.0836 62.0624 48.3236 62.2805C48.5636 62.4915 49.0255 62.5969 49.7091 62.5969C50.4364 62.5969 50.9455 62.4842 51.2364 62.2587C51.5273 62.0333 51.6727 61.6405 51.6727 61.0805V60.786C51.6727 60.2405 51.5345 59.8587 51.2582 59.6405C50.9818 59.4151 50.5018 59.3024 49.8182 59.3024H48.7273V58.3205H49.8182C50.4218 58.3205 50.8436 58.2369 51.0836 58.0696C51.3309 57.8951 51.4545 57.5933 51.4545 57.1642V56.8151C51.4545 56.3569 51.3236 56.0369 51.0618 55.8551C50.8073 55.666 50.3564 55.5715 49.7091 55.5715C49.1418 55.5715 48.7418 55.6733 48.5091 55.8769C48.2764 56.0805 48.1309 56.466 48.0727 57.0333L46.9818 56.9242C47.0327 56.1024 47.28 55.5133 47.7236 55.1569C48.1745 54.7933 48.8364 54.6115 49.7091 54.6115C50.5891 54.6115 51.28 54.7824 51.7818 55.1242C52.2909 55.466 52.5455 56.0296 52.5455 56.8151V57.1642C52.5455 57.6005 52.3927 57.946 52.0873 58.2005C51.7891 58.4551 51.3709 58.6005 50.8327 58.6369V58.9533C51.48 59.0042 51.9636 59.2042 52.2836 59.5533C52.6036 59.9024 52.7636 60.3133 52.7636 60.786V61.0805C52.7636 61.866 52.5345 62.4769 52.0764 62.9133C51.6255 63.3424 50.8364 63.5569 49.7091 63.5569ZM57.2188 63.5569C56.2588 63.5569 55.5279 63.2369 55.0261 62.5969C54.5243 61.9496 54.2734 61.0078 54.2734 59.7715V58.4405C54.2734 57.1896 54.5243 56.2405 55.0261 55.5933C55.5279 54.9387 56.2624 54.6115 57.2297 54.6115C58.1897 54.6115 58.917 54.9387 59.4115 55.5933C59.9134 56.2405 60.1643 57.1896 60.1643 58.4405V59.7715C60.1643 61.0078 59.9134 61.9496 59.4115 62.5969C58.9097 63.2369 58.1788 63.5569 57.2188 63.5569ZM57.2188 62.5751C57.8806 62.5751 58.3534 62.3569 58.637 61.9205C58.9279 61.4842 59.0734 60.7678 59.0734 59.7715V58.4405C59.0734 57.4224 58.9279 56.6951 58.637 56.2587C58.3534 55.8151 57.8806 55.5933 57.2188 55.5933C56.557 55.5933 56.0806 55.8151 55.7897 56.2587C55.5061 56.6951 55.3643 57.4224 55.3643 58.4405V59.7715C55.3643 60.7678 55.5061 61.4842 55.7897 61.9205C56.0806 62.3569 56.557 62.5751 57.2188 62.5751ZM57.2188 59.9351C56.9861 59.9351 56.797 59.8951 56.6515 59.8151C56.5061 59.7351 56.4334 59.5824 56.4334 59.3569V58.8224C56.4334 58.6042 56.5061 58.4551 56.6515 58.3751C56.797 58.2878 56.9861 58.2442 57.2188 58.2442C57.4515 58.2442 57.637 58.2878 57.7752 58.3751C57.9206 58.4551 57.9934 58.6042 57.9934 58.8224V59.3569C57.9934 59.5824 57.9206 59.7351 57.7752 59.8151C57.6297 59.8951 57.4443 59.9351 57.2188 59.9351ZM62.9285 58.5605C62.4267 58.5605 62.0194 58.4224 61.7067 58.146C61.394 57.8696 61.2376 57.4442 61.2376 56.8696V56.2151C61.2376 55.6333 61.394 55.2042 61.7067 54.9278C62.0194 54.6442 62.4267 54.5024 62.9285 54.5024C63.4303 54.5024 63.834 54.6442 64.1394 54.9278C64.4522 55.2042 64.6085 55.6333 64.6085 56.2151V56.8696C64.6085 57.4442 64.4522 57.8696 64.1394 58.146C63.834 58.4224 63.4303 58.5605 62.9285 58.5605ZM62.9285 57.6769C63.1467 57.6769 63.3176 57.6151 63.4413 57.4915C63.5649 57.3678 63.6267 57.1678 63.6267 56.8915V56.1933C63.6267 55.9169 63.5649 55.7133 63.4413 55.5824C63.3176 55.4515 63.1467 55.386 62.9285 55.386C62.7103 55.386 62.5358 55.4515 62.4049 55.5824C62.2813 55.7133 62.2194 55.9169 62.2194 56.1933V56.8915C62.2194 57.1678 62.2813 57.3678 62.4049 57.4915C62.5358 57.6151 62.7103 57.6769 62.9285 57.6769ZM61.2922 61.6151L67.4013 55.8442L68.0013 56.4769L61.8813 62.2478L61.2922 61.6151ZM66.3213 63.6878C65.8194 63.6878 65.4122 63.5496 65.0994 63.2733C64.7867 62.9969 64.6303 62.5715 64.6303 61.9969V61.3424C64.6303 60.7605 64.7867 60.3315 65.0994 60.0551C65.4122 59.7715 65.8194 59.6296 66.3213 59.6296C66.8231 59.6296 67.2267 59.7715 67.5322 60.0551C67.8449 60.3315 68.0013 60.7605 68.0013 61.3424V61.9969C68.0013 62.5715 67.8449 62.9969 67.5322 63.2733C67.2267 63.5496 66.8231 63.6878 66.3213 63.6878ZM66.3213 62.8042C66.5394 62.8042 66.7103 62.7424 66.834 62.6187C66.9576 62.4951 67.0194 62.2951 67.0194 62.0187V61.3205C67.0194 61.0442 66.9576 60.8405 66.834 60.7096C66.7103 60.5787 66.5394 60.5133 66.3213 60.5133C66.1031 60.5133 65.9285 60.5787 65.7976 60.7096C65.674 60.8405 65.6122 61.0442 65.6122 61.3205V62.0187C65.6122 62.2951 65.674 62.4951 65.7976 62.6187C65.9285 62.7424 66.1031 62.8042 66.3213 62.8042ZM80.708 63.4478L79.4207 58.2442L78.1334 63.4478H77.0425L75.8643 54.7205H76.9443L77.7298 61.8442L78.8752 56.9024H80.0207L81.1661 61.8442L81.9516 54.7205H82.977L81.7989 63.4478H80.708ZM84.094 63.4478V62.466H86.2759V55.7024H84.094V54.7205H89.5486V55.7024H87.3668V62.466H89.5486V63.4478H84.094ZM92.0401 63.4478V54.7205H93.131V62.466H96.9492V63.4478H92.0401ZM99.4407 63.4478V54.7205H100.532V62.466H104.35V63.4478H99.4407ZM113.697 63.4478V54.7205H116.402C117.311 54.7205 117.98 54.8878 118.409 55.2224C118.846 55.5569 119.064 56.0733 119.064 56.7715V57.2624C119.064 57.6333 118.958 57.946 118.747 58.2005C118.537 58.4478 118.246 58.6042 117.875 58.6696V58.986C118.347 59.0296 118.722 59.2078 118.998 59.5205C119.275 59.8333 119.413 60.2369 119.413 60.7315V61.2224C119.413 61.9787 119.173 62.5387 118.693 62.9024C118.213 63.266 117.475 63.4478 116.478 63.4478H113.697ZM114.787 58.4296H116.511C117.027 58.4296 117.402 58.3351 117.635 58.146C117.875 57.9496 117.995 57.6405 117.995 57.2187V56.9133C117.995 56.4915 117.875 56.186 117.635 55.9969C117.402 55.8005 117.027 55.7024 116.511 55.7024H114.787V58.4296ZM114.787 62.466H116.729C117.282 62.466 117.686 62.3605 117.94 62.1496C118.195 61.9315 118.322 61.5824 118.322 61.1024V60.7533C118.322 60.2733 118.195 59.9278 117.94 59.7169C117.686 59.4987 117.282 59.3896 116.729 59.3896H114.787V62.466ZM121.097 63.4478V54.7205H126.77V55.7024H122.188V58.2115H126.224V59.1933H122.188V62.466H126.77V63.4478H121.097ZM135.898 63.4478V54.7205H138.604C139.513 54.7205 140.182 54.8878 140.611 55.2224C141.048 55.5569 141.266 56.0733 141.266 56.7715V57.2624C141.266 57.6333 141.16 57.946 140.949 58.2005C140.738 58.4478 140.448 58.6042 140.077 58.6696V58.986C140.549 59.0296 140.924 59.2078 141.2 59.5205C141.477 59.8333 141.615 60.2369 141.615 60.7315V61.2224C141.615 61.9787 141.375 62.5387 140.895 62.9024C140.415 63.266 139.677 63.4478 138.68 63.4478H135.898ZM136.989 58.4296H138.713C139.229 58.4296 139.604 58.3351 139.837 58.146C140.077 57.9496 140.197 57.6405 140.197 57.2187V56.9133C140.197 56.4915 140.077 56.186 139.837 55.9969C139.604 55.8005 139.229 55.7024 138.713 55.7024H136.989V58.4296ZM136.989 62.466H138.931C139.484 62.466 139.888 62.3605 140.142 62.1496C140.397 61.9315 140.524 61.5824 140.524 61.1024V60.7533C140.524 60.2733 140.397 59.9278 140.142 59.7169C139.888 59.4987 139.484 59.3896 138.931 59.3896H136.989V62.466ZM146.026 63.5569C145.117 63.5569 144.434 63.2987 143.975 62.7824C143.524 62.2587 143.299 61.4733 143.299 60.426V54.7205H144.39V60.426C144.39 61.2042 144.514 61.7569 144.761 62.0842C145.015 62.4115 145.437 62.5751 146.026 62.5751C146.615 62.5751 147.034 62.4115 147.281 62.0842C147.535 61.7569 147.663 61.2042 147.663 60.426V54.7205H148.754V60.426C148.754 61.4733 148.524 62.2587 148.066 62.7824C147.615 63.2987 146.935 63.5569 146.026 63.5569ZM151.791 59.106H153.972C154.561 59.106 154.98 59.0005 155.227 58.7896C155.481 58.5715 155.609 58.2078 155.609 57.6987V57.0224C155.609 56.5424 155.481 56.2042 155.227 56.0078C154.98 55.8042 154.561 55.7024 153.972 55.7024H151.791V59.106ZM151.791 63.4478H150.7V54.7205H153.983C154.892 54.7205 155.572 54.9133 156.023 55.2987C156.474 55.6769 156.7 56.2515 156.7 57.0224V57.6987C156.7 58.3969 156.521 58.9424 156.165 59.3351C155.816 59.7278 155.281 59.9605 154.561 60.0333L156.798 63.4478H155.554L153.34 60.066H151.791V63.4478ZM161.995 63.4478L159.082 56.0951V63.4478H158.1V54.7205H159.595L162.573 62.2369V54.7205H163.555V63.4478H161.995ZM165.501 63.4478V54.7205H171.174V55.7024H166.592V58.2115H170.628V59.1933H166.592V62.466H171.174V63.4478H165.501ZM172.902 63.4478V54.7205H175.312C176.331 54.7205 177.127 55.0115 177.702 55.5933C178.283 56.1678 178.574 56.9351 178.574 57.8951V60.3169C178.574 61.2696 178.283 62.0296 177.702 62.5969C177.12 63.1642 176.32 63.4478 175.302 63.4478H172.902ZM173.992 62.466H175.302C176.036 62.466 176.582 62.2696 176.938 61.8769C177.302 61.4769 177.483 60.9569 177.483 60.3169V57.8951C177.483 57.2624 177.302 56.7387 176.938 56.3242C176.582 55.9096 176.036 55.7024 175.302 55.7024H173.992V62.466ZM189.885 63.4478V55.7024H187.157V54.7205H193.703V55.7024H190.976V63.4478H189.885ZM197.831 63.5569C196.871 63.5569 196.14 63.2915 195.638 62.7605C195.136 62.2224 194.885 61.4442 194.885 60.426V57.786C194.885 56.7533 195.136 55.9678 195.638 55.4296C196.147 54.8842 196.882 54.6115 197.842 54.6115C198.794 54.6115 199.522 54.8842 200.023 55.4296C200.525 55.9678 200.776 56.7533 200.776 57.786V60.426C200.776 61.4442 200.525 62.2224 200.023 62.7605C199.522 63.2915 198.791 63.5569 197.831 63.5569ZM197.831 62.5751C198.5 62.5751 198.976 62.4115 199.26 62.0842C199.543 61.7569 199.685 61.2042 199.685 60.426V57.786C199.685 56.9933 199.543 56.4296 199.26 56.0951C198.976 55.7605 198.5 55.5933 197.831 55.5933C197.162 55.5933 196.685 55.7605 196.402 56.0951C196.118 56.4296 195.976 56.9933 195.976 57.786V60.426C195.976 61.2042 196.118 61.7569 196.402 62.0842C196.685 62.4115 197.162 62.5751 197.831 62.5751ZM212.108 61.266L210.559 56.4769V63.4478H209.577V54.7205H211.05L212.665 59.9678L214.268 54.7205H215.686V63.4478H214.705V56.466L213.156 61.266H212.108ZM221.222 59.9569L220.022 55.9533L218.811 59.9569H221.222ZM222.269 63.4478L221.516 60.9387H218.516L217.763 63.4478H216.651L219.465 54.7205H220.611L223.425 63.4478H222.269ZM224.706 63.4478V62.466H226.888V55.7024H224.706V54.7205H230.16V55.7024H227.979V62.466H230.16V63.4478H224.706ZM236.001 63.4478L233.088 56.0951V63.4478H232.107V54.7205H233.601L236.579 62.2369V54.7205H237.561V63.4478H236.001ZM241.689 63.4478V55.7024H238.962V54.7205H245.507V55.7024H242.78V63.4478H241.689ZM250.824 59.9569L249.624 55.9533L248.413 59.9569H250.824ZM251.871 63.4478L251.119 60.9387H248.119L247.366 63.4478H246.253L249.068 54.7205H250.213L253.028 63.4478H251.871ZM254.308 63.4478V62.466H256.49V55.7024H254.308V54.7205H259.763V55.7024H257.581V62.466H259.763V63.4478H254.308ZM265.604 63.4478L262.691 56.0951V63.4478H261.709V54.7205H263.204L266.182 62.2369V54.7205H267.164V63.4478H265.604ZM47.6364 81.4478V72.7205H48.7273V80.466H52.5455V81.4478H47.6364ZM54.4915 81.4478V80.466H56.6734V73.7024H54.4915V72.7205H59.9461V73.7024H57.7643V80.466H59.9461V81.4478H54.4915ZM67.8922 83.5315C66.8158 83.7642 65.9867 83.7096 65.4049 83.3678C64.8303 83.0333 64.5322 82.4296 64.5103 81.5569C63.5794 81.5351 62.874 81.2587 62.394 80.7278C61.914 80.1969 61.674 79.4296 61.674 78.426V75.786C61.674 74.746 61.9213 73.9569 62.4158 73.4187C62.9176 72.8805 63.6558 72.6115 64.6303 72.6115C65.5976 72.6115 66.3285 72.8805 66.8231 73.4187C67.3176 73.9569 67.5649 74.746 67.5649 75.786V78.426C67.5649 79.2624 67.3976 79.9351 67.0631 80.4442C66.7358 80.9533 66.2485 81.2878 65.6013 81.4478C65.6158 81.9642 65.794 82.3096 66.1358 82.4842C66.4776 82.666 67.0085 82.6878 67.7285 82.5496L67.8922 83.5315ZM64.6194 80.466C65.2885 80.466 65.7649 80.3096 66.0485 79.9969C66.3322 79.6842 66.474 79.1605 66.474 78.426V75.786C66.474 75.0369 66.3322 74.5024 66.0485 74.1824C65.7649 73.8624 65.2885 73.7024 64.6194 73.7024C63.9503 73.7024 63.474 73.8624 63.1903 74.1824C62.9067 74.5024 62.7649 75.0369 62.7649 75.786V78.426C62.7649 79.1605 62.9067 79.6842 63.1903 79.9969C63.474 80.3096 63.9503 80.466 64.6194 80.466ZM72.0201 81.5569C71.111 81.5569 70.4273 81.2987 69.9691 80.7824C69.5182 80.2587 69.2928 79.4733 69.2928 78.426V72.7205H70.3837V78.426C70.3837 79.2042 70.5073 79.7569 70.7546 80.0842C71.0091 80.4115 71.431 80.5751 72.0201 80.5751C72.6091 80.5751 73.0273 80.4115 73.2746 80.0842C73.5291 79.7569 73.6564 79.2042 73.6564 78.426V72.7205H74.7473V78.426C74.7473 79.4733 74.5182 80.2587 74.0601 80.7824C73.6091 81.2987 72.9291 81.5569 72.0201 81.5569ZM76.6934 81.4478V80.466H78.8752V73.7024H76.6934V72.7205H82.148V73.7024H79.9661V80.466H82.148V81.4478H76.6934ZM84.094 81.4478V72.7205H86.5049C87.5231 72.7205 88.3195 73.0115 88.894 73.5933C89.4759 74.1678 89.7668 74.9351 89.7668 75.8951V78.3169C89.7668 79.2696 89.4759 80.0296 88.894 80.5969C88.3122 81.1642 87.5122 81.4478 86.494 81.4478H84.094ZM85.1849 80.466H86.494C87.2286 80.466 87.774 80.2696 88.1304 79.8769C88.494 79.4769 88.6759 78.9569 88.6759 78.3169V75.8951C88.6759 75.2624 88.494 74.7387 88.1304 74.3242C87.774 73.9096 87.2286 73.7024 86.494 73.7024H85.1849V80.466ZM91.4947 81.4478V80.466H93.6765V73.7024H91.4947V72.7205H96.9492V73.7024H94.7674V80.466H96.9492V81.4478H91.4947ZM101.077 81.4478V73.7024H98.3498V72.7205H104.895V73.7024H102.168V81.4478H101.077ZM109.569 81.4478H108.478V78.1751L105.358 72.7205H106.58L109.089 77.1933L111.478 72.7205H112.678L109.569 78.1751V81.4478Z" fill="#181818"/>
<defs>
<clipPath id="clip0_230_323">
<rect width="324" height="101" fill="white" transform="matrix(-1 0 0 1 324 0.836365)"/>
</clipPath>
</defs>
</svg>
