<svg width="726" height="706" viewBox="0 0 726 706" fill="none" xmlns="http://www.w3.org/2000/svg">
<g opacity="0.1">
<path d="M222.59 261.104L362 194.136L501.41 261.104L535.841 411.578L439.367 532.25H284.633L188.159 411.578L222.59 261.104Z" stroke="white" stroke-width="1.6"/>
<path d="M172.552 221.301L362 130.296L551.448 221.301L598.236 425.784L467.136 589.768H256.864L125.764 425.784L172.552 221.301Z" stroke="white" stroke-width="1.6"/>
<path d="M122.341 182.793L361.2 68.0515L600.059 182.793L659.052 440.61L493.757 647.365H228.643L63.3481 440.61L122.341 182.793Z" stroke="white" stroke-width="1.6"/>
<path d="M73.9042 140.813L362.8 1.68792L651.697 140.813L723.048 453.424L523.126 704.119H202.475L2.55277 453.424L73.9042 140.813Z" stroke="white" stroke-width="1.6"/>
<path d="M262.619 292.947L362 245.208L461.381 292.947L485.925 400.214L417.152 486.236H306.848L238.075 400.214L262.619 292.947Z" stroke="white" stroke-width="1.6"/>
<path d="M302.649 324.79L362 296.28L421.351 324.79L436.008 388.849L394.938 440.221H329.062L287.992 388.849L302.649 324.79Z" stroke="white" stroke-width="1.6"/>
<path d="M381.321 356.633L362 347.352L342.679 356.633L337.907 377.484L351.277 394.207H372.722L386.092 377.484L381.321 356.633Z" stroke="white" stroke-width="1.6"/>
</g>
<path d="M169.851 517.004C180.532 532.954 194.661 546.057 211.607 555.835L246.185 575.799C229.267 566.025 215.16 552.934 204.492 537.004L169.851 517.004Z" fill="#DE8F18"/>
<path d="M211.606 555.835C218.767 559.967 226.431 563.505 234.551 566.412L269.192 586.412C261.072 583.505 253.408 579.967 246.247 575.835L211.606 555.835Z" fill="#DE8F18"/>
<path d="M513.19 187.083C497.772 178.188 480.122 172.102 460.803 169.081L495.444 189.081C514.763 192.102 532.413 198.188 547.831 207.083L513.19 187.083Z" fill="#C0C33B"/>
<path d="M234.551 566.412C261.885 576.2 293.606 578.568 327.12 573.322L361.761 593.322C328.247 598.568 296.526 596.2 269.192 586.412L234.551 566.412Z" fill="#DE8F18"/>
<path d="M533.88 201.891C527.563 196.336 520.666 191.403 513.252 187.12L547.83 207.083C555.268 211.375 562.186 216.32 568.521 221.891L533.88 201.891Z" fill="#C0C33B"/>
<path d="M573.285 267.999C566.812 241.601 553.347 219.011 533.88 201.891L568.521 221.891C587.988 239.011 601.453 261.601 607.926 287.999L573.285 267.999Z" fill="#C0C33B"/>
<path d="M327.121 573.323C360.636 568.077 394.992 555.366 427.381 536.229L462.022 556.229C429.633 575.366 395.277 588.077 361.762 593.323L327.121 573.323Z" fill="#DE8F18"/>
<path d="M571.279 354.423C579.072 323.93 579.758 294.397 573.285 267.999L607.926 287.999C614.399 314.397 613.713 343.93 605.92 374.423L571.279 354.423Z" fill="#C0C33B"/>
<path d="M463.226 554.932L429.575 535.504C477.769 506.577 518.872 464.989 545.654 418.041L579.429 437.541C552.647 484.49 511.485 526.077 463.226 554.932Z" fill="#554DD1" stroke="#181818" stroke-linejoin="round"/>
<path d="M580.114 436.333L546.339 416.833C557.971 396.214 566.602 374.992 571.922 353.921L605.663 373.401C600.373 394.466 591.755 415.697 580.114 436.333Z" fill="#D279AA" stroke="#181818" stroke-linejoin="round"/>
<path d="M545.468 417.356C518.602 464.642 477.176 506.52 428.589 535.511L362.398 371.459L545.468 417.356Z" fill="#645AFF"/>
<path d="M571.598 353.156C566.267 374.538 557.514 396.089 545.66 417.018L362.398 371.459L571.598 353.156Z" fill="#FF8BCB"/>
<path d="M427.38 536.229C394.991 555.365 360.635 568.076 327.12 573.322C293.606 578.568 261.885 576.2 234.551 566.412C207.217 556.624 185.046 539.693 169.85 517.004C154.655 494.315 146.867 466.513 147.122 435.869L362.398 371.459L427.38 536.229Z" fill="#FDA21A"/>
<path d="M147.125 439.046C146.823 408.573 154.566 376.009 169.721 344.016C184.875 312.022 207.011 281.508 234.318 254.968L362.398 371.459L147.125 439.046Z" fill="#FF4A40"/>
<path d="M297.921 206.39C320.724 192.973 344.56 182.701 368.451 175.996L362.398 371.459L297.921 206.39Z" fill="#3DCC3F"/>
<path d="M368.402 176.009C400.588 166.969 432.164 164.601 460.802 169.08C489.441 173.56 514.413 184.772 533.88 201.891C553.347 219.011 566.812 241.601 573.285 267.999C579.757 294.397 579.072 323.93 571.279 354.422L362.398 371.459L368.402 176.009Z" fill="#E2E53D"/>
<path d="M234.32 254.965C253.558 236.268 275.036 219.861 297.87 206.42L362.398 371.459L234.32 254.965Z" fill="#F8F8F8"/>
<path d="M297.434 206.677C274.905 219.986 253.703 236.183 234.68 254.616L235.05 254.954M297.434 206.677L361.154 369.652M297.434 206.677L297.619 207.149M297.434 206.677L297.669 207.119C297.652 207.129 297.636 207.139 297.619 207.149M235.05 254.954C235.05 254.954 235.049 254.955 235.048 254.956L361.154 369.652M235.05 254.954L361.154 369.652M235.05 254.954C254.02 236.575 275.158 220.425 297.619 207.149M361.154 369.652L297.619 207.149M428.834 534.782L363.229 372.183L544.708 417.681C517.97 464.492 476.938 505.962 428.834 534.782ZM361.973 368.997L298.542 206.605C320.975 193.446 344.399 183.336 367.881 176.676L361.973 368.997ZM361.407 371.233L147.629 435.196C147.987 405.923 155.682 374.823 170.173 344.23C185.237 312.426 207.217 282.079 234.33 255.654L361.407 371.233ZM570.943 353.715C570.922 353.795 570.902 353.874 570.882 353.953L531.694 357.149L570.943 353.715ZM365.477 371.709L570.62 354.978C565.29 375.562 556.793 396.286 545.412 416.441L365.477 371.709ZM571.199 352.689L362.915 370.912L368.939 176.378C400.928 167.447 432.287 165.126 460.725 169.574C489.281 174.041 514.163 185.217 533.55 202.267C552.936 219.315 566.35 241.814 572.799 268.118C579.135 293.96 578.592 322.835 571.199 352.689ZM147.62 436.242L291.528 393.185L147.619 438.366C147.615 437.66 147.615 436.952 147.62 436.242ZM147.629 439.412L362.103 372.075L426.758 536.015C394.526 555.002 360.362 567.613 327.043 572.828C293.597 578.063 261.962 575.697 234.719 565.941C207.479 556.187 185.398 539.32 170.266 516.726C155.719 495.006 147.98 468.568 147.629 439.412Z" stroke="#181818"/>
</svg>
