<svg width="1440" height="200" viewBox="0 0 1440 200" fill="none" xmlns="http://www.w3.org/2000/svg">
<path d="M0 200C15.7779 200 29.4522 194.064 29.4522 187.215V173.059C29.4522 165.753 29.4522 162.1 31.5559 159.361C35.7633 153.881 45.2301 149.315 57.8524 147.489C65.2155 146.575 73.6304 146.575 90.4602 146.575H481.753C501.739 145.662 517.516 138.813 519.62 129.68L520.672 125.571V121.005C522.776 111.872 538.554 105.023 558.539 104.11H738.408C761.549 104.11 774.171 104.11 782.586 102.283C791.001 100.457 798.364 97.2603 802.571 93.6073C806.779 89.9543 806.779 84.4749 806.779 74.4292V29.6804C806.779 19.6347 806.779 14.1553 810.986 10.5023C815.194 6.84931 822.557 3.65297 830.972 1.82648C839.386 0 852.009 0 875.15 0H1440V200H0Z" fill="#181818"/>
</svg>
