<svg width="18" height="18" viewBox="0 0 18 18" fill="none" xmlns="http://www.w3.org/2000/svg">
<path d="M15.7514 2.25L9.89844 6.61525L10.9808 4.03981L15.7514 2.25Z" fill="#E2761B"/>
<path d="M2.24265 2.25L8.04853 6.6566L7.01912 4.03981L2.24265 2.25ZM13.6485 12.3686L12.0897 14.7669L15.425 15.6883L16.3838 12.4218L13.6485 12.3686ZM1.625 12.4218L2.57794 15.6883L5.91324 14.7669L4.35441 12.3686L1.625 12.4218Z" fill="#E4761B"/>
<path d="M5.72238 8.31637L4.79297 9.72813L8.10473 9.87581L7.98709 6.30209L5.72238 8.31637ZM12.2694 8.31637L9.97532 6.26074L9.89885 9.87581L13.2047 9.72813L12.2694 8.31637ZM5.91062 14.7668L7.89885 13.7921L6.1812 12.4453L5.91062 14.7668ZM10.093 13.7921L12.0871 14.7668L11.8106 12.4453L10.093 13.7921Z" fill="#E4761B"/>
<path d="M12.0866 14.7669L10.0925 13.7922L10.2513 15.0977L10.2337 15.647L12.0866 14.7669ZM5.91016 14.7669L7.7631 15.647L7.75133 15.0977L7.89839 13.7922L5.91016 14.7669Z" fill="#D7C1B3"/>
<path d="M7.79554 11.583L6.13672 11.0927L7.30731 10.5552L7.79554 11.583ZM10.2014 11.583L10.6897 10.5552L11.8661 11.0927L10.2014 11.583Z" fill="#233447"/>
<path d="M5.91039 14.7669L6.19274 12.3687L4.35156 12.4218L5.91039 14.7669ZM11.8045 12.3687L12.0869 14.7669L13.6457 12.4218L11.8045 12.3687ZM13.2045 9.72827L9.89862 9.87595L10.2045 11.5831L10.6927 10.5552L11.8692 11.0928L13.2045 9.72827ZM6.13392 11.0928L7.31039 10.5552L7.79274 11.5831L8.1045 9.87595L4.79274 9.72827L6.13392 11.0928Z" fill="#CD6116"/>
<path d="M4.79297 9.72827L6.1812 12.4455L6.13414 11.0928L4.79297 9.72827ZM11.8694 11.0928L11.8106 12.4455L13.2047 9.72827L11.8694 11.0928ZM8.10473 9.87595L7.79297 11.5831L8.1812 13.5973L8.26944 10.9451L8.10473 9.87595ZM9.89885 9.87595L9.74003 10.9392L9.81062 13.5973L10.2047 11.5831L9.89885 9.87595Z" fill="#E4751F"/>
<path d="M10.2073 11.5831L9.81319 13.5973L10.0955 13.7923L11.8132 12.4455L11.872 11.0928L10.2073 11.5831ZM6.13672 11.0928L6.18378 12.4455L7.90143 13.7923L8.18378 13.5973L7.79554 11.5831L6.13672 11.0928Z" fill="#F6851B"/>
<path d="M10.2337 15.647L10.2513 15.0976L10.1043 14.9677H7.88663L7.75133 15.0976L7.7631 15.647L5.91016 14.7668L6.55722 15.2985L7.86898 16.2141H10.1219L11.4396 15.2985L12.0866 14.7668L10.2337 15.647Z" fill="#C0AD9E"/>
<path d="M10.0951 13.7923L9.81273 13.5974H8.18332L7.90097 13.7923L7.75391 15.0978L7.8892 14.9678H10.1068L10.2539 15.0978L10.0951 13.7923Z" fill="#161616"/>
<path d="M16 6.89878L16.5 4.48874L15.7529 2.25L10.0941 6.46757L12.2706 8.31645L15.3471 9.22022L16.0294 8.42278L15.7353 8.21013L16.2059 7.77892L15.8412 7.49539L16.3118 7.13506L16 6.89878ZM1.5 4.48874L2 6.89878L1.68235 7.13506L2.15294 7.49539L1.79412 7.77892L2.26471 8.21013L1.97059 8.42278L2.64706 9.22022L5.72353 8.31645L7.9 6.46757L2.24118 2.25L1.5 4.48874Z" fill="#763D16"/>
<path d="M15.3485 9.2202L12.2721 8.31644L13.2074 9.7282L11.8132 12.4454L13.6485 12.4218H16.3838L15.3485 9.2202ZM5.725 8.31644L2.64853 9.2202L1.625 12.4218H4.35441L6.18382 12.4454L4.79559 9.7282L5.725 8.31644ZM9.90147 9.87588L10.0956 6.46756L10.9897 4.03979H7.01912L7.90147 6.46756L8.10735 9.87588L8.17794 10.9509L8.18382 13.5973H9.81324L9.825 10.9509L9.90147 9.87588Z" fill="#F6851B"/>
</svg>
