<svg width="230" height="200" viewBox="0 0 230 200" fill="none" xmlns="http://www.w3.org/2000/svg">
<path d="M224.487 69.5204C222.729 66.4807 220.519 63.7265 217.931 61.3524C217.159 58.5272 216.026 55.813 214.561 53.2766C212.81 50.2385 210.608 47.4844 208.029 45.1087C206.303 38.8603 202.843 33.2285 198.049 28.8649C197.273 26.0409 196.14 23.3271 194.679 20.7891C186.534 6.64111 168.878 -0.713103 144.904 0.0545594C121.567 0.814546 94.8751 9.21278 69.7418 23.7216C44.6085 38.2304 23.9968 57.1456 11.6681 76.982C-0.975306 97.3328 -3.44718 116.332 4.75913 130.48C6.52218 133.501 8.72961 136.239 11.3073 138.602C12.9977 144.853 16.442 150.49 21.2332 154.846C21.9881 157.685 23.1053 160.414 24.5572 162.968C26.315 165.99 28.5201 168.728 31.0976 171.09C31.889 173.934 33.0449 176.664 34.5368 179.212C42.3132 192.684 58.7181 200 80.9497 200C82.0628 200 83.1912 200 84.3351 199.946C107.68 199.179 134.371 190.788 159.497 176.279C184.623 161.77 205.25 142.855 217.578 123.019C230.191 102.668 232.655 83.6761 224.487 69.5204ZM202.993 103.919C191.14 123.011 171.181 141.251 146.838 155.345C122.496 169.439 96.6714 177.561 74.2019 178.29C57.6434 178.866 44.5164 175.281 35.9646 168.165C35.607 166.571 35.3709 164.951 35.2584 163.321C42.5588 166.077 51.2411 167.513 61.0595 167.513C62.1803 167.513 63.3088 167.513 64.4526 167.459C87.7972 166.691 114.489 158.301 139.614 143.792C164.74 129.283 185.367 110.368 197.688 90.5313C204.037 80.3214 207.821 70.4416 208.98 61.3601C210.417 62.235 211.788 63.2151 213.08 64.2926C215.582 75.4851 212.159 89.2109 203.016 103.919H202.993ZM26.0387 151.921C25.6811 150.327 25.445 148.708 25.3325 147.077C27.2773 147.804 29.2609 148.421 31.2742 148.927C30.7947 150.884 30.4231 152.865 30.1611 154.861C28.7154 153.986 27.3375 153.003 26.0387 151.921ZM16.1129 135.678C10.1865 109.216 37.6074 70.526 82.3775 44.6558C108.893 29.3486 136.237 21.5645 158.292 21.5645C172.824 21.5645 185.06 24.9499 193.228 31.7974C193.583 33.4001 193.819 35.0269 193.934 36.6644C185.805 33.5937 175.971 32.1812 164.763 32.542C141.418 33.3097 114.727 41.7003 89.6012 56.2091C64.4756 70.7179 43.8485 89.6331 31.5199 109.47C25.179 119.672 21.4021 129.544 20.2352 138.641C18.7905 137.755 17.4127 136.765 16.1129 135.678ZM203.154 48.0412C203.509 49.6439 203.745 51.2706 203.86 52.9081C201.923 52.1803 199.947 51.5601 197.941 51.0504C198.425 49.0926 198.797 47.1088 199.055 45.1087C200.492 45.9836 201.862 46.9637 203.154 48.0412ZM92.3034 60.8995C118.818 45.5923 146.17 37.8082 168.218 37.8082C177.998 37.8082 186.734 39.3435 193.888 42.4142C193.686 44.9376 193.28 47.4407 192.675 49.8989C186.742 48.9123 180.723 48.5316 174.712 48.7628C151.367 49.5304 124.676 57.921 99.5501 72.4298C74.4245 86.9386 53.7744 105.877 41.4457 125.713C37.8664 131.371 34.9554 137.425 32.7711 143.753C30.2402 143.114 27.7633 142.277 25.3632 141.251C27.3745 115.81 53.2063 83.4765 92.3034 60.8995ZM191.14 55.073C189.103 60.805 186.433 66.2919 183.179 71.4318C171.319 90.5236 151.367 108.786 126.994 122.865C102.621 136.944 76.8196 145.089 54.3501 145.803C48.8942 146.016 43.4306 145.695 38.0373 144.843C45.8982 121.967 69.381 96.1122 102.229 77.1433C128.744 61.8361 156.096 54.052 178.143 54.052C182.496 54.039 186.843 54.3804 191.14 55.073ZM36.502 150.064C41.3355 150.885 46.2308 151.288 51.1336 151.269C52.2544 151.269 53.3829 151.269 54.5267 151.215C77.8713 150.447 104.563 142.057 129.689 127.548C154.814 113.039 175.441 94.124 187.762 74.2876C191.355 68.6178 194.274 62.548 196.46 56.2014C198.971 56.8389 201.43 57.6678 203.814 58.681C203.108 67.5091 199.508 77.3505 193.067 87.6756C181.206 106.767 161.255 125.03 136.882 139.109C112.508 153.188 86.7378 161.317 64.276 162.047C52.8609 162.415 43.0655 160.849 35.2891 157.51C35.4957 155 35.9013 152.51 36.502 150.064ZM209.364 55.3723V55.1804L209.549 55.4721L209.364 55.3723ZM199.431 39.1516C199.431 39.0902 199.431 39.0211 199.431 38.9597C199.484 39.0595 199.554 39.1516 199.607 39.2437L199.431 39.1516ZM72.4516 28.4043C98.9667 13.0971 126.311 5.31305 148.358 5.31305C167.442 5.31305 182.534 11.155 189.697 22.9693C180.631 18.156 168.801 15.8377 154.83 16.2829C131.493 17.0506 104.801 25.4412 79.6753 39.95C54.5497 54.4588 33.9226 73.3894 21.594 93.2258C13.7715 105.815 9.84874 117.891 9.9255 128.615C9.74894 128.339 9.57238 128.055 9.41117 127.771C-5.61967 101.731 22.661 57.161 72.4516 28.4043ZM19.8514 144.628V144.859L19.6518 144.529C19.7132 144.567 19.79 144.59 19.8514 144.628ZM29.7773 160.872V161.103L29.5777 160.772L29.7773 160.872ZM212.949 120.186C201.081 139.278 181.13 157.541 156.764 171.62C132.398 185.698 106.597 193.836 84.1355 194.565C62.5718 195.271 46.7733 189.045 39.5036 177.047C47.825 181.469 58.4879 183.787 70.9777 183.787C72.0908 183.787 73.2193 183.787 74.3631 183.733C97.7077 182.966 124.399 174.575 149.525 160.066C174.651 145.557 195.278 126.642 207.606 106.806C215.421 94.2314 219.336 82.1714 219.275 71.4933C219.444 71.7619 219.628 72.0229 219.789 72.2609C226.921 84.5666 224.487 101.586 212.949 120.163V120.186Z" fill="white"/>
</svg>
