<svg width="25" height="24" viewBox="0 0 25 24" fill="none" xmlns="http://www.w3.org/2000/svg">
<mask id="path-1-inside-1_52_1203" fill="white">
<path d="M18.48 0H6.16V2H4.10667V4H2.05333V6H0V18H2.05333V20H4.10667V22H6.16V24H18.48V22H20.5333V20H22.5867V18H24.64V6H22.5867V4H20.5333V2H18.48V0Z"/>
</mask>
<path d="M18.48 0H79.6615V-61.1815H18.48V0ZM6.16 0V-61.1815H-55.0215V0H6.16ZM6.16 2V63.1815H67.3415V2H6.16ZM4.10667 2V-59.1815H-57.0749V2H4.10667ZM4.10667 4V65.1815H65.2882V4H4.10667ZM2.05333 4V-57.1815H-59.1282V4H2.05333ZM2.05333 6V67.1815H63.2349V6H2.05333ZM0 6V-55.1815H-61.1815V6H0ZM0 18H-61.1815V79.1815H0V18ZM2.05333 18H63.2349V-43.1815H2.05333V18ZM2.05333 20H-59.1282V81.1815H2.05333V20ZM4.10667 20H65.2882V-41.1815H4.10667V20ZM4.10667 22H-57.0749V83.1815H4.10667V22ZM6.16 22H67.3415V-39.1815H6.16V22ZM6.16 24H-55.0215V85.1815H6.16V24ZM18.48 24V85.1815H79.6615V24H18.48ZM18.48 22V-39.1815H-42.7015V22H18.48ZM20.5333 22V83.1815H81.7149V22H20.5333ZM20.5333 20V-41.1815H-40.6482V20H20.5333ZM22.5867 20V81.1815H83.7682V20H22.5867ZM22.5867 18V-43.1815H-38.5949V18H22.5867ZM24.64 18V79.1815H85.8215V18H24.64ZM24.64 6H85.8215V-55.1815H24.64V6ZM22.5867 6H-38.5949V67.1815H22.5867V6ZM22.5867 4H83.7682V-57.1815H22.5867V4ZM20.5333 4H-40.6482V65.1815H20.5333V4ZM20.5333 2H81.7149V-59.1815H20.5333V2ZM18.48 2H-42.7015V63.1815H18.48V2ZM18.48 -61.1815H6.16V61.1815H18.48V-61.1815ZM-55.0215 0V2H67.3415V0H-55.0215ZM6.16 -59.1815H4.10667V63.1815H6.16V-59.1815ZM-57.0749 2V4H65.2882V2H-57.0749ZM4.10667 -57.1815H2.05333V65.1815H4.10667V-57.1815ZM-59.1282 4V6H63.2349V4H-59.1282ZM2.05333 -55.1815H0V67.1815H2.05333V-55.1815ZM-61.1815 6V18H61.1815V6H-61.1815ZM0 79.1815H2.05333V-43.1815H0V79.1815ZM-59.1282 18V20H63.2349V18H-59.1282ZM2.05333 81.1815H4.10667V-41.1815H2.05333V81.1815ZM-57.0749 20V22H65.2882V20H-57.0749ZM4.10667 83.1815H6.16V-39.1815H4.10667V83.1815ZM-55.0215 22V24H67.3415V22H-55.0215ZM6.16 85.1815H18.48V-37.1815H6.16V85.1815ZM79.6615 24V22H-42.7015V24H79.6615ZM18.48 83.1815H20.5333V-39.1815H18.48V83.1815ZM81.7149 22V20H-40.6482V22H81.7149ZM20.5333 81.1815H22.5867V-41.1815H20.5333V81.1815ZM83.7682 20V18H-38.5949V20H83.7682ZM22.5867 79.1815H24.64V-43.1815H22.5867V79.1815ZM85.8215 18V6H-36.5415V18H85.8215ZM24.64 -55.1815H22.5867V67.1815H24.64V-55.1815ZM83.7682 6V4H-38.5949V6H83.7682ZM22.5867 -57.1815H20.5333V65.1815H22.5867V-57.1815ZM81.7149 4V2H-40.6482V4H81.7149ZM20.5333 -59.1815H18.48V63.1815H20.5333V-59.1815ZM79.6615 2V0H-42.7015V2H79.6615Z" fill="#F8F8F8" mask="url(#path-1-inside-1_52_1203)"/>
</svg>
