<svg width="209" height="136" viewBox="0 0 209 136" fill="none" xmlns="http://www.w3.org/2000/svg">
<g clip-path="url(#clip0_52_374)">
<path d="M62.4745 51.5549L51.607 61.7819V37.3484C51.607 31.1114 51.67 25.4624 51.8065 20.3909L51.838 19.0889L50.9035 20.0129L9.46003 61.0679L1.86853 52.7729L43.3645 11.6969L44.3095 10.7624L42.9865 10.8044C38.0305 10.9304 32.476 10.9934 26.3125 10.9934H1.20703L10.993 0.524902H62.4745V51.5549Z" stroke="white"/>
</g>
<g clip-path="url(#clip1_52_374)">
<path d="M135.475 51.5549L124.607 61.7819V37.3484C124.607 31.1114 124.67 25.4624 124.807 20.3909L124.838 19.0889L123.904 20.0129L82.46 61.0679L74.8685 52.7729L116.365 11.6969L117.31 10.7624L115.987 10.8044C111.031 10.9304 105.476 10.9934 99.3125 10.9934H74.207L83.993 0.524902H135.475V51.5549Z" stroke="white"/>
</g>
<path d="M208.475 51.5549L197.607 61.7819V37.3484C197.607 31.1114 197.67 25.4624 197.807 20.3909L197.838 19.0889L196.904 20.0129L155.46 61.0679L147.869 52.7729L189.365 11.6969L190.31 10.7624L188.987 10.8044C184.031 10.9304 178.476 10.9934 172.313 10.9934H147.207L156.993 0.524902H208.475V51.5549Z" fill="white"/>
<g clip-path="url(#clip2_52_374)">
<path d="M62.4745 124.555L51.607 134.782V110.348C51.607 104.111 51.67 98.4624 51.8065 93.3909L51.838 92.0889L50.9035 93.0129L9.46003 134.068L1.86853 125.773L43.3645 84.6969L44.3095 83.7624L42.9865 83.8044C38.0305 83.9304 32.476 83.9934 26.3125 83.9934H1.20703L10.993 73.5249H62.4745V124.555Z" stroke="white"/>
</g>
<path d="M135.475 124.555L124.607 134.782V110.348C124.607 104.111 124.67 98.4624 124.807 93.3909L124.838 92.0889L123.904 93.0129L82.46 134.068L74.8685 125.773L116.365 84.6969L117.31 83.7624L115.987 83.8044C111.031 83.9304 105.476 83.9934 99.3125 83.9934H74.207L83.993 73.5249H135.475V124.555Z" fill="#FF8BCB"/>
<g clip-path="url(#clip3_52_374)">
<path d="M208.475 124.555L197.607 134.782V110.348C197.607 104.111 197.67 98.4624 197.807 93.3909L197.838 92.0889L196.904 93.0129L155.46 134.068L147.869 125.773L189.365 84.6969L190.31 83.7624L188.987 83.8044C184.031 83.9304 178.476 83.9934 172.313 83.9934H147.207L156.993 73.5249H208.475V124.555Z" stroke="white"/>
</g>
<defs>
<clipPath id="clip0_52_374">
<rect width="63" height="63" fill="white"/>
</clipPath>
<clipPath id="clip1_52_374">
<rect width="63" height="63" fill="white" transform="translate(73)"/>
</clipPath>
<clipPath id="clip2_52_374">
<rect width="63" height="63" fill="white" transform="translate(0 73)"/>
</clipPath>
<clipPath id="clip3_52_374">
<rect width="63" height="63" fill="white" transform="translate(146 73)"/>
</clipPath>
</defs>
</svg>
