<svg width="1440" height="302" viewBox="0 0 1440 302" fill="none" xmlns="http://www.w3.org/2000/svg">
<path fill-rule="evenodd" clip-rule="evenodd" d="M0 302V137.34C18.3334 137.34 28.3334 137.34 35 139.642C45 143.478 52.5 150.384 55.8334 158.824C59.1667 165.729 59.1667 174.169 59.1667 191.816V241.688C59.1667 262.404 59.1667 272.379 63.3334 280.051C67.5 286.957 73.3334 292.327 80.8334 295.396C89.1667 300 100 300 121.667 300H700C722.5 300 733.333 300 741.667 295.396C749.167 292.327 755 286.957 758.333 280.051C762.5 272.379 762.5 262.404 762.5 241.689V241.688V218.67C762.5 197.954 762.5 187.98 767.5 180.307C770.833 173.402 776.667 168.031 784.167 164.962C792.5 161.125 803.333 161.125 825.833 161.125H1348.33C1370.83 161.125 1381.67 161.125 1390 156.522C1397.5 153.453 1403.33 148.082 1406.67 141.176C1410.83 133.504 1410.83 123.529 1410.83 102.813V26.8542C1410.83 11.509 1424.17 0 1440 0V302H0Z" fill="white"/>
</svg>
