<svg width="72" height="46" viewBox="0 0 72 46" fill="none" xmlns="http://www.w3.org/2000/svg">
<path d="M2.08993 6.46009L2.53544 6.68709L2.08993 6.46009ZM2.08993 31.5399L1.64443 31.7669H1.64443L2.08993 31.5399ZM6.46009 35.9101L6.68709 35.4646H6.68709L6.46009 35.9101ZM31.7069 41.4207L31.3183 41.7354L31.7069 41.4207ZM40.2768 41.4301L39.8879 41.1158L40.2768 41.4301ZM65.5399 35.9101L65.3129 35.4646L65.5399 35.9101ZM69.9101 31.5399L69.4646 31.3129L69.9101 31.5399ZM69.9101 6.46009L69.4646 6.68709V6.68709L69.9101 6.46009ZM65.5399 2.08993L65.3129 2.53544V2.53544L65.5399 2.08993ZM6.46009 2.08993L6.68709 2.53544L6.46009 2.08993ZM1.5 17C1.5 14.1915 1.50039 12.1152 1.63458 10.4727C1.7683 8.83613 2.03237 7.67442 2.53544 6.68709L1.64443 6.2331C1.05756 7.38489 0.776671 8.69286 0.637902 10.3913C0.499611 12.0839 0.5 14.208 0.5 17H1.5ZM1.5 21V17H0.5V21H1.5ZM2.53544 31.3129C2.03237 30.3256 1.7683 29.1639 1.63458 27.5273C1.50039 25.8848 1.5 23.8085 1.5 21H0.5C0.5 23.792 0.499611 25.9161 0.637902 27.6087C0.776671 29.3071 1.05756 30.6151 1.64443 31.7669L2.53544 31.3129ZM6.68709 35.4646C4.89955 34.5538 3.44624 33.1004 2.53544 31.3129L1.64443 31.7669C2.6511 33.7426 4.2574 35.3489 6.2331 36.3556L6.68709 35.4646ZM17 36.5C14.1915 36.5 12.1152 36.4996 10.4727 36.3654C8.83613 36.2317 7.67442 35.9676 6.68709 35.4646L6.2331 36.3556C7.38489 36.9424 8.69286 37.2233 10.3913 37.3621C12.0839 37.5004 14.208 37.5 17 37.5V36.5ZM26 36.5H17V37.5H26V36.5ZM26 37.5C26.8806 37.5 27.76 37.9758 28.6724 38.7856C29.5809 39.592 30.4495 40.6625 31.3183 41.7354L32.0954 41.106C31.2395 40.049 30.3181 38.9092 29.3362 38.0377C28.3581 37.1696 27.2464 36.5 26 36.5V37.5ZM31.3183 41.7354C32.0609 42.6524 32.8088 43.5776 33.5514 44.2699C34.281 44.9502 35.1018 45.5 36 45.5V44.5C35.5036 44.5 34.927 44.1853 34.2333 43.5385C33.5525 42.9038 32.8512 42.0394 32.0954 41.106L31.3183 41.7354ZM36 45.5C36.8971 45.5 37.7153 44.9517 38.4422 44.2731C39.1817 43.5825 39.9262 42.6595 40.6657 41.7443L39.8879 41.1158C39.1352 42.0475 38.4374 42.9094 37.7597 43.5421C37.0693 44.1867 36.4952 44.5 36 44.5V45.5ZM40.6657 41.7443C41.5337 40.6701 42.4021 39.5975 43.3126 38.7893C44.2266 37.978 45.1106 37.5 46 37.5V36.5C44.7458 36.5 43.6297 37.1708 42.6488 38.0414C41.6644 38.9151 40.743 40.0575 39.8879 41.1158L40.6657 41.7443ZM55 36.5H46V37.5H55V36.5ZM65.3129 35.4646C64.3256 35.9676 63.1639 36.2317 61.5273 36.3654C59.8848 36.4996 57.8085 36.5 55 36.5V37.5C57.792 37.5 59.9161 37.5004 61.6087 37.3621C63.3071 37.2233 64.6151 36.9424 65.7669 36.3556L65.3129 35.4646ZM69.4646 31.3129C68.5538 33.1004 67.1004 34.5538 65.3129 35.4646L65.7669 36.3556C67.7426 35.3489 69.3489 33.7426 70.3556 31.7669L69.4646 31.3129ZM70.5 21C70.5 23.8085 70.4996 25.8848 70.3654 27.5273C70.2317 29.1639 69.9676 30.3256 69.4646 31.3129L70.3556 31.7669C70.9424 30.6151 71.2233 29.3071 71.3621 27.6087C71.5004 25.9161 71.5 23.792 71.5 21H70.5ZM70.5 17V21H71.5V17H70.5ZM69.4646 6.68709C69.9676 7.67442 70.2317 8.83613 70.3654 10.4727C70.4996 12.1152 70.5 14.1915 70.5 17H71.5C71.5 14.208 71.5004 12.0839 71.3621 10.3913C71.2233 8.69286 70.9424 7.38489 70.3556 6.2331L69.4646 6.68709ZM65.3129 2.53544C67.1004 3.44624 68.5538 4.89955 69.4646 6.68709L70.3556 6.2331C69.3489 4.2574 67.7426 2.6511 65.7669 1.64443L65.3129 2.53544ZM55 1.5C57.8085 1.5 59.8848 1.50039 61.5273 1.63458C63.1639 1.7683 64.3256 2.03237 65.3129 2.53544L65.7669 1.64443C64.6151 1.05756 63.3071 0.776671 61.6087 0.637902C59.9161 0.499611 57.792 0.5 55 0.5V1.5ZM17 1.5H55V0.5H17V1.5ZM6.68709 2.53544C7.67441 2.03237 8.83613 1.7683 10.4727 1.63458C12.1152 1.50039 14.1915 1.5 17 1.5V0.5C14.208 0.5 12.0839 0.499611 10.3913 0.637902C8.69286 0.776671 7.38489 1.05756 6.2331 1.64443L6.68709 2.53544ZM2.53544 6.68709C3.44624 4.89955 4.89955 3.44624 6.68709 2.53544L6.2331 1.64443C4.2574 2.6511 2.6511 4.2574 1.64443 6.2331L2.53544 6.68709Z" fill="#13DF78"/>
</svg>
