<svg width="208" height="102" viewBox="0 0 208 102" fill="none" xmlns="http://www.w3.org/2000/svg">
<path d="M34.1877 24.6133C34.3357 25.0178 34.2469 25.35 33.9213 25.61C33.5957 25.87 33.1961 26 32.7225 26H21.4894C21.1638 26 20.8234 25.8411 20.4682 25.5233C20.113 25.1767 19.9354 24.8444 19.9354 24.5267C19.9354 23.8911 19.8022 23.01 19.5358 21.8833C19.2694 20.7567 18.8994 19.6589 18.4258 18.59C17.9522 17.5211 17.4046 16.5967 16.7831 15.8167C16.1911 15.0078 15.5399 14.6033 14.8295 14.6033V11.3533H16.6499C16.857 11.3533 17.0938 11.3533 17.3602 11.3533C17.6562 11.3244 17.9078 11.2667 18.115 11.18C18.3518 11.0933 18.5442 10.9633 18.6922 10.79C18.8698 10.6167 18.9586 10.3856 18.9586 10.0967V5.02667C18.9586 4.59333 18.707 4.27556 18.2038 4.07333C17.7006 3.87111 17.2566 3.77 16.8718 3.77H13.2311V24.3967C13.2311 24.8011 13.0683 25.1767 12.7427 25.5233C12.4467 25.8411 12.0767 26 11.6327 26H1.59839C1.15439 26 0.769593 25.8411 0.443996 25.5233C0.147999 25.1767 0 24.8011 0 24.3967V1.60333C0 1.19889 0.147999 0.837778 0.443996 0.520001C0.769593 0.173334 1.15439 0 1.59839 0H26.0182C26.8174 0 27.5722 0.115556 28.2825 0.346667C28.9929 0.577777 29.6145 0.895554 30.1473 1.3C30.6801 1.70444 31.0945 2.19555 31.3905 2.77333C31.6865 3.35111 31.8345 4.00111 31.8345 4.72333V9.96667C31.8345 10.6889 31.6865 11.3389 31.3905 11.9167C31.0945 12.4944 30.6801 13 30.1473 13.4333C29.6145 13.8378 28.9929 14.1556 28.2825 14.3867C27.5722 14.5889 26.8174 14.69 26.0182 14.69H25.441C26.329 14.8344 27.0542 15.0511 27.6166 15.34C28.2085 15.6 28.7709 15.9467 29.3037 16.38C29.7181 16.7267 30.1325 17.1744 30.5469 17.7233C30.9613 18.2722 31.3461 18.8356 31.7013 19.4133C32.2933 20.3956 32.8113 21.3633 33.2553 22.3167C33.7289 23.27 34.0397 24.0356 34.1877 24.6133Z" fill="white"/>
<path d="M65.5571 21.6667C65.5571 22.2733 65.3943 22.8367 65.0687 23.3567C64.7727 23.8767 64.3435 24.3389 63.7811 24.7433C63.2483 25.1189 62.6119 25.4222 61.8719 25.6533C61.1319 25.8844 60.3475 26 59.5187 26H40.2937C39.4649 26 38.6805 25.8844 37.9405 25.6533C37.2005 25.4222 36.5493 25.1189 35.9869 24.7433C35.4541 24.3389 35.0249 23.8767 34.6993 23.3567C34.4033 22.8367 34.2553 22.2733 34.2553 21.6667V4.33333C34.2553 3.72667 34.4033 3.16333 34.6993 2.64333C35.0249 2.12333 35.4541 1.67555 35.9869 1.3C36.5493 0.895554 37.2005 0.577777 37.9405 0.346667C38.6805 0.115556 39.4649 0 40.2937 0H59.5187C60.3475 0 61.1319 0.115556 61.8719 0.346667C62.6119 0.577777 63.2483 0.895554 63.7811 1.3C64.3435 1.67555 64.7727 2.12333 65.0687 2.64333C65.3943 3.16333 65.5571 3.72667 65.5571 4.33333V21.6667ZM52.6812 19.1533V6.84667C52.6812 6.00889 52.4 5.28667 51.8376 4.68C51.3048 4.07333 50.6536 3.77 49.884 3.77C49.1144 3.77 48.4632 4.07333 47.9304 4.68C47.3976 5.28667 47.1312 6.00889 47.1312 6.84667V19.1533C47.1312 19.9911 47.3976 20.7133 47.9304 21.32C48.4632 21.8978 49.1144 22.1867 49.884 22.1867C50.6536 22.1867 51.3048 21.8978 51.8376 21.32C52.4 20.7133 52.6812 19.9911 52.6812 19.1533Z" fill="white"/>
<path d="M102.824 24.7867C102.824 25.5956 102.409 26 101.58 26H90.6581C90.1845 26 89.7257 25.8411 89.2817 25.5233C88.8673 25.2056 88.6157 24.83 88.5269 24.3967L87.7277 20.8H81.1566L80.313 24.3967C80.2242 24.83 79.9578 25.2056 79.5138 25.5233C79.0994 25.8411 78.6702 26 78.2262 26H67.2595C66.8747 26 66.5787 25.87 66.3715 25.61C66.1643 25.35 66.0607 25.0322 66.0607 24.6567C66.0607 24.4544 66.1051 24.2378 66.1939 24.0067L73.7418 1.60333C73.8898 1.19889 74.1562 0.837778 74.541 0.520001C74.9554 0.173334 75.3994 0 75.873 0H93.0113C93.4849 0 93.9141 0.173334 94.2989 0.520001C94.6837 0.837778 94.9501 1.19889 95.0981 1.60333L102.69 24.0067C102.779 24.2667 102.824 24.5267 102.824 24.7867ZM86.8841 16.9433L84.3978 5.93667L81.9558 16.9433H86.8841Z" fill="white"/>
<path d="M134.631 21.6667C134.631 22.2733 134.469 22.8367 134.143 23.3567C133.847 23.8767 133.418 24.3389 132.855 24.7433C132.323 25.1189 131.686 25.4222 130.946 25.6533C130.206 25.8844 129.422 26 128.593 26H105.017C104.543 26 104.144 25.8411 103.818 25.5233C103.492 25.2056 103.33 24.8156 103.33 24.3533V1.60333C103.33 1.17 103.492 0.794445 103.818 0.476666C104.144 0.158889 104.543 0 105.017 0H128.593C129.422 0 130.206 0.115556 130.946 0.346667C131.686 0.577777 132.323 0.895554 132.855 1.3C133.418 1.67555 133.847 2.12333 134.143 2.64333C134.469 3.16333 134.631 3.72667 134.631 4.33333V21.6667ZM121.756 19.1533V6.84667C121.756 6.00889 121.415 5.28667 120.734 4.68C120.054 4.07333 119.24 3.77 118.292 3.77H116.206V22.1867H118.292C119.24 22.1867 120.054 21.8978 120.734 21.32C121.415 20.7133 121.756 19.9911 121.756 19.1533Z" fill="white"/>
<path d="M176.205 3.77C176.205 4.23222 176.042 4.62222 175.716 4.94C175.391 5.25778 175.006 5.41667 174.562 5.41667H167.058V24.3533C167.058 24.8156 166.896 25.2056 166.57 25.5233C166.244 25.8411 165.845 26 165.371 26H155.559C155.085 26 154.686 25.8411 154.36 25.5233C154.064 25.2056 153.916 24.8156 153.916 24.3533V5.41667H146.146C145.673 5.41667 145.273 5.25778 144.947 4.94C144.622 4.62222 144.459 4.23222 144.459 3.77V1.60333C144.459 1.17 144.622 0.794445 144.947 0.476666C145.273 0.158889 145.673 0 146.146 0H174.562C175.006 0 175.391 0.158889 175.716 0.476666C176.042 0.794445 176.205 1.17 176.205 1.60333V3.77Z" fill="white"/>
<path d="M208 21.6667C208 22.2733 207.837 22.8367 207.512 23.3567C207.216 23.8767 206.786 24.3389 206.224 24.7433C205.691 25.1189 205.055 25.4222 204.315 25.6533C203.575 25.8844 202.79 26 201.962 26H182.737C181.908 26 181.123 25.8844 180.383 25.6533C179.643 25.4222 178.992 25.1189 178.43 24.7433C177.897 24.3389 177.468 23.8767 177.142 23.3567C176.846 22.8367 176.698 22.2733 176.698 21.6667V4.33333C176.698 3.72667 176.846 3.16333 177.142 2.64333C177.468 2.12333 177.897 1.67555 178.43 1.3C178.992 0.895554 179.643 0.577777 180.383 0.346667C181.123 0.115556 181.908 0 182.737 0H201.962C202.79 0 203.575 0.115556 204.315 0.346667C205.055 0.577777 205.691 0.895554 206.224 1.3C206.786 1.67555 207.216 2.12333 207.512 2.64333C207.837 3.16333 208 3.72667 208 4.33333V21.6667ZM195.124 19.1533V6.84667C195.124 6.00889 194.843 5.28667 194.281 4.68C193.748 4.07333 193.097 3.77 192.327 3.77C191.557 3.77 190.906 4.07333 190.373 4.68C189.841 5.28667 189.574 6.00889 189.574 6.84667V19.1533C189.574 19.9911 189.841 20.7133 190.373 21.32C190.906 21.8978 191.557 22.1867 192.327 22.1867C193.097 22.1867 193.748 21.8978 194.281 21.32C194.843 20.7133 195.124 19.9911 195.124 19.1533Z" fill="white"/>
<path d="M24.3452 99C24.3452 99.8667 24.0747 100.6 23.5337 101.2C23.0528 101.733 22.4216 102 21.6402 102H7.21339C6.43194 102 5.77071 101.733 5.22971 101.2C4.74882 100.6 4.50837 99.8667 4.50837 99V54.7C4.50837 53.1 4.05753 51.7667 3.15586 50.7C2.3143 49.5667 1.26234 49 0 49V42H14.517C15.8394 42 17.1018 42.2333 18.304 42.7C19.5062 43.1 20.5582 43.6667 21.4598 44.4C22.3615 45.0667 23.0528 45.9 23.5337 46.9C24.0747 47.9 24.3452 48.9333 24.3452 50V99ZM76.2175 92C76.2175 93.4 75.8869 94.7 75.2257 95.9C74.6246 97.1 73.7529 98.1667 72.6108 99.1C71.5288 99.9667 70.2364 100.667 68.7336 101.2C67.2308 101.733 65.6379 102 63.9548 102H41.3227C39.6396 102 38.0467 101.733 36.5439 101.2C35.0411 100.667 33.7186 99.9667 32.5765 99.1C31.4945 98.1667 30.6229 97.1 29.9616 95.9C29.3605 94.7 29.06 93.4 29.06 92V52C29.06 50.6 29.3605 49.3 29.9616 48.1C30.6229 46.9 31.4945 45.8667 32.5765 45C33.7186 44.0667 35.0411 43.3333 36.5439 42.8C38.0467 42.2667 39.6396 42 41.3227 42H63.9548C65.6379 42 67.2308 42.2667 68.7336 42.8C70.2364 43.3333 71.5288 44.0667 72.6108 45C73.7529 45.8667 74.6246 46.9 75.2257 48.1C75.8869 49.3 76.2175 50.6 76.2175 52V92ZM60.0776 86.2V57.8C60.0776 55.8667 59.5065 54.2 58.3644 52.8C57.2824 51.4 55.9599 50.7 54.397 50.7C52.8341 50.7 51.5117 51.4 50.4296 52.8C49.3476 54.2 48.8066 55.8667 48.8066 57.8V86.2C48.8066 88.1333 49.3476 89.8 50.4296 91.2C51.5117 92.5333 52.8341 93.2 54.397 93.2C55.9599 93.2 57.2824 92.5333 58.3644 91.2C59.5065 89.8 60.0776 88.1333 60.0776 86.2ZM131.649 92C131.649 93.4 131.319 94.7 130.658 95.9C130.056 97.1 129.185 98.1667 128.043 99.1C126.961 99.9667 125.668 100.667 124.165 101.2C122.663 101.733 121.07 102 119.387 102H96.7546C95.0714 102 93.4785 101.733 91.9757 101.2C90.4729 100.667 89.1504 99.9667 88.0083 99.1C86.9263 98.1667 86.0547 97.1 85.3935 95.9C84.7923 94.7 84.4918 93.4 84.4918 92V52C84.4918 50.6 84.7923 49.3 85.3935 48.1C86.0547 46.9 86.9263 45.8667 88.0083 45C89.1504 44.0667 90.4729 43.3333 91.9757 42.8C93.4785 42.2667 95.0714 42 96.7546 42H119.387C121.07 42 122.663 42.2667 124.165 42.8C125.668 43.3333 126.961 44.0667 128.043 45C129.185 45.8667 130.056 46.9 130.658 48.1C131.319 49.3 131.649 50.6 131.649 52V92ZM115.509 86.2V57.8C115.509 55.8667 114.938 54.2 113.796 52.8C112.714 51.4 111.392 50.7 109.829 50.7C108.266 50.7 106.943 51.4 105.861 52.8C104.779 54.2 104.238 55.8667 104.238 57.8V86.2C104.238 88.1333 104.779 89.8 105.861 91.2C106.943 92.5333 108.266 93.2 109.829 93.2C111.392 93.2 112.714 92.5333 113.796 91.2C114.938 89.8 115.509 88.1333 115.509 86.2ZM208 43.6C208 44.4 207.79 45.1333 207.369 45.8L191.229 72L207.369 98.3C207.79 98.9 208 99.6 208 100.4C208 100.933 207.85 101.333 207.549 101.6C207.309 101.867 207.008 102 206.647 102H184.827C183.985 102 183.144 101.6 182.302 100.8C181.521 100 180.89 99.1667 180.409 98.3L173.015 85.3L165.621 98.3C165.14 99.1667 164.479 100 163.638 100.8C162.856 101.6 162.045 102 161.203 102H139.383C139.022 102 138.691 101.867 138.391 101.6C138.15 101.333 138.03 100.933 138.03 100.4C138.03 99.6 138.24 98.9 138.661 98.3L154.801 72L138.661 45.8C138.24 45.1333 138.03 44.4 138.03 43.6C138.03 43.0667 138.15 42.6667 138.391 42.4C138.691 42.1333 139.022 42 139.383 42H161.203C162.045 42 162.856 42.4 163.638 43.2C164.479 44 165.14 44.8667 165.621 45.8L173.015 58.7L180.409 45.8C180.89 44.8667 181.521 44 182.302 43.2C183.144 42.4 183.985 42 184.827 42H206.647C207.008 42 207.309 42.1333 207.549 42.4C207.85 42.6667 208 43.0667 208 43.6Z" fill="#ABEC8D"/>
</svg>
