<svg width="1440" height="460" viewBox="0 0 1440 460" fill="none" xmlns="http://www.w3.org/2000/svg">
<path d="M0 460C15.7779 460 29.4522 446.347 29.4522 430.594V398.037C29.4522 381.233 29.4522 372.831 31.5559 366.53C35.7633 353.927 45.2301 343.425 57.8524 339.224C65.2155 337.123 73.6304 337.123 90.4602 337.123H481.753C501.738 335.023 517.516 319.269 519.62 298.265L520.672 288.813V278.31C522.776 257.306 538.554 241.553 558.539 239.452H738.408C761.549 239.452 774.171 239.452 782.586 235.251C791.001 231.05 798.364 223.699 802.571 215.297C806.779 206.895 806.779 194.292 806.779 171.187V68.2648C806.779 45.1598 806.779 32.5571 810.986 24.1553C815.194 15.7534 822.557 8.40183 830.972 4.20091C839.386 0 852.009 0 875.15 0H1440V460H0Z" fill="#181818"/>
</svg>
