<svg width="1440" height="1983" viewBox="0 0 1440 1983" fill="none" xmlns="http://www.w3.org/2000/svg">
<path opacity="0.1" d="M-104.999 20C-104.999 20 2246 279.867 1495 300.934C744 322 0.00101709 462 -104.999 589.929C-209.999 717.858 1738.5 487.092 1495 655.046C1251.5 823 26.501 831.5 -104.999 962.647C-236.499 1093.79 1539.5 927.336 1495 1120.17C1461.35 1265.97 563.925 1357.56 128.133 1393.58C103.73 1395.59 103.018 1432.72 127.379 1435.19C603.867 1483.54 1635.61 1581.42 1495 1507.15C1313 1411.02 -207.499 1932 -104.999 1728.55C-2.49894 1525.09 1098.5 1698 1495 2007" stroke="#2E3B9F" stroke-width="40"/>
</svg>
