<svg width="38" height="38" viewBox="0 0 38 38" fill="none" xmlns="http://www.w3.org/2000/svg">
<g clip-path="url(#clip0_40_754)">
<path d="M0.5 9C0.5 4.30558 4.30558 0.5 9 0.5H29C33.6944 0.5 37.5 4.30558 37.5 9V29C37.5 33.6944 33.6944 37.5 29 37.5H9C4.30558 37.5 0.5 33.6944 0.5 29V9Z" stroke="#181818"/>
<path d="M17.4802 20.1698C17.4802 21.2698 16.6802 22.1698 15.6802 22.1698C14.6802 22.1698 13.8802 21.2698 13.8802 20.1698C13.8802 19.0698 14.6702 18.1698 15.6802 18.1698C16.6902 18.1698 17.5002 19.0698 17.4802 20.1698ZM22.3202 18.1698C21.3102 18.1698 20.5202 19.0698 20.5202 20.1698C20.5202 21.2698 21.3302 22.1698 22.3202 22.1698C23.3102 22.1698 24.1202 21.2698 24.1202 20.1698C24.1402 19.0698 23.3202 18.1698 22.3202 18.1698ZM29.6502 24.5698C29.6302 24.7798 29.5202 24.9798 29.3402 25.0998C27.7102 26.2798 25.9802 27.1298 24.0502 27.7198C23.9802 27.7398 23.9002 27.7498 23.8302 27.7498C23.6002 27.7498 23.3702 27.6398 23.2302 27.4498C22.7902 26.8498 22.4002 26.2397 22.0902 25.6197C20.0502 26.1297 17.9402 26.1297 15.8902 25.6197C15.5602 26.2797 15.1702 26.8997 14.7402 27.4597C14.5502 27.7097 14.2302 27.8198 13.9202 27.7198C12.0202 27.1398 10.2902 26.2898 8.63023 25.0998C8.45023 24.9698 8.34023 24.7797 8.32023 24.5597C7.92023 20.3097 8.93022 16.4697 11.4302 12.8297C11.5102 12.7197 11.6102 12.6298 11.7402 12.5698C13.1102 11.9398 14.5602 11.4998 16.0602 11.2498C16.3802 11.1998 16.6902 11.3498 16.8402 11.6298C16.9602 11.8498 17.0702 12.0497 17.1602 12.2397C18.3802 12.1097 19.6102 12.1097 20.8402 12.2397C20.9402 12.0297 21.0602 11.8097 21.1702 11.6197C21.3302 11.3497 21.6302 11.2098 21.9402 11.2598C23.4202 11.5098 24.8702 11.9497 26.2602 12.5797C26.3802 12.6397 26.4902 12.7197 26.5702 12.8397C29.0502 16.4097 30.0902 20.3598 29.6602 24.5698H29.6502ZM25.4402 13.8597C24.4002 13.3997 23.3102 13.0597 22.2102 12.8397C22.1202 13.0197 22.0402 13.1897 21.9902 13.3397C21.8602 13.6597 21.5302 13.8597 21.1902 13.8097C19.7302 13.5997 18.2502 13.5997 16.8102 13.8097C16.4602 13.8597 16.1302 13.6697 16.0002 13.3397C15.9502 13.2097 15.8702 13.0397 15.7702 12.8397C14.6602 13.0597 13.5802 13.4097 12.5502 13.8597C10.4102 17.0497 9.51023 20.3897 9.79023 24.0797C11.0802 24.9597 12.4102 25.6397 13.8502 26.1197C13.9602 25.9597 14.0602 25.8098 14.1602 25.6398C13.8202 25.4798 13.4802 25.2998 13.1402 25.0998C12.9302 24.9698 12.7902 24.7498 12.7702 24.4998C12.7602 24.2498 12.8602 24.0097 13.0602 23.8597L13.1702 23.7797C13.2602 23.7097 13.3602 23.6398 13.4402 23.5698C13.6602 23.3798 13.9702 23.3397 14.2402 23.4597C17.3202 24.8497 20.6902 24.8497 23.7402 23.4597C24.0002 23.3397 24.3202 23.3798 24.5402 23.5698C24.6502 23.6698 24.7802 23.7598 24.9002 23.8498C25.1102 23.9998 25.2202 24.2397 25.2102 24.4897C25.2002 24.7397 25.0602 24.9698 24.8402 25.0998C24.5102 25.2998 24.1702 25.4798 23.8102 25.6398C23.9102 25.7998 24.0102 25.9597 24.1202 26.1197C25.5802 25.6297 26.9102 24.9597 28.1802 24.0797C28.4802 20.3797 27.5802 17.0297 25.4402 13.8597Z" fill="#181818"/>
</g>
<defs>
<clipPath id="clip0_40_754">
<rect width="38" height="38" fill="white"/>
</clipPath>
</defs>
</svg>
