<svg width="500" height="169" viewBox="0 0 500 169" fill="none" xmlns="http://www.w3.org/2000/svg">
<path d="M335.535 27.3782L343.632 39.8252H344.982L353.08 27.3782V43.4252H360.016V17.1812H352.18L344.308 29.1032L336.434 17.1812H328.599V43.4252H335.535V27.3782Z" fill="#2E3B9F"/>
<path d="M378.384 44.0242C387.195 44.0242 391.731 39.6382 391.731 31.0522V17.1812H384.795V31.0522C384.795 35.7012 382.845 37.7632 378.384 37.7632C373.923 37.7632 371.973 35.7002 371.973 31.0522V17.1812H365.037V31.0522C365.038 39.6382 369.574 44.0242 378.384 44.0242Z" fill="#2E3B9F"/>
<path d="M418.573 37.1632H403.69V17.1812H396.754V43.4252H418.573V37.1632Z" fill="#2E3B9F"/>
<path d="M423.596 43.4252H430.532V23.4422H439.53V17.1812H414.598V23.4422H423.596V43.4252Z" fill="#2E3B9F"/>
<path d="M450.102 17.1812H443.166V43.4242H450.102V17.1812Z" fill="#2E3B9F"/>
<path d="M335.535 63.2649L343.632 75.7119H344.982L353.08 63.2649V79.3109H360.016V53.0679H352.18L344.308 64.9899L336.434 53.0679H328.599V79.3109H335.535V63.2649Z" fill="#2E3B9F"/>
<path d="M372.574 53.0679H365.638V79.3109H372.574V53.0679Z" fill="#2E3B9F"/>
<path d="M378.197 53.0679V79.3109H400.016V73.0499H385.132V53.0679H378.197Z" fill="#2E3B9F"/>
<path d="M403.652 53.0679V79.3109H425.471V73.0499H410.588V53.0679H403.652Z" fill="#2E3B9F"/>
<path d="M436.043 53.0679H429.107V79.3109H436.043V53.0679Z" fill="#2E3B9F"/>
<path d="M469.259 66.1898C469.259 57.1918 464.31 52.4678 454.788 52.4678C445.266 52.4678 440.317 57.1918 440.317 66.1898C440.317 75.1868 445.266 79.9108 454.788 79.9108C464.31 79.9108 469.259 75.1868 469.259 66.1898ZM447.252 66.1898C447.252 61.0908 449.651 58.7288 454.788 58.7288C459.924 58.7288 462.323 61.0908 462.323 66.1898C462.323 71.2888 459.924 73.6508 454.788 73.6508C449.651 73.6498 447.252 71.2888 447.252 66.1898Z" fill="#2E3B9F"/>
<path d="M493.064 53.0679V69.2629L480.43 53.0679H473.494V79.3109H480.43V63.1149L493.064 79.3109H500V53.0679H493.064Z" fill="#2E3B9F"/>
<path d="M335.535 99.1511L343.632 111.598H344.982L353.08 99.1511V115.197H360.016V88.9541H352.18L344.308 100.876L336.434 88.9541H328.599V115.197H335.535V99.1511Z" fill="#2E3B9F"/>
<path d="M365.638 115.197H388.582V109.011H372.574V104.963H387.457V98.7761H372.574V95.1401H388.582V88.9541H365.638V115.197Z" fill="#2E3B9F"/>
<path d="M424.947 115.197V88.9541H417.112L409.239 100.876L401.366 88.9541H393.53V115.197H400.466V99.1511L408.564 111.598H409.914L418.011 99.1511V115.197H424.947Z" fill="#2E3B9F"/>
<path d="M328.599 131.102H337.597V151.084H344.533V131.102H353.531V124.84H328.599V131.102Z" fill="#2E3B9F"/>
<path d="M370.288 124.24C360.765 124.24 355.817 128.964 355.817 137.962C355.817 146.959 360.766 151.684 370.288 151.684C379.811 151.684 384.759 146.959 384.759 137.962C384.759 128.964 379.81 124.24 370.288 124.24ZM370.288 145.423C365.152 145.423 362.752 143.061 362.752 137.962C362.752 132.863 365.151 130.501 370.288 130.501C375.424 130.501 377.823 132.863 377.823 137.962C377.823 143.061 375.423 145.423 370.288 145.423Z" fill="#2E3B9F"/>
<path d="M415.35 124.84H406.615L397.954 134.513H395.93V124.84H388.994V151.084H395.93V140.774H398.104L407.326 151.084H416.25L403.765 137.25L415.35 124.84Z" fill="#2E3B9F"/>
<path d="M419.323 151.084H442.267V144.898H426.258V140.849H441.141V134.663H426.258V131.027H442.267V124.84H419.323V151.084Z" fill="#2E3B9F"/>
<path d="M466.784 141.036L454.151 124.84H447.215V151.084H454.151V134.888L466.784 151.084H473.721V124.84H466.784V141.036Z" fill="#2E3B9F"/>
<path d="M0 84.086C0 130.484 88.524 168.35 197.037 168.35C240.142 168.35 281.073 162.009 314.728 151.165V139.314C286.24 151.758 227.972 161.832 188.538 161.832C89.34 161.832 8.431 126.87 8.431 84.027C8.431 41.244 89.408 5.571 188.538 6.46C227.224 6.816 283.521 14.815 314.728 27.733V17.125C281.889 6.282 239.395 0 197.037 0C88.524 0 0 37.687 0 84.086Z" fill="#2E3B9F"/>
<path d="M264.961 76.1611L240.018 38.3931H215.193V44.4201H236.776L262.814 83.8471H267.108L293.146 44.4201H308.701V121.535H314.728V38.3931H289.903L264.961 76.1611Z" fill="#2E3B9F"/>
<path d="M212.193 61.94L206.408 70.7H237.167L262.823 110.133H267.099L292.754 70.7V121.535H298.781V61.939H291.26L264.961 102.367L238.659 61.939L212.193 61.94Z" fill="#2E3B9F"/>
<path d="M107.557 83.8471H111.851L137.889 44.4201H159.472V38.3931H134.647L109.704 76.1611L84.7615 38.3931H59.9365V121.535H65.9635V44.4201H81.5185L107.557 83.8471Z" fill="#2E3B9F"/>
<path d="M136.006 61.939L109.704 102.367L83.4048 61.939H75.8838V121.535H81.9108V70.7L107.566 110.133H111.842L137.496 70.701L137.497 70.7H168.094L162.308 61.94L136.006 61.939Z" fill="#2E3B9F"/>
<path d="M237.018 101.361H215.044V105.741H237.018V101.361Z" fill="#2E3B9F"/>
<path d="M237.018 110.121H215.044V114.501H237.018V110.121Z" fill="#2E3B9F"/>
<path d="M210.415 101.361H164.087L166.936 105.741H207.566L210.415 101.361Z" fill="#2E3B9F"/>
<path d="M199.016 118.881H175.485L178.335 123.261H196.167L199.016 118.881Z" fill="#2E3B9F"/>
<path d="M237.018 127.641H215.044V132.021H237.018V127.641Z" fill="#2E3B9F"/>
<path d="M204.716 110.121H169.786L172.636 114.501H201.866L204.716 110.121Z" fill="#2E3B9F"/>
<path d="M237.018 83.8398H197.73L194.837 88.2198H237.018V83.8398Z" fill="#2E3B9F"/>
<path d="M237.018 118.881H215.044V123.261H237.018V118.881Z" fill="#2E3B9F"/>
<path d="M237.018 136.402H215.044V140.782H237.018V136.402Z" fill="#2E3B9F"/>
<path d="M237.018 75.0801H203.515L200.623 79.4601H237.018V75.0801Z" fill="#2E3B9F"/>
<path d="M237.018 92.6001H191.945L189.052 96.9811H213.265L215.044 94.2461V96.9811H237.018V92.6001Z" fill="#2E3B9F"/>
<path d="M159.458 118.881H137.484V123.261H159.458V118.881Z" fill="#2E3B9F"/>
<path d="M159.458 110.121H137.484V114.501H159.458V110.121Z" fill="#2E3B9F"/>
<path d="M159.458 136.402H137.484V140.782H159.458V136.402Z" fill="#2E3B9F"/>
<path d="M190.467 132.022L193.317 127.641H181.185L184.035 132.022H190.467Z" fill="#2E3B9F"/>
<path d="M159.458 127.641H137.484V132.021H159.458V127.641Z" fill="#2E3B9F"/>
<path d="M159.458 101.361H137.484V105.741H159.458V101.361Z" fill="#2E3B9F"/>
<path d="M159.458 94.2461L161.237 96.9811H185.45L182.557 92.6001H137.484V96.9811H159.458V94.2461Z" fill="#2E3B9F"/>
<path d="M137.484 75.0801V79.4601H173.879L170.986 75.0801H137.484Z" fill="#2E3B9F"/>
<path d="M137.484 88.2198H179.665L176.772 83.8398H137.484V88.2198Z" fill="#2E3B9F"/>
</svg>
