<svg width="177" height="60" viewBox="0 0 177 60" fill="none" xmlns="http://www.w3.org/2000/svg">
<g clip-path="url(#clip0_52_1395)">
<path d="M118.779 9.75753L121.646 14.1937H122.124L124.99 9.75753V15.4767H127.446V6.12329H124.672L121.885 10.3723L119.098 6.12329H116.324V15.4767H118.779V9.75753Z" fill="#F8F8F8"/>
<path d="M133.947 15.6904C137.067 15.6904 138.672 14.1273 138.672 11.0672V6.12354H136.217V11.0672C136.217 12.7241 135.527 13.459 133.947 13.459C132.368 13.459 131.678 12.7238 131.678 11.0672V6.12354H129.223V11.0672C129.223 14.1273 130.829 15.6904 133.947 15.6904Z" fill="#F8F8F8"/>
<path d="M148.173 13.2452H142.905V6.12354H140.449V15.477H148.173V13.2452Z" fill="#F8F8F8"/>
<path d="M149.955 15.477H152.41V8.35497H155.595V6.12354H146.77V8.35497H149.955V15.477Z" fill="#F8F8F8"/>
<path d="M159.334 6.12354H156.879V15.4766H159.334V6.12354Z" fill="#F8F8F8"/>
<path d="M118.779 22.5478L121.646 26.984H122.124L124.99 22.5478V28.2666H127.446V18.9136H124.672L121.885 23.1626L119.098 18.9136H116.324V28.2666H118.779V22.5478Z" fill="#F8F8F8"/>
<path d="M131.893 18.9136H129.438V28.2666H131.893V18.9136Z" fill="#F8F8F8"/>
<path d="M133.883 18.9136V28.2666H141.607V26.0352H136.338V18.9136H133.883Z" fill="#F8F8F8"/>
<path d="M142.895 18.9136V28.2666H150.618V26.0352H145.35V18.9136H142.895Z" fill="#F8F8F8"/>
<path d="M154.358 18.9136H151.902V28.2666H154.358V18.9136Z" fill="#F8F8F8"/>
<path d="M166.117 23.5903C166.117 20.3834 164.365 18.6997 160.994 18.6997C157.623 18.6997 155.871 20.3834 155.871 23.5903C155.871 26.7968 157.623 28.4805 160.994 28.4805C164.365 28.4805 166.117 26.7968 166.117 23.5903ZM158.326 23.5903C158.326 21.773 159.175 20.9311 160.994 20.9311C162.812 20.9311 163.661 21.773 163.661 23.5903C163.661 25.4076 162.812 26.2494 160.994 26.2494C159.175 26.249 158.326 25.4076 158.326 23.5903Z" fill="#F8F8F8"/>
<path d="M174.545 18.9136V24.6855L170.073 18.9136H167.617V28.2666H170.073V22.4943L174.545 28.2666H177V18.9136H174.545Z" fill="#F8F8F8"/>
<path d="M118.779 35.3376L121.646 39.7737H122.124L124.99 35.3376V41.0564H127.446V31.7034H124.672L121.885 35.9524L119.098 31.7034H116.324V41.0564H118.779V35.3376Z" fill="#F8F8F8"/>
<path d="M129.438 41.0567H137.56V38.852H131.893V37.4093H137.161V35.2042H131.893V33.9083H137.56V31.7036H129.438V41.0567Z" fill="#F8F8F8"/>
<path d="M150.43 41.0567V31.7036H147.657L144.87 35.9526L142.083 31.7036H139.309V41.0567H141.764V35.3378L144.631 39.774H145.109L147.975 35.3378V41.0567H150.43Z" fill="#F8F8F8"/>
<path d="M116.324 46.725H119.509V53.8466H121.965V46.725H125.15V44.4932H116.324V46.725Z" fill="#F8F8F8"/>
<path d="M131.084 44.2793C127.713 44.2793 125.961 45.9629 125.961 49.1699C125.961 52.3764 127.713 54.0604 131.084 54.0604C134.455 54.0604 136.206 52.3764 136.206 49.1699C136.206 45.9629 134.454 44.2793 131.084 44.2793ZM131.084 51.829C129.266 51.829 128.416 50.9872 128.416 49.1699C128.416 47.3526 129.265 46.5107 131.084 46.5107C132.902 46.5107 133.751 47.3526 133.751 49.1699C133.751 50.9872 132.901 51.829 131.084 51.829Z" fill="#F8F8F8"/>
<path d="M147.033 44.4932H143.941L140.875 47.9406H140.158V44.4932H137.703V53.8466H140.158V50.1721H140.928L144.193 53.8466H147.352L142.932 48.9161L147.033 44.4932Z" fill="#F8F8F8"/>
<path d="M148.441 53.8466H156.564V51.6419H150.896V50.1988H156.165V47.9941H150.896V46.6982H156.564V44.4932H148.441V53.8466Z" fill="#F8F8F8"/>
<path d="M165.24 50.2655L160.768 44.4932H158.312V53.8466H160.768V48.0743L165.24 53.8466H167.696V44.4932H165.24V50.2655Z" fill="#F8F8F8"/>
<path d="M0 29.9685C0 46.5048 31.3375 60.0004 69.7511 60.0004C85.0103 60.0004 99.4998 57.7404 111.414 53.8756V49.6519C101.329 54.0869 80.7021 57.6773 66.7424 57.6773C31.6264 57.6773 2.98457 45.2168 2.98457 29.9474C2.98457 14.6995 31.6504 1.98552 66.7424 2.30236C80.4373 2.42924 100.366 5.2801 111.414 9.88411V6.10339C99.7887 2.23892 84.7458 0 69.7511 0C31.3375 0 0 13.4317 0 29.9685Z" fill="#F8F8F8"/>
<path d="M93.7976 27.1442L84.9677 13.6836H76.1797V15.8316H83.8201L93.0375 29.8835H94.5576L103.775 15.8316H109.282V43.3156H111.415V13.6836H102.627L93.7976 27.1442Z" fill="#F8F8F8"/>
<path d="M75.1182 22.0756L73.0703 25.1976H83.959L93.0412 39.2517H94.5549L103.637 25.1976V43.3154H105.77V22.0752H103.108L93.7981 36.4838L84.4872 22.0752L75.1182 22.0756Z" fill="#F8F8F8"/>
<path d="M38.0762 29.8835H39.5963L48.8138 15.8316H56.4541V13.6836H47.6661L38.8363 27.1442L30.0068 13.6836H21.2188V43.3156H23.3523V15.8316H28.8588L38.0762 29.8835Z" fill="#F8F8F8"/>
<path d="M48.1465 22.0752L38.8356 36.4838L29.5257 22.0752H26.8633V43.3154H28.9968V25.1976L38.0787 39.2517H39.5924L48.6739 25.198L48.6743 25.1976H59.5056L57.4574 22.0756L48.1465 22.0752Z" fill="#F8F8F8"/>
<path d="M83.9038 36.1255H76.125V37.6865H83.9038V36.1255Z" fill="#F8F8F8"/>
<path d="M83.9038 39.2476H76.125V40.8086H83.9038V39.2476Z" fill="#F8F8F8"/>
<path d="M74.486 36.1255H58.0859L59.0945 37.6865H73.4775L74.486 36.1255Z" fill="#F8F8F8"/>
<path d="M70.4511 42.3696H62.1211L63.13 43.9307H69.4425L70.4511 42.3696Z" fill="#F8F8F8"/>
<path d="M83.9038 45.4917H76.125V47.0527H83.9038V45.4917Z" fill="#F8F8F8"/>
<path d="M72.4707 39.2476H60.1055L61.1144 40.8086H71.4618L72.4707 39.2476Z" fill="#F8F8F8"/>
<path d="M83.9047 29.8809H69.9968L68.9727 31.4419H83.9047V29.8809Z" fill="#F8F8F8"/>
<path d="M83.9038 42.3696H76.125V43.9307H83.9038V42.3696Z" fill="#F8F8F8"/>
<path d="M83.9038 48.6138H76.125V50.1748H83.9038V48.6138Z" fill="#F8F8F8"/>
<path d="M83.9034 26.7588H72.0433L71.0195 28.3198H83.9034V26.7588Z" fill="#F8F8F8"/>
<path d="M83.9057 33.0029H67.9499L66.9258 34.5643H75.4972L76.127 33.5896V34.5643H83.9057V33.0029Z" fill="#F8F8F8"/>
<path d="M56.4468 42.3696H48.668V43.9307H56.4468V42.3696Z" fill="#F8F8F8"/>
<path d="M56.4468 39.2476H48.668V40.8086H56.4468V39.2476Z" fill="#F8F8F8"/>
<path d="M56.4468 48.6138H48.668V50.1748H56.4468V48.6138Z" fill="#F8F8F8"/>
<path d="M67.4265 47.0531L68.4354 45.4917H64.1406L65.1495 47.0531H67.4265Z" fill="#F8F8F8"/>
<path d="M56.4468 45.4917H48.668V47.0527H56.4468V45.4917Z" fill="#F8F8F8"/>
<path d="M56.4468 36.1255H48.668V37.6865H56.4468V36.1255Z" fill="#F8F8F8"/>
<path d="M56.4468 33.5896L57.0765 34.5643H65.6479L64.6238 33.0029H48.668V34.5643H56.4468V33.5896Z" fill="#F8F8F8"/>
<path d="M48.668 26.7588V28.3198H61.5518L60.5277 26.7588H48.668Z" fill="#F8F8F8"/>
<path d="M48.668 31.4419H63.6L62.5759 29.8809H48.668V31.4419Z" fill="#F8F8F8"/>
</g>
<defs>
<clipPath id="clip0_52_1395">
<rect width="177" height="60" fill="white"/>
</clipPath>
</defs>
</svg>
