<svg width="24" height="24" viewBox="0 0 24 24" fill="none" xmlns="http://www.w3.org/2000/svg">
<rect x="0.5" y="0.5" width="23" height="23" rx="4.5" fill="white" fill-opacity="0.15"/>
<rect x="0.5" y="0.5" width="23" height="23" rx="4.5" stroke="white"/>
<g clip-path="url(#clip0_40_736)">
<mask id="mask0_40_736" style="mask-type:luminance" maskUnits="userSpaceOnUse" x="3" y="3" width="18" height="18">
<path d="M3 3H21V21H3V3Z" fill="white"/>
</mask>
<g mask="url(#mask0_40_736)">
<path fill-rule="evenodd" clip-rule="evenodd" d="M12 5.4375C12.1492 5.4375 12.2923 5.49676 12.3977 5.60225C12.5032 5.70774 12.5625 5.85082 12.5625 6V18C12.5625 18.1492 12.5032 18.2923 12.3977 18.3977C12.2923 18.5032 12.1492 18.5625 12 18.5625C11.8508 18.5625 11.7077 18.5032 11.6023 18.3977C11.4968 18.2923 11.4375 18.1492 11.4375 18V6C11.4375 5.85082 11.4968 5.70774 11.6023 5.60225C11.7077 5.49676 11.8508 5.4375 12 5.4375ZM6 10.6875C6.14918 10.6875 6.29226 10.7468 6.39775 10.8523C6.50324 10.9577 6.5625 11.1008 6.5625 11.25V12.75C6.5625 12.8992 6.50324 13.0423 6.39775 13.1477C6.29226 13.2532 6.14918 13.3125 6 13.3125C5.85082 13.3125 5.70774 13.2532 5.60225 13.1477C5.49676 13.0423 5.4375 12.8992 5.4375 12.75V11.25C5.4375 11.1008 5.49676 10.9577 5.60225 10.8523C5.70774 10.7468 5.85082 10.6875 6 10.6875ZM18 10.6875C18.1492 10.6875 18.2923 10.7468 18.3977 10.8523C18.5032 10.9577 18.5625 11.1008 18.5625 11.25V12.75C18.5625 12.8992 18.5032 13.0423 18.3977 13.1477C18.2923 13.2532 18.1492 13.3125 18 13.3125C17.8508 13.3125 17.7077 13.2532 17.6023 13.1477C17.4968 13.0423 17.4375 12.8992 17.4375 12.75V11.25C17.4375 11.1008 17.4968 10.9577 17.6023 10.8523C17.7077 10.7468 17.8508 10.6875 18 10.6875Z" fill="white"/>
<path opacity="0.5" d="M15.5625 8.25C15.5625 8.10082 15.5032 7.95774 15.3977 7.85225C15.2923 7.74676 15.1492 7.6875 15 7.6875C14.8508 7.6875 14.7077 7.74676 14.6023 7.85225C14.4968 7.95774 14.4375 8.10082 14.4375 8.25V15.75C14.4375 15.8992 14.4968 16.0423 14.6023 16.1477C14.7077 16.2532 14.8508 16.3125 15 16.3125C15.1492 16.3125 15.2923 16.2532 15.3977 16.1477C15.5032 16.0423 15.5625 15.8992 15.5625 15.75V8.25ZM9.5625 8.25C9.5625 8.10082 9.50324 7.95774 9.39775 7.85225C9.29226 7.74676 9.14918 7.6875 9 7.6875C8.85082 7.6875 8.70774 7.74676 8.60225 7.85225C8.49676 7.95774 8.4375 8.10082 8.4375 8.25V15.75C8.4375 15.8992 8.49676 16.0423 8.60225 16.1477C8.70774 16.2532 8.85082 16.3125 9 16.3125C9.14918 16.3125 9.29226 16.2532 9.39775 16.1477C9.50324 16.0423 9.5625 15.8992 9.5625 15.75V8.25Z" fill="white"/>
</g>
</g>
<defs>
<clipPath id="clip0_40_736">
<rect width="18" height="18" fill="white" transform="translate(3 3)"/>
</clipPath>
</defs>
</svg>
