<svg width="38" height="38" viewBox="0 0 38 38" fill="none" xmlns="http://www.w3.org/2000/svg">
<g clip-path="url(#clip0_40_749)">
<path fill-rule="evenodd" clip-rule="evenodd" d="M29 1H9C4.58172 1 1 4.58172 1 9V29C1 33.4183 4.58172 37 9 37H29C33.4183 37 37 33.4183 37 29V9C37 4.58172 33.4183 1 29 1ZM9 0C4.02944 0 0 4.02944 0 9V29C0 33.9706 4.02944 38 9 38H29C33.9706 38 38 33.9706 38 29V9C38 4.02944 33.9706 0 29 0H9Z" fill="#181818"/>
<path d="M28.6999 12.5099C28.6699 12.3699 28.5999 11.9399 28.1999 11.6099C27.7699 11.2599 27.2299 11.2399 27.0699 11.2499C26.3299 11.2599 25.4899 11.5399 20.6099 13.5799C19.0099 14.2499 15.7499 15.6599 10.9399 17.7699C10.1999 18.0699 9.34993 18.5099 9.24993 19.2899C9.10993 20.4199 10.2599 20.7799 11.1899 21.0799L11.5499 21.1899C12.2699 21.4299 13.5899 21.8199 14.3399 21.8399C15.0499 21.8599 15.7799 21.5899 16.5799 21.0399C17.7799 20.2299 18.7699 19.5599 19.5999 18.9999C19.4699 19.1199 19.3499 19.2399 19.2499 19.3299C18.8299 19.7299 18.5299 20.0099 18.4699 20.0699C18.3499 20.1999 18.2199 20.3199 18.0999 20.4399C17.5499 20.9699 16.9899 21.5199 17.0599 22.3099C17.1299 23.0599 17.7699 23.5599 18.2399 23.8699C18.9199 24.3199 19.4699 24.6999 20.0099 25.0699C20.5899 25.4699 21.1799 25.8699 21.9399 26.3699C22.1299 26.4899 22.2999 26.6199 22.4799 26.7399C23.1699 27.2399 23.8899 27.7499 24.8199 27.7499C24.8999 27.7499 24.9699 27.7499 25.0499 27.7399C25.6899 27.6799 26.5199 27.2299 26.8499 25.4199C27.3799 22.5699 28.4799 16.1099 28.7399 13.3799C28.7699 13.0699 28.7399 12.6999 28.7099 12.5199L28.6999 12.5099ZM27.2399 13.2299C26.9899 15.8899 25.8799 22.4099 25.3699 25.1499C25.2099 26.0399 24.9499 26.2399 24.9099 26.2499C24.4599 26.2799 24.0199 25.9999 23.3499 25.5199C23.1599 25.3899 22.9699 25.2499 22.7699 25.1099C22.0199 24.6199 21.4399 24.2199 20.8699 23.8199C20.3199 23.4399 19.7699 23.0699 19.0799 22.6099C18.6599 22.3299 18.5799 22.1799 18.5599 22.1799C18.5999 22.0399 18.9299 21.7199 19.1499 21.5099C19.2799 21.3799 19.4199 21.2499 19.5599 21.0999C19.6199 21.0299 19.8999 20.7799 20.2799 20.4199C24.1999 16.7599 24.2399 16.5899 24.3099 16.2599C24.3699 15.9699 24.3299 15.5299 23.9999 15.2499C23.6199 14.8999 23.1399 14.9999 22.9899 15.0399C22.7699 15.0899 22.6399 15.1199 15.7399 19.7999C15.2199 20.1599 14.7899 20.3599 14.3799 20.3299C13.9899 20.3299 13.0799 20.0999 12.0199 19.7499L11.6499 19.6299C11.4299 19.5599 11.1699 19.4799 10.9599 19.3999C11.0799 19.3299 11.2599 19.2499 11.5099 19.1499C11.5099 19.1499 11.5199 19.1499 11.5299 19.1499C16.3399 17.0499 19.5799 15.6399 21.1799 14.9699C25.3599 13.2199 26.5799 12.7699 27.0899 12.7599C27.0899 12.7599 27.1999 12.7699 27.2099 12.7699C27.2299 12.8799 27.2399 13.0999 27.2299 13.2399L27.2399 13.2299Z" fill="#181818"/>
</g>
<defs>
<clipPath id="clip0_40_749">
<rect width="38" height="38" fill="white"/>
</clipPath>
</defs>
</svg>
