<svg width="38" height="38" viewBox="0 0 38 38" fill="none" xmlns="http://www.w3.org/2000/svg">
<g clip-path="url(#clip0_52_1448)">
<path d="M0.5 9C0.5 4.30558 4.30558 0.5 9 0.5H29C33.6944 0.5 37.5 4.30558 37.5 9V29C37.5 33.6944 33.6944 37.5 29 37.5H9C4.30558 37.5 0.5 33.6944 0.5 29V9Z" stroke="#F8F8F8"/>
<path d="M28.7 12.5099C28.67 12.3699 28.6 11.9399 28.2 11.6099C27.77 11.2599 27.23 11.2399 27.07 11.2499C26.33 11.2599 25.49 11.5399 20.61 13.5799C19.01 14.2499 15.75 15.6599 10.94 17.7699C10.2 18.0699 9.34999 18.5099 9.24999 19.2899C9.10999 20.4199 10.26 20.7799 11.19 21.0799L11.55 21.1899C12.27 21.4299 13.59 21.8199 14.34 21.8399C15.05 21.8599 15.78 21.5899 16.58 21.0399C17.78 20.2299 18.77 19.5599 19.6 18.9999C19.47 19.1199 19.35 19.2399 19.25 19.3299C18.83 19.7299 18.53 20.0099 18.47 20.0699C18.35 20.1999 18.22 20.3199 18.1 20.4399C17.55 20.9699 16.99 21.5199 17.06 22.3099C17.13 23.0599 17.77 23.5599 18.24 23.8699C18.92 24.3199 19.47 24.6999 20.01 25.0699C20.59 25.4699 21.18 25.8699 21.94 26.3699C22.13 26.4899 22.3 26.6199 22.48 26.7399C23.17 27.2399 23.89 27.7499 24.82 27.7499C24.9 27.7499 24.97 27.7499 25.05 27.7399C25.69 27.6799 26.52 27.2299 26.85 25.4199C27.38 22.5699 28.48 16.1099 28.74 13.3799C28.77 13.0699 28.74 12.6999 28.71 12.5199L28.7 12.5099ZM27.24 13.2299C26.99 15.8899 25.88 22.4099 25.37 25.1499C25.21 26.0399 24.95 26.2399 24.91 26.2499C24.46 26.2799 24.02 25.9999 23.35 25.5199C23.16 25.3899 22.97 25.2499 22.77 25.1099C22.02 24.6199 21.44 24.2199 20.87 23.8199C20.32 23.4399 19.77 23.0699 19.08 22.6099C18.66 22.3299 18.58 22.1799 18.56 22.1799C18.6 22.0399 18.93 21.7199 19.15 21.5099C19.28 21.3799 19.42 21.2499 19.56 21.0999C19.62 21.0299 19.9 20.7799 20.28 20.4199C24.2 16.7599 24.24 16.5899 24.31 16.2599C24.37 15.9699 24.33 15.5299 24 15.2499C23.62 14.8999 23.14 14.9999 22.99 15.0399C22.77 15.0899 22.64 15.1199 15.74 19.7999C15.22 20.1599 14.79 20.3599 14.38 20.3299C13.99 20.3299 13.08 20.0999 12.02 19.7499L11.65 19.6299C11.43 19.5599 11.17 19.4799 10.96 19.3999C11.08 19.3299 11.26 19.2499 11.51 19.1499C11.51 19.1499 11.52 19.1499 11.53 19.1499C16.34 17.0499 19.58 15.6399 21.18 14.9699C25.36 13.2199 26.58 12.7699 27.09 12.7599C27.09 12.7599 27.2 12.7699 27.21 12.7699C27.23 12.8799 27.24 13.0999 27.23 13.2399L27.24 13.2299Z" fill="#F8F8F8"/>
</g>
<defs>
<clipPath id="clip0_52_1448">
<rect width="38" height="38" fill="white"/>
</clipPath>
</defs>
</svg>
