<svg width="324" height="73" viewBox="0 0 324 73" fill="none" xmlns="http://www.w3.org/2000/svg">
<g clip-path="url(#clip0_40_206)">
<g clip-path="url(#clip1_40_206)">
<path d="M300.54 6.74194V15.3548C300.54 18.526 303.107 21.0968 306.274 21.0968H317.265C320.433 21.0968 323 23.6675 323 26.8387V46.6962V64.6398C323 67.811 320.433 70.3817 317.265 70.3817H184.894H6.16812C3.00076 70.3817 0.433624 67.811 0.433624 64.6398V50.285C0.433624 47.1138 3.00076 44.543 6.16812 44.543H24.3274C27.4948 44.543 30.0619 41.9723 30.0619 38.8011V33.5376C30.0619 30.3665 27.4948 27.7957 24.3274 27.7957H12.8584C9.69104 27.7957 7.12387 25.2249 7.12387 22.0538V6.74194C7.12387 3.57075 9.69104 1 12.8584 1H294.805C297.972 1 300.54 3.57075 300.54 6.74194Z" fill="white" stroke="black"/>
<path d="M312.927 0.785156H322.088C322.616 0.785156 323.044 1.13659 323.044 1.5701V9.09444C323.044 9.79375 322.014 10.144 321.412 9.64948L312.251 2.12515C311.649 1.63065 312.075 0.785156 312.927 0.785156Z" fill="black"/>
</g>
<path d="M48.5645 18V16.6909H51.4736V7.67273H48.5645V6.36364H55.8373V7.67273H52.9282V16.6909H55.8373V18H48.5645ZM61.0211 18V7.67273H57.3848V6.36364H66.112V7.67273H62.4757V18H61.0211ZM68.9686 12.1818L70.5686 6.36364H73.4632L70.1905 12.1818H68.9686ZM81.0325 18.0873C80.1598 18.0873 79.3452 17.9467 78.5889 17.6655C77.8325 17.3842 77.1537 16.8703 76.5525 16.1236L77.5998 15.1345C78.007 15.6873 78.4919 16.0994 79.0543 16.3709C79.6264 16.6424 80.3004 16.7782 81.0761 16.7782C81.7937 16.7782 82.3707 16.6133 82.807 16.2836C83.2531 15.9442 83.4761 15.4885 83.4761 14.9164C83.4761 14.3636 83.287 13.9418 82.9089 13.6509C82.5307 13.3503 81.784 13.0352 80.6689 12.7055C79.2531 12.2982 78.2883 11.857 77.7743 11.3818C77.2604 10.9067 77.0034 10.2327 77.0034 9.36C77.0034 8.35152 77.338 7.5903 78.007 7.07636C78.6858 6.56242 79.5052 6.30545 80.4652 6.30545C81.2798 6.30545 82.0507 6.45091 82.778 6.74182C83.5149 7.02303 84.1646 7.52727 84.727 8.25455L83.7234 9.25818C83.3355 8.70545 82.8507 8.29333 82.2689 8.02182C81.687 7.7503 81.0955 7.61455 80.4943 7.61455C79.8834 7.61455 79.3937 7.74061 79.0252 7.99273C78.6567 8.23515 78.4725 8.64727 78.4725 9.22909C78.4725 9.74303 78.6713 10.1503 79.0689 10.4509C79.4761 10.7418 80.2713 11.057 81.4543 11.3964C82.7925 11.7842 83.704 12.2109 84.1889 12.6764C84.6834 13.1321 84.9307 13.7964 84.9307 14.6691C84.9307 15.7842 84.5331 16.6327 83.738 17.2145C82.9428 17.7964 82.041 18.0873 81.0325 18.0873ZM101.495 18L97.6111 8.19636V18H96.302V6.36364H98.2948L102.266 16.3855V6.36364H103.575V18H101.495ZM105.85 18V16.6909H108.759V7.67273H105.85V6.36364H113.122V7.67273H110.213V16.6909H113.122V18H105.85ZM119.179 18.1455C117.821 18.1455 116.803 17.8012 116.124 17.1127C115.446 16.4145 115.106 15.3673 115.106 13.9709V10.4509C115.106 9.03515 115.446 7.97818 116.124 7.28C116.803 6.57212 117.826 6.21818 119.193 6.21818C120.532 6.21818 121.521 6.53333 122.161 7.16364C122.81 7.78424 123.174 8.78303 123.252 10.16L121.797 10.3055C121.7 9.25818 121.462 8.53576 121.084 8.13818C120.716 7.73091 120.081 7.52727 119.179 7.52727C118.219 7.52727 117.54 7.7503 117.142 8.19636C116.755 8.63273 116.561 9.38424 116.561 10.4509V13.9709C116.561 15.0182 116.755 15.76 117.142 16.1964C117.54 16.623 118.219 16.8364 119.179 16.8364C120.081 16.8364 120.716 16.6424 121.084 16.2545C121.462 15.857 121.7 15.1442 121.797 14.1164L123.252 14.2618C123.174 15.6194 122.81 16.6085 122.161 17.2291C121.521 17.84 120.527 18.1455 119.179 18.1455ZM124.945 18V6.36364H132.508V7.67273H126.399V11.0182H131.781V12.3273H126.399V16.6909H132.508V18H124.945ZM144.04 18V6.36364H147.647C148.859 6.36364 149.751 6.58667 150.323 7.03273C150.905 7.47879 151.196 8.16727 151.196 9.09818V9.75273C151.196 10.2473 151.055 10.6642 150.774 11.0036C150.493 11.3333 150.105 11.5418 149.61 11.6291V12.0509C150.241 12.1091 150.74 12.3467 151.109 12.7636C151.477 13.1806 151.661 13.7188 151.661 14.3782V15.0327C151.661 16.0412 151.341 16.7879 150.701 17.2727C150.061 17.7576 149.077 18 147.749 18H144.04ZM145.494 11.3091H147.792C148.481 11.3091 148.98 11.183 149.29 10.9309C149.61 10.6691 149.77 10.257 149.77 9.69455V9.28727C149.77 8.72485 149.61 8.31758 149.29 8.06545C148.98 7.80364 148.481 7.67273 147.792 7.67273H145.494V11.3091ZM145.494 16.6909H148.083C148.82 16.6909 149.358 16.5503 149.698 16.2691C150.037 15.9782 150.207 15.5127 150.207 14.8727V14.4073C150.207 13.7673 150.037 13.3067 149.698 13.0255C149.358 12.7345 148.82 12.5891 148.083 12.5891H145.494V16.6909ZM153.587 18V6.36364H161.151V7.67273H155.042V11.0182H160.423V12.3273H155.042V16.6909H161.151V18H153.587ZM163.135 18V16.6909H166.044V7.67273H163.135V6.36364H170.407V7.67273H167.498V16.6909H170.407V18H163.135ZM177.875 18L173.991 8.19636V18H172.682V6.36364H174.675L178.646 16.3855V6.36364H179.955V18H177.875ZM186.157 18.1455C184.799 18.1455 183.757 17.7867 183.03 17.0691C182.302 16.3418 181.939 15.3091 181.939 13.9709V10.4509C181.939 9.09333 182.293 8.05091 183 7.32364C183.708 6.58667 184.717 6.21818 186.026 6.21818C187.219 6.21818 188.125 6.51879 188.746 7.12C189.376 7.72121 189.725 8.63758 189.793 9.86909L188.339 10.0145C188.261 9.11273 188.043 8.47273 187.684 8.09455C187.325 7.71636 186.768 7.52727 186.011 7.52727C185.071 7.52727 184.397 7.75515 183.99 8.21091C183.592 8.65697 183.393 9.40364 183.393 10.4509V13.9709C183.393 15.0085 183.607 15.7455 184.033 16.1818C184.46 16.6182 185.168 16.8364 186.157 16.8364C187.049 16.8364 187.684 16.5891 188.062 16.0945C188.44 15.5903 188.63 14.7467 188.63 13.5636H185.866V12.2545H190.084V13.8255C190.084 15.2121 189.745 16.2788 189.066 17.0255C188.387 17.7721 187.417 18.1455 186.157 18.1455ZM201.325 18V6.36364H202.779V11.0182H207.143V6.36364H208.597V18H207.143V12.3273H202.779V18H201.325ZM210.872 18V6.36364H218.436V7.67273H212.327V11.0182H217.708V12.3273H212.327V16.6909H218.436V18H210.872ZM221.874 12.2109H224.783C225.569 12.2109 226.126 12.0703 226.456 11.7891C226.795 11.4982 226.965 11.0133 226.965 10.3345V9.43273C226.965 8.79273 226.795 8.34182 226.456 8.08C226.126 7.80849 225.569 7.67273 224.783 7.67273H221.874V12.2109ZM221.874 18H220.42V6.36364H224.798C226.01 6.36364 226.917 6.62061 227.518 7.13455C228.119 7.63879 228.42 8.40485 228.42 9.43273V10.3345C228.42 11.2655 228.182 11.9927 227.707 12.5164C227.241 13.04 226.529 13.3503 225.569 13.4473L228.55 18H226.892L223.94 13.4909H221.874V18ZM229.967 18V6.36364H237.531V7.67273H231.422V11.0182H236.803V12.3273H231.422V16.6909H237.531V18H229.967ZM249.062 18V6.36364H252.669C253.881 6.36364 254.774 6.58667 255.346 7.03273C255.927 7.47879 256.218 8.16727 256.218 9.09818V9.75273C256.218 10.2473 256.078 10.6642 255.797 11.0036C255.515 11.3333 255.127 11.5418 254.633 11.6291V12.0509C255.263 12.1091 255.763 12.3467 256.131 12.7636C256.5 13.1806 256.684 13.7188 256.684 14.3782V15.0327C256.684 16.0412 256.364 16.7879 255.724 17.2727C255.084 17.7576 254.1 18 252.771 18H249.062ZM250.517 11.3091H252.815C253.503 11.3091 254.003 11.183 254.313 10.9309C254.633 10.6691 254.793 10.257 254.793 9.69455V9.28727C254.793 8.72485 254.633 8.31758 254.313 8.06545C254.003 7.80364 253.503 7.67273 252.815 7.67273H250.517V11.3091ZM250.517 16.6909H253.106C253.843 16.6909 254.381 16.5503 254.72 16.2691C255.06 15.9782 255.229 15.5127 255.229 14.8727V14.4073C255.229 13.7673 255.06 13.3067 254.72 13.0255C254.381 12.7345 253.843 12.5891 253.106 12.5891H250.517V16.6909ZM262.246 18.1455C261.034 18.1455 260.122 17.8012 259.511 17.1127C258.91 16.4145 258.61 15.3673 258.61 13.9709V6.36364H260.064V13.9709C260.064 15.0085 260.229 15.7455 260.559 16.1818C260.898 16.6182 261.46 16.8364 262.246 16.8364C263.031 16.8364 263.589 16.6182 263.919 16.1818C264.258 15.7455 264.428 15.0085 264.428 13.9709V6.36364H265.882V13.9709C265.882 15.3673 265.577 16.4145 264.966 17.1127C264.365 17.8012 263.458 18.1455 262.246 18.1455ZM271.066 18V7.67273H267.43V6.36364H276.157V7.67273H272.521V18H271.066Z" fill="#4A3C93"/>
<path d="M52.39 40.0873C51.5173 40.0873 50.7027 39.9467 49.9464 39.6655C49.19 39.3842 48.5112 38.8703 47.91 38.1236L48.9573 37.1345C49.3645 37.6873 49.8494 38.0994 50.4118 38.3709C50.9839 38.6424 51.6579 38.7782 52.4336 38.7782C53.1512 38.7782 53.7282 38.6133 54.1645 38.2836C54.6106 37.9442 54.8336 37.4885 54.8336 36.9164C54.8336 36.3636 54.6445 35.9418 54.2664 35.6509C53.8882 35.3503 53.1415 35.0352 52.0264 34.7055C50.6106 34.2982 49.6458 33.857 49.1318 33.3818C48.6179 32.9067 48.3609 32.2327 48.3609 31.36C48.3609 30.3515 48.6955 29.5903 49.3645 29.0764C50.0433 28.5624 50.8627 28.3055 51.8227 28.3055C52.6373 28.3055 53.4082 28.4509 54.1355 28.7418C54.8724 29.023 55.5221 29.5273 56.0845 30.2545L55.0809 31.2582C54.693 30.7055 54.2082 30.2933 53.6264 30.0218C53.0445 29.7503 52.453 29.6145 51.8518 29.6145C51.2409 29.6145 50.7512 29.7406 50.3827 29.9927C50.0142 30.2352 49.83 30.6473 49.83 31.2291C49.83 31.743 50.0288 32.1503 50.4264 32.4509C50.8336 32.7418 51.6288 33.057 52.8118 33.3964C54.15 33.7842 55.0615 34.2109 55.5464 34.6764C56.0409 35.1321 56.2882 35.7964 56.2882 36.6691C56.2882 37.7842 55.8906 38.6327 55.0955 39.2145C54.3003 39.7964 53.3985 40.0873 52.39 40.0873ZM61.7484 40.1455C60.4684 40.1455 59.4939 39.7915 58.8248 39.0836C58.1557 38.3661 57.8211 37.3285 57.8211 35.9709V32.4509C57.8211 31.0739 58.1557 30.0267 58.8248 29.3091C59.5036 28.5818 60.483 28.2182 61.763 28.2182C63.0333 28.2182 64.003 28.5818 64.672 29.3091C65.3411 30.0267 65.6757 31.0739 65.6757 32.4509V35.9709C65.6757 37.3285 65.3411 38.3661 64.672 39.0836C64.003 39.7915 63.0284 40.1455 61.7484 40.1455ZM61.7484 38.8364C62.6405 38.8364 63.2757 38.6182 63.6539 38.1818C64.032 37.7455 64.2211 37.0085 64.2211 35.9709V32.4509C64.2211 31.3939 64.032 30.6424 63.6539 30.1964C63.2757 29.7503 62.6405 29.5273 61.7484 29.5273C60.8563 29.5273 60.2211 29.7503 59.843 30.1964C59.4648 30.6424 59.2757 31.3939 59.2757 32.4509V35.9709C59.2757 37.0085 59.4648 37.7455 59.843 38.1818C60.2211 38.6182 60.8563 38.8364 61.7484 38.8364ZM70.5977 37.0909L68.5323 30.7055V40H67.2232V28.3636H69.1868L71.3395 35.36L73.4777 28.3636H75.3686V40H74.0595V30.6909L71.9941 37.0909H70.5977ZM77.207 40V28.3636H84.7707V29.6727H78.6616V33.0182H84.0434V34.3273H78.6616V38.6909H84.7707V40H77.207ZM89.6636 40V29.6727H86.0273V28.3636H94.7545V29.6727H91.1182V40H89.6636ZM96.302 40V28.3636H97.7566V33.0182H102.12V28.3636H103.575V40H102.12V34.3273H97.7566V40H96.302ZM105.85 40V38.6909H108.759V29.6727H105.85V28.3636H113.122V29.6727H110.213V38.6909H113.122V40H105.85ZM120.59 40L116.706 30.1964V40H115.397V28.3636H117.39L121.361 38.3855V28.3636H122.67V40H120.59ZM128.872 40.1455C127.514 40.1455 126.472 39.7867 125.745 39.0691C125.017 38.3418 124.654 37.3091 124.654 35.9709V32.4509C124.654 31.0933 125.008 30.0509 125.715 29.3236C126.423 28.5867 127.432 28.2182 128.741 28.2182C129.934 28.2182 130.84 28.5188 131.461 29.12C132.091 29.7212 132.44 30.6376 132.508 31.8691L131.054 32.0145C130.976 31.1127 130.758 30.4727 130.399 30.0945C130.04 29.7164 129.483 29.5273 128.726 29.5273C127.786 29.5273 127.112 29.7552 126.705 30.2109C126.307 30.657 126.108 31.4036 126.108 32.4509V35.9709C126.108 37.0085 126.322 37.7455 126.748 38.1818C127.175 38.6182 127.883 38.8364 128.872 38.8364C129.764 38.8364 130.399 38.5891 130.777 38.0945C131.155 37.5903 131.345 36.7467 131.345 35.5636H128.581V34.2545H132.799V35.8255C132.799 37.2121 132.46 38.2788 131.781 39.0255C131.102 39.7721 130.132 40.1455 128.872 40.1455ZM146.949 40V29.6727H143.312V28.3636H152.04V29.6727H148.403V40H146.949ZM153.587 40V28.3636H161.151V29.6727H155.042V33.0182H160.423V34.3273H155.042V38.6909H161.151V40H153.587ZM163.862 40V28.3636H165.316V38.6909H170.407V40H163.862ZM173.409 40V28.3636H174.864V38.6909H179.955V40H173.409ZM186.055 40.0873C185.182 40.0873 184.368 39.9467 183.611 39.6655C182.855 39.3842 182.176 38.8703 181.575 38.1236L182.622 37.1345C183.03 37.6873 183.514 38.0994 184.077 38.3709C184.649 38.6424 185.323 38.7782 186.099 38.7782C186.816 38.7782 187.393 38.6133 187.83 38.2836C188.276 37.9442 188.499 37.4885 188.499 36.9164C188.499 36.3636 188.31 35.9418 187.931 35.6509C187.553 35.3503 186.807 35.0352 185.691 34.7055C184.276 34.2982 183.311 33.857 182.797 33.3818C182.283 32.9067 182.026 32.2327 182.026 31.36C182.026 30.3515 182.36 29.5903 183.03 29.0764C183.708 28.5624 184.528 28.3055 185.488 28.3055C186.302 28.3055 187.073 28.4509 187.8 28.7418C188.537 29.023 189.187 29.5273 189.75 30.2545L188.746 31.2582C188.358 30.7055 187.873 30.2933 187.291 30.0218C186.71 29.7503 186.118 29.6145 185.517 29.6145C184.906 29.6145 184.416 29.7406 184.048 29.9927C183.679 30.2352 183.495 30.6473 183.495 31.2291C183.495 31.743 183.694 32.1503 184.091 32.4509C184.499 32.7418 185.294 33.057 186.477 33.3964C187.815 33.7842 188.727 34.2109 189.211 34.6764C189.706 35.1321 189.953 35.7964 189.953 36.6691C189.953 37.7842 189.556 38.6327 188.76 39.2145C187.965 39.7964 187.063 40.0873 186.055 40.0873ZM205.688 40H204.234V35.6364L200.074 28.3636H201.703L205.048 34.3273L208.234 28.3636H209.834L205.688 35.6364V40ZM214.508 40.1455C213.228 40.1455 212.254 39.7915 211.585 39.0836C210.916 38.3661 210.581 37.3285 210.581 35.9709V32.4509C210.581 31.0739 210.916 30.0267 211.585 29.3091C212.264 28.5818 213.243 28.2182 214.523 28.2182C215.793 28.2182 216.763 28.5818 217.432 29.3091C218.101 30.0267 218.436 31.0739 218.436 32.4509V35.9709C218.436 37.3285 218.101 38.3661 217.432 39.0836C216.763 39.7915 215.788 40.1455 214.508 40.1455ZM214.508 38.8364C215.401 38.8364 216.036 38.6182 216.414 38.1818C216.792 37.7455 216.981 37.0085 216.981 35.9709V32.4509C216.981 31.3939 216.792 30.6424 216.414 30.1964C216.036 29.7503 215.401 29.5273 214.508 29.5273C213.616 29.5273 212.981 29.7503 212.603 30.1964C212.225 30.6424 212.036 31.3939 212.036 32.4509V35.9709C212.036 37.0085 212.225 37.7455 212.603 38.1818C212.981 38.6182 213.616 38.8364 214.508 38.8364ZM224.056 40.1455C222.844 40.1455 221.932 39.8012 221.321 39.1127C220.72 38.4145 220.42 37.3673 220.42 35.9709V28.3636H221.874V35.9709C221.874 37.0085 222.039 37.7455 222.369 38.1818C222.708 38.6182 223.27 38.8364 224.056 38.8364C224.841 38.8364 225.399 38.6182 225.729 38.1818C226.068 37.7455 226.238 37.0085 226.238 35.9709V28.3636H227.692V35.9709C227.692 37.3673 227.387 38.4145 226.776 39.1127C226.175 39.8012 225.268 40.1455 224.056 40.1455ZM242.424 40V29.6727H238.787V28.3636H247.515V29.6727H243.878V40H242.424ZM249.062 40V28.3636H250.517V33.0182H254.88V28.3636H256.335V40H254.88V34.3273H250.517V40H249.062ZM263.831 35.3455L262.231 30.0073L260.617 35.3455H263.831ZM265.228 40L264.224 36.6545H260.224L259.22 40H257.737L261.49 28.3636H263.017L266.77 40H265.228ZM271.066 40V29.6727H267.43V28.3636H276.157V29.6727H272.521V40H271.066Z" fill="#4A3C93"/>
<path d="M37.1524 62V51.6727H33.516V50.3636H42.2433V51.6727H38.6069V62H37.1524ZM43.7908 62V50.3636H45.2453V55.0182H49.609V50.3636H51.0635V62H49.609V56.3273H45.2453V62H43.7908ZM53.3383 62V60.6909H56.2474V51.6727H53.3383V50.3636H60.611V51.6727H57.7019V60.6909H60.611V62H53.3383ZM66.7113 62.0873C65.8385 62.0873 65.024 61.9467 64.2676 61.6655C63.5113 61.3842 62.8325 60.8703 62.2313 60.1236L63.2785 59.1345C63.6858 59.6873 64.1707 60.0994 64.7331 60.3709C65.3052 60.6424 65.9791 60.7782 66.7549 60.7782C67.4725 60.7782 68.0494 60.6133 68.4858 60.2836C68.9319 59.9442 69.1549 59.4885 69.1549 58.9164C69.1549 58.3636 68.9658 57.9418 68.5876 57.6509C68.2094 57.3503 67.4628 57.0352 66.3476 56.7055C64.9319 56.2982 63.967 55.857 63.4531 55.3818C62.9391 54.9067 62.6822 54.2327 62.6822 53.36C62.6822 52.3515 63.0167 51.5903 63.6858 51.0764C64.3646 50.5624 65.184 50.3055 66.144 50.3055C66.9585 50.3055 67.7294 50.4509 68.4567 50.7418C69.1937 51.023 69.8434 51.5273 70.4058 52.2545L69.4022 53.2582C69.0143 52.7055 68.5294 52.2933 67.9476 52.0218C67.3658 51.7503 66.7743 51.6145 66.1731 51.6145C65.5622 51.6145 65.0725 51.7406 64.704 51.9927C64.3355 52.2352 64.1513 52.6473 64.1513 53.2291C64.1513 53.743 64.35 54.1503 64.7476 54.4509C65.1549 54.7418 65.95 55.057 67.1331 55.3964C68.4713 55.7842 69.3828 56.2109 69.8676 56.6764C70.3622 57.1321 70.6094 57.7964 70.6094 58.6691C70.6094 59.7842 70.2119 60.6327 69.4167 61.2145C68.6216 61.7964 67.7197 62.0873 66.7113 62.0873ZM81.9808 62V60.6909H84.8899V51.6727H81.9808V50.3636H89.2535V51.6727H86.3444V60.6909H89.2535V62H81.9808ZM95.3538 62.0873C94.481 62.0873 93.6665 61.9467 92.9101 61.6655C92.1538 61.3842 91.475 60.8703 90.8738 60.1236L91.921 59.1345C92.3283 59.6873 92.8132 60.0994 93.3756 60.3709C93.9477 60.6424 94.6216 60.7782 95.3974 60.7782C96.115 60.7782 96.6919 60.6133 97.1283 60.2836C97.5744 59.9442 97.7974 59.4885 97.7974 58.9164C97.7974 58.3636 97.6083 57.9418 97.2301 57.6509C96.8519 57.3503 96.1053 57.0352 94.9901 56.7055C93.5744 56.2982 92.6095 55.857 92.0956 55.3818C91.5816 54.9067 91.3247 54.2327 91.3247 53.36C91.3247 52.3515 91.6592 51.5903 92.3283 51.0764C93.0071 50.5624 93.8265 50.3055 94.7865 50.3055C95.601 50.3055 96.3719 50.4509 97.0992 50.7418C97.8362 51.023 98.4859 51.5273 99.0483 52.2545L98.0447 53.2582C97.6568 52.7055 97.1719 52.2933 96.5901 52.0218C96.0083 51.7503 95.4168 51.6145 94.8156 51.6145C94.2047 51.6145 93.715 51.7406 93.3465 51.9927C92.978 52.2352 92.7938 52.6473 92.7938 53.2291C92.7938 53.743 92.9925 54.1503 93.3901 54.4509C93.7974 54.7418 94.5925 55.057 95.7756 55.3964C97.1138 55.7842 98.0253 56.2109 98.5101 56.6764C99.0047 57.1321 99.2519 57.7964 99.2519 58.6691C99.2519 59.7842 98.8544 60.6327 98.0592 61.2145C97.2641 61.7964 96.3622 62.0873 95.3538 62.0873ZM114.26 62.1455C112.98 62.1455 112.005 61.7915 111.336 61.0836C110.667 60.3661 110.332 59.3285 110.332 57.9709V54.4509C110.332 53.0739 110.667 52.0267 111.336 51.3091C112.015 50.5818 112.994 50.2182 114.274 50.2182C115.545 50.2182 116.514 50.5818 117.183 51.3091C117.852 52.0267 118.187 53.0739 118.187 54.4509V57.9709C118.187 59.3285 117.852 60.3661 117.183 61.0836C116.514 61.7915 115.54 62.1455 114.26 62.1455ZM114.26 60.8364C115.152 60.8364 115.787 60.6182 116.165 60.1818C116.543 59.7455 116.732 59.0085 116.732 57.9709V54.4509C116.732 53.3939 116.543 52.6424 116.165 52.1964C115.787 51.7503 115.152 51.5273 114.26 51.5273C113.368 51.5273 112.732 51.7503 112.354 52.1964C111.976 52.6424 111.787 53.3939 111.787 54.4509V57.9709C111.787 59.0085 111.976 59.7455 112.354 60.1818C112.732 60.6182 113.368 60.8364 114.26 60.8364ZM125.364 62L121.48 52.1964V62H120.171V50.3636H122.164L126.134 60.3855V50.3636H127.444V62H125.364ZM130.446 62V50.3636H131.9V60.6909H136.991V62H130.446ZM143.629 62H142.175V57.6364L138.015 50.3636H139.644L142.989 56.3273L146.175 50.3636H147.775L143.629 57.6364V62ZM161.27 62V51.6727H157.634V50.3636H166.361V51.6727H162.724V62H161.27ZM167.908 62V50.3636H169.363V55.0182H173.726V50.3636H175.181V62H173.726V56.3273H169.363V62H167.908ZM177.456 62V50.3636H185.019V51.6727H178.91V55.0182H184.292V56.3273H178.91V60.6909H185.019V62H177.456ZM196.551 62V50.3636H200.158C201.37 50.3636 202.262 50.5867 202.834 51.0327C203.416 51.4788 203.707 52.1673 203.707 53.0982V53.7527C203.707 54.2473 203.567 54.6642 203.285 55.0036C203.004 55.3333 202.616 55.5418 202.122 55.6291V56.0509C202.752 56.1091 203.251 56.3467 203.62 56.7636C203.988 57.1806 204.173 57.7188 204.173 58.3782V59.0327C204.173 60.0412 203.853 60.7879 203.213 61.2727C202.573 61.7576 201.588 62 200.26 62H196.551ZM198.005 55.3091H200.304C200.992 55.3091 201.491 55.183 201.802 54.9309C202.122 54.6691 202.282 54.257 202.282 53.6945V53.2873C202.282 52.7248 202.122 52.3176 201.802 52.0655C201.491 51.8036 200.992 51.6727 200.304 51.6727H198.005V55.3091ZM198.005 60.6909H200.594C201.331 60.6909 201.87 60.5503 202.209 60.2691C202.548 59.9782 202.718 59.5127 202.718 58.8727V58.4073C202.718 57.7673 202.548 57.3067 202.209 57.0255C201.87 56.7345 201.331 56.5891 200.594 56.5891H198.005V60.6909ZM206.098 62V50.3636H213.662V51.6727H207.553V55.0182H212.935V56.3273H207.553V60.6909H213.662V62H206.098ZM219.573 62.1455C218.215 62.1455 217.173 61.7867 216.446 61.0691C215.719 60.3418 215.355 59.3091 215.355 57.9709V54.4509C215.355 53.0933 215.709 52.0509 216.417 51.3236C217.125 50.5867 218.133 50.2182 219.442 50.2182C220.635 50.2182 221.542 50.5188 222.162 51.12C222.792 51.7212 223.142 52.6376 223.209 53.8691L221.755 54.0145C221.677 53.1127 221.459 52.4727 221.1 52.0945C220.742 51.7164 220.184 51.5273 219.428 51.5273C218.487 51.5273 217.813 51.7552 217.406 52.2109C217.008 52.657 216.809 53.4036 216.809 54.4509V57.9709C216.809 59.0085 217.023 59.7455 217.449 60.1818C217.876 60.6182 218.584 60.8364 219.573 60.8364C220.465 60.8364 221.1 60.5891 221.479 60.0945C221.857 59.5903 222.046 58.7467 222.046 57.5636H219.282V56.2545H223.5V57.8255C223.5 59.2121 223.161 60.2788 222.482 61.0255C221.803 61.7721 220.834 62.1455 219.573 62.1455ZM225.193 62V60.6909H228.102V51.6727H225.193V50.3636H232.466V51.6727H229.557V60.6909H232.466V62H225.193ZM239.934 62L236.05 52.1964V62H234.741V50.3636H236.734L240.704 60.3855V50.3636H242.014V62H239.934ZM249.481 62L245.597 52.1964V62H244.288V50.3636H246.281L250.252 60.3855V50.3636H251.561V62H249.481ZM253.836 62V60.6909H256.745V51.6727H253.836V50.3636H261.109V51.6727H258.199V60.6909H261.109V62H253.836ZM268.576 62L264.692 52.1964V62H263.383V50.3636H265.376L269.347 60.3855V50.3636H270.656V62H268.576ZM276.858 62.1455C275.5 62.1455 274.458 61.7867 273.731 61.0691C273.004 60.3418 272.64 59.3091 272.64 57.9709V54.4509C272.64 53.0933 272.994 52.0509 273.702 51.3236C274.41 50.5867 275.418 50.2182 276.727 50.2182C277.92 50.2182 278.827 50.5188 279.447 51.12C280.077 51.7212 280.427 52.6376 280.494 53.8691L279.04 54.0145C278.962 53.1127 278.744 52.4727 278.385 52.0945C278.027 51.7164 277.469 51.5273 276.713 51.5273C275.772 51.5273 275.098 51.7552 274.691 52.2109C274.293 52.657 274.094 53.4036 274.094 54.4509V57.9709C274.094 59.0085 274.308 59.7455 274.734 60.1818C275.161 60.6182 275.869 60.8364 276.858 60.8364C277.75 60.8364 278.385 60.5891 278.764 60.0945C279.142 59.5903 279.331 58.7467 279.331 57.5636H276.567V56.2545H280.785V57.8255C280.785 59.2121 280.446 60.2788 279.767 61.0255C279.088 61.7721 278.119 62.1455 276.858 62.1455ZM286.129 62.1455C285.644 62.1455 285.252 62.0388 284.951 61.8255C284.65 61.6024 284.5 61.2533 284.5 60.7782V60.3709C284.5 59.8958 284.65 59.5467 284.951 59.3236C285.252 59.0909 285.644 58.9745 286.129 58.9745C286.614 58.9745 287.002 59.0909 287.293 59.3236C287.593 59.5467 287.744 59.8958 287.744 60.3709V60.7782C287.744 61.2533 287.593 61.6024 287.293 61.8255C286.992 62.0388 286.604 62.1455 286.129 62.1455Z" fill="#4A3C93"/>
</g>
<defs>
<clipPath id="clip0_40_206">
<rect width="324" height="73" fill="white" transform="matrix(-1 0 0 1 324 0)"/>
</clipPath>
<clipPath id="clip1_40_206">
<rect width="324" height="73" fill="white" transform="matrix(-1 0 0 1 324 0)"/>
</clipPath>
</defs>
</svg>
