<svg width="38" height="38" viewBox="0 0 38 38" fill="none" xmlns="http://www.w3.org/2000/svg">
<g clip-path="url(#clip0_52_1444)">
<path d="M0.5 9C0.5 4.30558 4.30558 0.5 9 0.5H29C33.6944 0.5 37.5 4.30558 37.5 9V29C37.5 33.6944 33.6944 37.5 29 37.5H9C4.30558 37.5 0.5 33.6944 0.5 29V9Z" stroke="#F8F8F8"/>
<path d="M29.5788 12.43C29.4088 12.22 29.1487 12.13 28.8987 12.16C28.9987 11.96 29.0787 11.75 29.1487 11.54C29.2487 11.24 29.1488 10.92 28.9088 10.72C28.6688 10.53 28.3287 10.5 28.0587 10.66C27.4487 11.02 26.7688 11.29 26.0688 11.46C25.1888 10.69 24.0287 10.25 22.8387 10.25C20.1687 10.25 17.9888 12.4 17.9888 15.04C17.9888 15.07 17.9888 15.1 17.9888 15.13C15.2388 14.77 12.7188 13.38 10.9688 11.26C10.8088 11.07 10.5688 10.97 10.3288 10.99C10.0888 11.01 9.86876 11.15 9.73876 11.36C9.29876 12.1 9.07875 12.92 9.07875 13.78C9.07875 14.54 9.25875 15.27 9.58875 15.93C9.52875 15.95 9.46875 15.98 9.41875 16.01C9.18875 16.14 9.04875 16.42 9.04875 16.68C9.04875 18.07 9.65876 19.35 10.6588 20.24C10.4988 20.44 10.4388 20.71 10.5188 20.95C10.9388 22.25 11.8988 23.28 13.1088 23.83C11.8588 24.39 10.4388 24.61 9.06876 24.45C8.71876 24.41 8.38875 24.62 8.27875 24.95C8.15875 25.28 8.28875 25.65 8.58875 25.83C10.5787 27.09 12.8987 27.76 15.2887 27.76C23.0587 27.76 27.6987 21.54 27.6987 15.52V15.36C28.4287 14.79 29.0688 14.11 29.6088 13.34C29.7988 13.07 29.7888 12.7 29.5788 12.44V12.43ZM26.4988 14.38C26.2888 14.53 26.1688 14.78 26.1888 15.04C26.1988 15.2 26.1987 15.35 26.1987 15.51C26.1987 20.79 22.1187 26.25 15.2887 26.25C14.1687 26.25 13.0688 26.08 12.0188 25.76C13.2888 25.47 14.4788 24.91 15.5288 24.1C15.7788 23.91 15.8788 23.57 15.7788 23.27C15.6788 22.97 15.3988 22.76 15.0788 22.75C14.0488 22.73 13.0988 22.25 12.4988 21.49C12.7588 21.46 13.0188 21.42 13.2688 21.35C13.6088 21.26 13.8388 20.95 13.8288 20.6C13.8288 20.25 13.5687 19.95 13.2287 19.88C12.0587 19.65 11.1388 18.83 10.7488 17.75C11.0388 17.81 11.3287 17.85 11.6187 17.86C11.9987 17.88 12.2588 17.66 12.3588 17.34C12.4588 17.02 12.3387 16.67 12.0587 16.48C11.1287 15.87 10.5688 14.85 10.5688 13.74C10.5688 13.52 10.5888 13.3 10.6288 13.09C12.7888 15.22 15.6987 16.51 18.7887 16.67C19.0187 16.67 19.2487 16.59 19.3987 16.41C19.5487 16.23 19.6087 16 19.5587 15.77C19.4987 15.5 19.4787 15.24 19.4787 15C19.4787 13.19 20.9788 11.71 22.8288 11.71C23.7688 11.71 24.6388 12.08 25.2787 12.75C25.4587 12.93 25.7088 13.02 25.9588 12.97C26.0088 12.97 26.0488 12.95 26.0988 12.94C25.8888 13.14 25.8188 13.44 25.9088 13.72C26.0088 14.03 26.2987 14.24 26.6187 14.24C26.6187 14.24 26.5287 14.31 26.4787 14.34L26.4988 14.38Z" fill="#F8F8F8"/>
</g>
<defs>
<clipPath id="clip0_52_1444">
<rect width="38" height="38" fill="white"/>
</clipPath>
</defs>
</svg>
